Amita-Regular.ufo
<glyph name="exclam" format="1">
  <advance width="177"/>
  <unicode hex="0021"/>
  <outline>
    <contour>
      <point x="136" y="517" type="line"/>
      <point x="106" y="119" type="line"/>
      <point x="71" y="109" type="line"/>
      <point x="40" y="490" type="line"/>
    </contour>
    <contour>
      <point x="132" y="6"/>
      <point x="112" y="-13"/>
      <point x="89" y="-13" type="curve" smooth="yes"/>
      <point x="65" y="-13"/>
      <point x="45" y="6"/>
      <point x="45" y="30" type="curve" smooth="yes"/>
      <point x="45" y="54"/>
      <point x="65" y="75"/>
      <point x="89" y="75" type="curve" smooth="yes"/>
      <point x="112" y="75"/>
      <point x="132" y="54"/>
      <point x="132" y="30" type="curve" smooth="yes"/>
    </contour>
  </outline>
</glyph>
<glyph name="quotedbl" format="1">
  <advance width="268"/>
  <unicode hex="0022"/>
  <outline>
    <contour>
      <point x="123" y="517" type="line"/>
      <point x="101" y="339" type="line"/>
      <point x="70" y="326" type="line"/>
      <point x="45" y="486" type="line"/>
    </contour>
    <contour>
      <point x="223" y="517" type="line"/>
      <point x="200" y="339" type="line"/>
      <point x="169" y="326" type="line"/>
      <point x="145" y="486" type="line"/>
    </contour>
  </outline>
</glyph>
<glyph name="numbersign" format="1">
  <advance width="443"/>
  <unicode hex="0023"/>
  <outline>
    <contour>
      <point x="182" y="212" type="line"/>
      <point x="242" y="212" type="line"/>
      <point x="258" y="263" type="line"/>
      <point x="201" y="263" type="line"/>
    </contour>
    <contour>
      <point x="30" y="187" type="line"/>
      <point x="40" y="212" type="line"/>
      <point x="122" y="212" type="line"/>
      <point x="138" y="263" type="line"/>
      <point x="60" y="263" type="line"/>
      <point x="69" y="287" type="line"/>
      <point x="145" y="287" type="line"/>
      <point x="176" y="388" type="line"/>
      <point x="250" y="402" type="line"/>
      <point x="210" y="287" type="line"/>
      <point x="265" y="287" type="line"/>
      <point x="296" y="388" type="line"/>
      <point x="370" y="402" type="line"/>
      <point x="329" y="287" type="line"/>
      <point x="409" y="287" type="line"/>
      <point x="400" y="263" type="line"/>
      <point x="321" y="263" type="line"/>
      <point x="302" y="212" type="line"/>
      <point x="380" y="212" type="line"/>
      <point x="370" y="187" type="line"/>
      <point x="294" y="187" type="line"/>
      <point x="260" y="90" type="line"/>
      <point x="203" y="84" type="line"/>
      <point x="234" y="187" type="line"/>
      <point x="174" y="187" type="line"/>
      <point x="139" y="90" type="line"/>
      <point x="82" y="84" type="line"/>
      <point x="114" y="187" type="line"/>
    </contour>
  </outline>
</glyph>
<glyph name="quotesingle" format="1">
  <advance width="168"/>
  <unicode hex="0027"/>
  <outline>
    <contour>
      <point x="123" y="517" type="line"/>
      <point x="101" y="339" type="line"/>
      <point x="70" y="326" type="line"/>
      <point x="45" y="486" type="line"/>
    </contour>
  </outline>
</glyph>
<glyph name="parenright" format="1">
  <advance width="233"/>
  <unicode hex="0029"/>
  <outline>
    <contour>
      <point x="2" y="532" type="line"/>
      <point x="90" y="464"/>
      <point x="138" y="331"/>
      <point x="138" y="222" type="curve" smooth="yes"/>
      <point x="138" y="112"/>
      <point x="91" y="-22"/>
      <point x="2" y="-93" type="curve"/>
      <point x="11" y="-107" type="line"/>
      <point x="127" y="-45"/>
      <point x="213" y="90"/>
      <point x="213" y="222" type="curve" smooth="yes"/>
      <point x="213" y="355"/>
      <point x="127" y="489"/>
      <point x="11" y="550" type="curve"/>
    </contour>
  </outline>
</glyph>
<glyph name="plus" format="1">
  <advance width="330"/>
  <unicode hex="002B"/>
  <outline>
    <contour>
      <point x="195" y="160" type="line"/>
      <point x="136" y="137" type="line"/>
      <point x="136" y="243" type="line"/>
      <point x="31" y="243" type="line"/>
      <point x="54" y="301" type="line"/>
      <point x="136" y="301" type="line"/>
      <point x="136" y="383" type="line"/>
      <point x="195" y="406" type="line"/>
      <point x="195" y="301" type="line"/>
      <point x="299" y="301" type="line"/>
      <point x="277" y="243" type="line"/>
      <point x="195" y="243" type="line"/>
    </contour>
  </outline>
</glyph>
<glyph name="zero" format="1">
  <advance width="497"/>
  <unicode hex="0030"/>
  <outline>
    <contour>
      <point x="103" y="-7"/>
      <point x="31" y="126"/>
      <point x="31" y="259" type="curve" smooth="yes"/>
      <point x="31" y="392"/>
      <point x="103" y="525"/>
      <point x="249" y="525" type="curve" smooth="yes"/>
      <point x="395" y="525"/>
      <point x="468" y="392"/>
      <point x="468" y="259" type="curve" smooth="yes"/>
      <point x="468" y="126"/>
      <point x="395" y="-7"/>
      <point x="249" y="-7" type="curve" smooth="yes"/>
    </contour>
    <contour>
      <point x="133" y="490"/>
      <point x="95" y="410"/>
      <point x="95" y="316" type="curve" smooth="yes"/>
      <point x="95" y="189"/>
      <point x="167" y="36"/>
      <point x="276" y="36" type="curve" smooth="yes"/>
      <point x="367" y="36"/>
      <point x="406" y="118"/>
      <point x="406" y="212" type="curve" smooth="yes"/>
      <point x="406" y="339"/>
      <point x="334" y="490"/>
      <point x="223" y="490" type="curve" smooth="yes"/>
    </contour>
  </outline>
</glyph>
<glyph name="four" format="1">
  <advance width="406"/>
  <unicode hex="0034"/>
  <outline>
    <contour>
      <point x="386" y="211" type="line"/>
      <point x="358" y="137" type="line"/>
      <point x="320" y="137" type="line"/>
      <point x="320" y="12" type="line"/>
      <point x="254" y="-14" type="line"/>
      <point x="254" y="137" type="line"/>
      <point x="3" y="137" type="line"/>
      <point x="91" y="232"/>
      <point x="146" y="334"/>
      <point x="179" y="455" type="curve"/>
      <point x="219" y="432" type="line"/>
      <point x="201" y="361"/>
      <point x="146" y="261"/>
      <point x="96" y="211" type="curve"/>
      <point x="254" y="211" type="line"/>
      <point x="254" y="493" type="line"/>
      <point x="320" y="518" type="line"/>
      <point x="320" y="211" type="line"/>
    </contour>
  </outline>
</glyph>
<glyph name="seven" format="1">
  <advance width="364"/>
  <unicode hex="0037"/>
  <outline>
    <contour>
      <point x="357" y="515"/>
      <point x="337" y="508"/>
      <point x="316" y="508" type="curve" smooth="yes"/>
      <point x="72" y="508" type="line"/>
      <point x="4" y="400" type="line"/>
      <point x="24" y="386" type="line"/>
      <point x="54" y="422"/>
      <point x="80" y="437"/>
      <point x="136" y="437" type="curve" smooth="yes"/>
      <point x="282" y="437" type="line"/>
      <point x="185" y="325"/>
      <point x="83" y="148"/>
      <point x="83" y="-14" type="curve"/>
      <point x="178" y="26" type="line"/>
      <point x="174" y="33"/>
      <point x="174" y="49"/>
      <point x="174" y="65" type="curve" smooth="yes"/>
      <point x="174" y="208"/>
      <point x="261" y="390"/>
      <point x="379" y="510" type="curve"/>
      <point x="367" y="523" type="line"/>
    </contour>
  </outline>
</glyph>
<glyph name="eight" format="1">
  <advance width="428"/>
  <unicode hex="0038"/>
  <outline>
    <contour>
      <point x="398" y="39"/>
      <point x="332" y="-23"/>
      <point x="208" y="-23" type="curve" smooth="yes"/>
      <point x="114" y="-23"/>
      <point x="30" y="32"/>
      <point x="30" y="125" type="curve" smooth="yes"/>
      <point x="30" y="195"/>
      <point x="89" y="247"/>
      <point x="146" y="276" type="curve"/>
      <point x="104" y="300"/>
      <point x="69" y="340"/>
      <point x="69" y="390" type="curve" smooth="yes"/>
      <point x="69" y="482"/>
      <point x="154" y="524"/>
      <point x="237" y="524" type="curve" smooth="yes"/>
      <point x="312" y="524"/>
      <point x="364" y="488"/>
      <point x="364" y="418" type="curve" smooth="yes"/>
      <point x="364" y="354"/>
      <point x="297" y="314"/>
      <point x="244" y="291" type="curve"/>
      <point x="314" y="252" type="line" smooth="yes"/>
      <point x="359" y="227"/>
      <point x="398" y="195"/>
      <point x="398" y="135" type="curve" smooth="yes"/>
    </contour>
    <contour>
      <point x="302" y="454"/>
      <point x="269" y="492"/>
      <point x="213" y="492" type="curve" smooth="yes"/>
      <point x="163" y="492"/>
      <point x="124" y="465"/>
      <point x="124" y="419" type="curve" smooth="yes"/>
      <point x="124" y="368"/>
      <point x="171" y="326"/>
      <point x="214" y="304" type="curve"/>
      <point x="257" y="324"/>
      <point x="302" y="360"/>
      <point x="302" y="407" type="curve" smooth="yes"/>
    </contour>
    <contour>
      <point x="177" y="260" type="line"/>
      <point x="135" y="231"/>
      <point x="107" y="186"/>
      <point x="107" y="138" type="curve" smooth="yes"/>
      <point x="107" y="65"/>
      <point x="155" y="15"/>
      <point x="227" y="15" type="curve" smooth="yes"/>
      <point x="302" y="15"/>
      <point x="342" y="58"/>
      <point x="342" y="107" type="curve" smooth="yes"/>
      <point x="342" y="144"/>
      <point x="328" y="181"/>
      <point x="274" y="209" type="curve" smooth="yes"/>
    </contour>
  </outline>
</glyph>
<glyph name="equal" format="1">
  <advance width="370"/>
  <unicode hex="003D"/>
  <outline>
    <contour>
      <point x="319" y="360" type="line"/>
      <point x="297" y="302" type="line"/>
      <point x="51" y="302" type="line"/>
      <point x="74" y="360" type="line"/>
    </contour>
    <contour>
      <point x="319" y="242" type="line"/>
      <point x="297" y="184" type="line"/>
      <point x="51" y="184" type="line"/>
      <point x="74" y="242" type="line"/>
    </contour>
  </outline>
</glyph>
<glyph name="question" format="1">
  <advance width="367"/>
  <unicode hex="003F"/>
  <outline>
    <contour>
      <point x="338" y="258"/>
      <point x="171" y="215"/>
      <point x="171" y="119" type="curve"/>
      <point x="137" y="112" type="line"/>
      <point x="137" y="238"/>
      <point x="265" y="267"/>
      <point x="265" y="378" type="curve" smooth="yes"/>
      <point x="265" y="443"/>
      <point x="221" y="489"/>
      <point x="161" y="489" type="curve" smooth="yes"/>
      <point x="122" y="489"/>
      <point x="85" y="459"/>
      <point x="85" y="416" type="curve" smooth="yes"/>
      <point x="85" y="389"/>
      <point x="98" y="364"/>
      <point x="117" y="346" type="curve"/>
      <point x="65" y="301" type="line"/>
      <point x="41" y="322"/>
      <point x="30" y="356"/>
      <point x="30" y="385" type="curve" smooth="yes"/>
      <point x="30" y="463"/>
      <point x="106" y="523"/>
      <point x="187" y="523" type="curve" smooth="yes"/>
      <point x="274" y="523"/>
      <point x="338" y="467"/>
      <point x="338" y="381" type="curve" smooth="yes"/>
    </contour>
    <contour>
      <point x="197" y="6"/>
      <point x="177" y="-13"/>
      <point x="153" y="-13" type="curve" smooth="yes"/>
      <point x="129" y="-13"/>
      <point x="110" y="6"/>
      <point x="110" y="30" type="curve" smooth="yes"/>
      <point x="110" y="54"/>
      <point x="129" y="75"/>
      <point x="153" y="75" type="curve" smooth="yes"/>
      <point x="177" y="75"/>
      <point x="197" y="54"/>
      <point x="197" y="30" type="curve" smooth="yes"/>
    </contour>
  </outline>
</glyph>
<glyph name="A" format="1">
  <advance width="500"/>
  <unicode hex="0041"/>
  <outline>
    <contour>
      <point x="187" y="508"/>
      <point x="26" y="347"/>
      <point x="26" y="162" type="curve" smooth="yes"/>
      <point x="26" y="54"/>
      <point x="85" y="-8"/>
      <point x="169" y="-8" type="curve" smooth="yes"/>
      <point x="251" y="-8"/>
      <point x="311" y="67"/>
      <point x="347" y="224" type="curve"/>
      <point x="351" y="224" type="line"/>
      <point x="351" y="86" type="line" smooth="yes"/>
      <point x="351" y="26"/>
      <point x="382" y="-4"/>
      <point x="425" y="-4" type="curve" smooth="yes"/>
      <point x="463" y="-4"/>
      <point x="492" y="22"/>
      <point x="504" y="49" type="curve"/>
      <point x="494" y="59" type="line"/>
      <point x="485" y="44"/>
      <point x="467" y="33"/>
      <point x="451" y="33" type="curve" smooth="yes"/>
      <point x="431" y="33"/>
      <point x="418" y="51"/>
      <point x="418" y="78" type="curve" smooth="yes"/>
      <point x="418" y="458" type="line"/>
      <point x="351" y="431" type="line"/>
      <point x="351" y="230"/>
      <point x="272" y="37"/>
      <point x="189" y="37" type="curve" smooth="yes"/>
      <point x="136" y="37"/>
      <point x="97" y="91"/>
      <point x="97" y="181" type="curve" smooth="yes"/>
      <point x="97" y="341"/>
      <point x="217" y="474"/>
      <point x="380" y="496" type="curve"/>
      <point x="380" y="517" type="line"/>
    </contour>
    <contour>
      <point x="494" y="4" type="move" name="ogonek"/>
    </contour>
    <contour>
      <point x="287" y="538" type="move" name="top"/>
    </contour>
  </outline>
</glyph>
<glyph name="B" format="1">
  <advance width="468"/>
  <unicode hex="0042"/>
  <outline>
    <contour>
      <point x="226" y="278" type="line"/>
      <point x="287" y="310"/>
      <point x="381" y="382"/>
      <point x="381" y="454" type="curve" smooth="yes"/>
      <point x="381" y="500"/>
      <point x="341" y="523"/>
      <point x="298" y="523" type="curve" smooth="yes"/>
      <point x="155" y="523"/>
      <point x="55" y="414"/>
      <point x="55" y="257" type="curve" smooth="yes"/>
      <point x="55" y="-6" type="line"/>
      <point x="122" y="19" type="line"/>
      <point x="122" y="297" type="line" smooth="yes"/>
      <point x="122" y="362"/>
      <point x="147" y="485"/>
      <point x="240" y="485" type="curve" smooth="yes"/>
      <point x="280" y="485"/>
      <point x="304" y="461"/>
      <point x="304" y="425" type="curve" smooth="yes"/>
      <point x="304" y="346"/>
      <point x="209" y="286"/>
      <point x="142" y="258" type="curve"/>
      <point x="148" y="238" type="line"/>
      <point x="179" y="249"/>
      <point x="212" y="257"/>
      <point x="246" y="257" type="curve" smooth="yes"/>
      <point x="305" y="257"/>
      <point x="367" y="217"/>
      <point x="367" y="158" type="curve" smooth="yes"/>
      <point x="367" y="42"/>
      <point x="226" y="-14"/>
      <point x="128" y="-34" type="curve"/>
      <point x="132" y="-53" type="line"/>
      <point x="251" y="-49"/>
      <point x="445" y="18"/>
      <point x="445" y="163" type="curve" smooth="yes"/>
      <point x="445" y="248"/>
      <point x="371" y="282"/>
      <point x="296" y="282" type="curve" smooth="yes"/>
      <point x="273" y="282"/>
      <point x="250" y="279"/>
      <point x="227" y="275" type="curve"/>
    </contour>
  </outline>
</glyph>
<glyph name="G" format="1">
  <advance width="479"/>
  <unicode hex="0047"/>
  <outline>
    <contour>
      <point x="155" y="528"/>
      <point x="30" y="380"/>
      <point x="30" y="186" type="curve" smooth="yes"/>
      <point x="30" y="69"/>
      <point x="93" y="-6"/>
      <point x="193" y="-6" type="curve" smooth="yes"/>
      <point x="266" y="-6"/>
      <point x="337" y="50"/>
      <point x="358" y="145" type="curve"/>
      <point x="362" y="145" type="line"/>
      <point x="362" y="-78" type="line"/>
      <point x="427" y="-52" type="line"/>
      <point x="427" y="242" type="line"/>
      <point x="357" y="217" type="line"/>
      <point x="355" y="134"/>
      <point x="290" y="52"/>
      <point x="223" y="52" type="curve" smooth="yes"/>
      <point x="142" y="52"/>
      <point x="106" y="126"/>
      <point x="106" y="238" type="curve" smooth="yes"/>
      <point x="106" y="381"/>
      <point x="178" y="487"/>
      <point x="278" y="487" type="curve" smooth="yes"/>
      <point x="315" y="487"/>
      <point x="339" y="467"/>
      <point x="339" y="435" type="curve" smooth="yes"/>
      <point x="339" y="395"/>
      <point x="298" y="353"/>
      <point x="247" y="340" type="curve"/>
      <point x="254" y="325" type="line"/>
      <point x="334" y="332"/>
      <point x="415" y="399"/>
      <point x="415" y="459" type="curve" smooth="yes"/>
      <point x="415" y="500"/>
      <point x="375" y="528"/>
      <point x="316" y="528" type="curve" smooth="yes"/>
    </contour>
    <contour>
      <point x="271" y="538" type="move" name="top"/>
    </contour>
    <contour>
      <point x="235" y="0" type="move" name="bottom"/>
    </contour>
  </outline>
</glyph>
<glyph name="H" format="1">
  <advance width="478"/>
  <unicode hex="0048"/>
  <outline>
    <contour>
      <point x="412" y="15" type="line"/>
      <point x="344" y="-10" type="line"/>
      <point x="344" y="201" type="line"/>
      <point x="140" y="201" type="line"/>
      <point x="140" y="15" type="line"/>
      <point x="73" y="-10" type="line"/>
      <point x="73" y="201" type="line"/>
      <point x="13" y="201" type="line"/>
      <point x="34" y="244" type="line"/>
      <point x="73" y="244" type="line"/>
      <point x="73" y="504" type="line"/>
      <point x="140" y="530" type="line"/>
      <point x="140" y="244" type="line"/>
      <point x="344" y="244" type="line"/>
      <point x="344" y="504" type="line"/>
      <point x="412" y="530" type="line"/>
    </contour>
    <contour>
      <point x="241" y="269" type="move" name="center"/>
    </contour>
    <contour>
      <point x="255" y="538" type="move" name="top"/>
    </contour>
  </outline>
</glyph>
<glyph name="I" format="1">
  <advance width="211"/>
  <unicode hex="0049"/>
  <outline>
    <contour>
      <point x="66" y="505" type="line"/>
      <point x="66" y="-10" type="line"/>
      <point x="133" y="14" type="line"/>
      <point x="133" y="530" type="line"/>
    </contour>
    <contour>
      <point x="180" y="22" type="move" name="ogonek"/>
    </contour>
    <contour>
      <point x="101" y="538" type="move" name="top"/>
    </contour>
  </outline>
</glyph>
<glyph name="L" format="1">
  <advance width="407"/>
  <unicode hex="004C"/>
  <outline>
    <contour>
      <point x="152" y="530"/>
      <point x="62" y="426"/>
      <point x="62" y="291" type="curve" smooth="yes"/>
      <point x="62" y="87" type="line" smooth="yes"/>
      <point x="62" y="50"/>
      <point x="48" y="25"/>
      <point x="25" y="8" type="curve"/>
      <point x="41" y="-6" type="line"/>
      <point x="67" y="13"/>
      <point x="102" y="22"/>
      <point x="129" y="22" type="curve" smooth="yes"/>
      <point x="209" y="22"/>
      <point x="269" y="0"/>
      <point x="340" y="-8" type="curve"/>
      <point x="393" y="105" type="line"/>
      <point x="381" y="113" type="line"/>
      <point x="362" y="89"/>
      <point x="332" y="67"/>
      <point x="298" y="67" type="curve" smooth="yes"/>
      <point x="247" y="67"/>
      <point x="225" y="78"/>
      <point x="175" y="78" type="curve" smooth="yes"/>
      <point x="145" y="78"/>
      <point x="125" y="66"/>
      <point x="103" y="50" type="curve"/>
      <point x="101" y="53" type="line"/>
      <point x="118" y="74"/>
      <point x="129" y="93"/>
      <point x="129" y="125" type="curve" smooth="yes"/>
      <point x="129" y="351" type="line" smooth="yes"/>
      <point x="129" y="416"/>
      <point x="161" y="489"/>
      <point x="246" y="489" type="curve"/>
      <point x="279" y="489"/>
      <point x="301" y="472"/>
      <point x="301" y="440" type="curve" smooth="yes"/>
      <point x="301" y="399"/>
      <point x="261" y="357"/>
      <point x="209" y="341" type="curve"/>
      <point x="216" y="326" type="line"/>
      <point x="296" y="337"/>
      <point x="374" y="400"/>
      <point x="374" y="460" type="curve" smooth="yes"/>
      <point x="374" y="504"/>
      <point x="337" y="530"/>
      <point x="287" y="530" type="curve" smooth="yes"/>
    </contour>
    <contour>
      <point x="239" y="538" type="move" name="top"/>
    </contour>
    <contour>
      <point x="214" y="0" type="move" name="bottom"/>
    </contour>
    <contour>
      <point x="399" y="538" type="move" name="topright"/>
    </contour>
  </outline>
</glyph>
<glyph name="N" format="1">
  <advance width="456"/>
  <unicode hex="004E"/>
  <outline>
    <contour>
      <point x="67" y="-9" type="line"/>
      <point x="134" y="17" type="line"/>
      <point x="134" y="259" type="line" smooth="yes"/>
      <point x="134" y="326"/>
      <point x="165" y="491"/>
      <point x="256" y="491" type="curve" smooth="yes"/>
      <point x="306" y="491"/>
      <point x="307" y="433"/>
      <point x="307" y="398" type="curve" smooth="yes"/>
      <point x="307" y="86" type="line"/>
      <point x="307" y="26"/>
      <point x="339" y="-4"/>
      <point x="381" y="-4" type="curve" smooth="yes"/>
      <point x="421" y="-4"/>
      <point x="449" y="23"/>
      <point x="461" y="49" type="curve"/>
      <point x="451" y="59" type="line"/>
      <point x="441" y="44"/>
      <point x="423" y="33"/>
      <point x="407" y="33" type="curve" smooth="yes"/>
      <point x="386" y="33"/>
      <point x="375" y="51"/>
      <point x="375" y="78" type="curve"/>
      <point x="375" y="427" type="line" smooth="yes"/>
      <point x="375" y="481"/>
      <point x="347" y="530"/>
      <point x="286" y="530" type="curve" smooth="yes"/>
      <point x="197" y="530"/>
      <point x="153" y="461"/>
      <point x="134" y="391" type="curve"/>
      <point x="134" y="531" type="line"/>
      <point x="67" y="506" type="line"/>
    </contour>
    <contour>
      <point x="225" y="538" type="move" name="top"/>
    </contour>
    <contour>
      <point x="228" y="0" type="move" name="bottom"/>
    </contour>
  </outline>
</glyph>
<glyph name="O" format="1">
  <advance width="528"/>
  <unicode hex="004F"/>
  <outline>
    <contour>
      <point x="105" y="525"/>
      <point x="32" y="387"/>
      <point x="32" y="255" type="curve" smooth="yes"/>
      <point x="32" y="124"/>
      <point x="122" y="-13"/>
      <point x="267" y="-13" type="curve" smooth="yes"/>
      <point x="427" y="-13"/>
      <point x="499" y="126"/>
      <point x="499" y="255" type="curve" smooth="yes"/>
      <point x="499" y="389"/>
      <point x="410" y="525"/>
      <point x="267" y="525" type="curve" smooth="yes"/>
    </contour>
    <contour>
      <point x="380" y="485"/>
      <point x="432" y="321"/>
      <point x="432" y="209" type="curve" smooth="yes"/>
      <point x="432" y="135"/>
      <point x="396" y="31"/>
      <point x="297" y="31" type="curve" smooth="yes"/>
      <point x="152" y="31"/>
      <point x="99" y="194"/>
      <point x="99" y="307" type="curve" smooth="yes"/>
      <point x="99" y="382"/>
      <point x="134" y="485"/>
      <point x="234" y="485" type="curve" smooth="yes"/>
    </contour>
    <contour>
      <point x="268" y="538" type="move" name="top"/>
    </contour>
  </outline>
</glyph>
<glyph name="Q" format="1">
  <advance width="528"/>
  <unicode hex="0051"/>
  <outline>
    <contour>
      <point x="183" y="154"/>
      <point x="158" y="134"/>
      <point x="142" y="113" type="curve"/>
      <point x="155" y="98" type="line"/>
      <point x="165" y="105"/>
      <point x="176" y="110"/>
      <point x="194" y="110" type="curve" smooth="yes"/>
      <point x="222" y="110"/>
      <point x="247" y="84"/>
      <point x="294" y="14" type="curve" smooth="yes"/>
      <point x="337" y="-50"/>
      <point x="369" y="-73"/>
      <point x="413" y="-73" type="curve" smooth="yes"/>
      <point x="446" y="-73"/>
      <point x="471" y="-53"/>
      <point x="487" y="-32" type="curve"/>
      <point x="473" y="-18" type="line"/>
      <point x="464" y="-24"/>
      <point x="452" y="-29"/>
      <point x="435" y="-29" type="curve" smooth="yes"/>
      <point x="407" y="-29"/>
      <point x="382" y="-3"/>
      <point x="335" y="67" type="curve" smooth="yes"/>
      <point x="292" y="131"/>
      <point x="260" y="154"/>
      <point x="216" y="154" type="curve" smooth="yes"/>
    </contour>
    <component base="O"/>
  </outline>
</glyph>
<glyph name="S" format="1">
  <advance width="401"/>
  <unicode hex="0053"/>
  <outline>
    <contour>
      <point x="114" y="529"/>
      <point x="33" y="458"/>
      <point x="33" y="363" type="curve" smooth="yes"/>
      <point x="33" y="188"/>
      <point x="306" y="207"/>
      <point x="306" y="87" type="curve" smooth="yes"/>
      <point x="306" y="49"/>
      <point x="271" y="26"/>
      <point x="230" y="26" type="curve" smooth="yes"/>
      <point x="196" y="26"/>
      <point x="137" y="45"/>
      <point x="101" y="133" type="curve"/>
      <point x="45" y="69" type="line"/>
      <point x="82" y="14"/>
      <point x="147" y="-9"/>
      <point x="207" y="-9" type="curve" smooth="yes"/>
      <point x="291" y="-9"/>
      <point x="356" y="35"/>
      <point x="355" y="123" type="curve" smooth="yes"/>
      <point x="355" y="271"/>
      <point x="89" y="233"/>
      <point x="89" y="395" type="curve" smooth="yes"/>
      <point x="89" y="450"/>
      <point x="124" y="491"/>
      <point x="190" y="491" type="curve" smooth="yes"/>
      <point x="260" y="491"/>
      <point x="307" y="436"/>
      <point x="328" y="374" type="curve"/>
      <point x="386" y="444" type="line"/>
      <point x="345" y="498"/>
      <point x="284" y="529"/>
      <point x="220" y="529" type="curve" smooth="yes"/>
    </contour>
    <contour>
      <point x="224" y="538" type="move" name="top"/>
    </contour>
    <contour>
      <point x="217" y="0" type="move" name="bottom"/>
    </contour>
  </outline>
</glyph>
<glyph name="V" format="1">
  <advance width="420"/>
  <unicode hex="0056"/>
  <outline>
    <contour>
      <point x="221" y="75" type="line"/>
      <point x="321" y="285" type="line"/>
      <point x="334" y="315"/>
      <point x="352" y="354"/>
      <point x="352" y="385" type="curve" smooth="yes"/>
      <point x="352" y="432"/>
      <point x="324" y="471"/>
      <point x="286" y="500" type="curve"/>
      <point x="346" y="564" type="line"/>
      <point x="387" y="538"/>
      <point x="409" y="490"/>
      <point x="409" y="449" type="curve" smooth="yes"/>
      <point x="409" y="410"/>
      <point x="392" y="365"/>
      <point x="375" y="327" type="curve"/>
      <point x="214" y="-23" type="line"/>
      <point x="1" y="483" type="line"/>
      <point x="66" y="517" type="line"/>
      <point x="245" y="75" type="line"/>
    </contour>
  </outline>
</glyph>
<glyph name="W" format="1">
  <advance width="574"/>
  <unicode hex="0057"/>
  <outline>
    <contour>
      <point x="437" y="500" type="line"/>
      <point x="475" y="470"/>
      <point x="498" y="431"/>
      <point x="498" y="385" type="curve" smooth="yes"/>
      <point x="498" y="355"/>
      <point x="485" y="316"/>
      <point x="472" y="285" type="curve"/>
      <point x="388" y="95" type="line"/>
      <point x="406" y="95" type="line"/>
      <point x="268" y="484" type="line"/>
      <point x="198" y="459" type="line"/>
      <point x="374" y="-17" type="line"/>
      <point x="525" y="329" type="line"/>
      <point x="542" y="367"/>
      <point x="555" y="411"/>
      <point x="555" y="449" type="curve" smooth="yes"/>
      <point x="555" y="491"/>
      <point x="535" y="536"/>
      <point x="497" y="564" type="curve"/>
    </contour>
    <contour>
      <point x="-1" y="492" type="line"/>
      <point x="188" y="-17" type="line"/>
      <point x="294" y="271" type="line"/>
      <point x="272" y="302" type="line"/>
      <point x="198" y="107" type="line"/>
      <point x="215" y="107" type="line"/>
      <point x="68" y="517" type="line"/>
    </contour>
    <contour>
      <point x="287" y="538" type="move" name="top"/>
    </contour>
  </outline>
</glyph>
<glyph name="X" format="1">
  <advance width="416"/>
  <unicode hex="0058"/>
  <outline>
    <contour>
      <point x="10" y="490" type="line"/>
      <point x="344" y="-15" type="line"/>
      <point x="409" y="10" type="line"/>
      <point x="76" y="516" type="line"/>
    </contour>
    <contour>
      <point x="203" y="518"/>
      <point x="199" y="72"/>
      <point x="35" y="72" type="curve" smooth="yes"/>
      <point x="35" y="72"/>
      <point x="31" y="72"/>
      <point x="29" y="73" type="curve"/>
      <point x="7" y="-15" type="line"/>
      <point x="201" y="-15"/>
      <point x="203" y="431"/>
      <point x="368" y="431" type="curve" smooth="yes"/>
      <point x="370" y="431"/>
      <point x="374" y="431"/>
      <point x="375" y="431" type="curve"/>
      <point x="396" y="518" type="line"/>
    </contour>
  </outline>
</glyph>
<glyph name="Z" format="1">
  <advance width="420"/>
  <unicode hex="005A"/>
  <outline>
    <contour>
      <point x="365" y="510"/>
      <point x="338" y="508"/>
      <point x="297" y="508" type="curve" smooth="yes"/>
      <point x="85" y="508" type="line"/>
      <point x="18" y="397" type="line"/>
      <point x="34" y="386" type="line"/>
      <point x="72" y="433"/>
      <point x="100" y="438"/>
      <point x="200" y="438" type="curve" smooth="yes"/>
      <point x="302" y="438" type="line"/>
      <point x="14" y="10" type="line"/>
      <point x="32" y="-6" type="line"/>
      <point x="61" y="13"/>
      <point x="104" y="22"/>
      <point x="133" y="22" type="curve" smooth="yes"/>
      <point x="215" y="22"/>
      <point x="277" y="0"/>
      <point x="350" y="-8" type="curve"/>
      <point x="403" y="105" type="line"/>
      <point x="391" y="113" type="line"/>
      <point x="371" y="89"/>
      <point x="341" y="67"/>
      <point x="306" y="67" type="curve" smooth="yes"/>
      <point x="254" y="67"/>
      <point x="231" y="78"/>
      <point x="175" y="78" type="curve" smooth="yes"/>
      <point x="140" y="78"/>
      <point x="113" y="66"/>
      <point x="92" y="50" type="curve"/>
      <point x="89" y="53" type="line"/>
      <point x="400" y="513" type="line"/>
      <point x="387" y="528" type="line"/>
    </contour>
    <contour>
      <point x="245" y="538" type="move" name="top"/>
    </contour>
  </outline>
</glyph>
<glyph name="bracketleft" format="1">
  <advance width="210"/>
  <unicode hex="005B"/>
  <outline>
    <contour>
      <point x="195" y="-103" type="line"/>
      <point x="54" y="-103" type="line"/>
      <point x="54" y="542" type="line"/>
      <point x="195" y="542" type="line"/>
      <point x="195" y="518" type="line"/>
      <point x="123" y="518" type="line"/>
      <point x="123" y="-78" type="line"/>
      <point x="195" y="-78" type="line"/>
    </contour>
  </outline>
</glyph>
<glyph name="backslash" format="1">
  <advance width="419"/>
  <unicode hex="005C"/>
  <outline>
    <contour>
      <point x="29" y="505" type="line"/>
      <point x="356" y="-11" type="line"/>
      <point x="389" y="11" type="line"/>
      <point x="56" y="525" type="line"/>
    </contour>
  </outline>
</glyph>
<glyph name="asciicircum" format="1">
  <advance width="218"/>
  <unicode hex="005E"/>
  <outline>
    <contour>
      <point x="0" y="301" type="line"/>
      <point x="20" y="285" type="line"/>
      <point x="95" y="396" type="line"/>
      <point x="77" y="396" type="line"/>
      <point x="180" y="290" type="line"/>
      <point x="218" y="331" type="line"/>
      <point x="101" y="450" type="line"/>
    </contour>
  </outline>
</glyph>
<glyph name="b" format="1">
  <advance width="310"/>
  <unicode hex="0062"/>
  <outline>
    <contour>
      <point x="286" y="200"/>
      <point x="239" y="262"/>
      <point x="188" y="279" type="curve"/>
      <point x="130" y="235" type="line"/>
      <point x="185" y="232"/>
      <point x="232" y="167"/>
      <point x="232" y="111" type="curve" smooth="yes"/>
      <point x="232" y="75"/>
      <point x="208" y="25"/>
      <point x="161" y="25" type="curve" smooth="yes"/>
      <point x="123" y="25"/>
      <point x="105" y="60"/>
      <point x="105" y="92" type="curve" smooth="yes"/>
      <point x="105" y="516" type="line"/>
      <point x="43" y="494" type="line"/>
      <point x="43" y="104" type="line" smooth="yes"/>
      <point x="43" y="41"/>
      <point x="79" y="-7"/>
      <point x="144" y="-7" type="curve" smooth="yes"/>
      <point x="212" y="-7"/>
      <point x="286" y="75"/>
      <point x="286" y="144" type="curve" smooth="yes"/>
    </contour>
  </outline>
</glyph>
<glyph name="c" format="1">
  <advance width="290"/>
  <unicode hex="0063"/>
  <outline>
    <contour>
      <point x="77" y="282"/>
      <point x="21" y="210"/>
      <point x="21" y="125" type="curve" smooth="yes"/>
      <point x="21" y="45"/>
      <point x="73" y="-7"/>
      <point x="144" y="-7" type="curve" smooth="yes"/>
      <point x="206" y="-7"/>
      <point x="245" y="29"/>
      <point x="278" y="78" type="curve"/>
      <point x="266" y="89" type="line"/>
      <point x="243" y="60"/>
      <point x="210" y="30"/>
      <point x="164" y="30" type="curve"/>
      <point x="113" y="30"/>
      <point x="73" y="74"/>
      <point x="73" y="153" type="curve" smooth="yes"/>
      <point x="73" y="198"/>
      <point x="103" y="246"/>
      <point x="152" y="246" type="curve" smooth="yes"/>
      <point x="173" y="246"/>
      <point x="197" y="231"/>
      <point x="205" y="200" type="curve"/>
      <point x="260" y="228" type="line"/>
      <point x="243" y="268"/>
      <point x="211" y="282"/>
      <point x="180" y="282" type="curve" smooth="yes"/>
    </contour>
    <contour>
      <point x="152" y="300" type="move" name="top"/>
    </contour>
    <contour>
      <point x="144" y="0" type="move" name="bottom"/>
    </contour>
  </outline>
</glyph>
<glyph name="h" format="1">
  <advance width="323"/>
  <unicode hex="0068"/>
  <outline>
    <contour>
      <point x="46" y="494" type="line"/>
      <point x="46" y="-8" type="line"/>
      <point x="108" y="8" type="line"/>
      <point x="108" y="53"/>
      <point x="135" y="221"/>
      <point x="189" y="221" type="curve" smooth="yes"/>
      <point x="198" y="221"/>
      <point x="201" y="209"/>
      <point x="201" y="201" type="curve" smooth="yes"/>
      <point x="201" y="54" type="line" smooth="yes"/>
      <point x="201" y="17"/>
      <point x="217" y="-4"/>
      <point x="251" y="-4" type="curve" smooth="yes"/>
      <point x="279" y="-4"/>
      <point x="305" y="18"/>
      <point x="315" y="42" type="curve"/>
      <point x="307" y="52" type="line"/>
      <point x="301" y="43"/>
      <point x="290" y="32"/>
      <point x="278" y="32" type="curve" smooth="yes"/>
      <point x="267" y="32"/>
      <point x="262" y="43"/>
      <point x="262" y="51" type="curve" smooth="yes"/>
      <point x="262" y="205" type="line" smooth="yes"/>
      <point x="262" y="239"/>
      <point x="262" y="284"/>
      <point x="221" y="284" type="curve" smooth="yes"/>
      <point x="158" y="284"/>
      <point x="122" y="186"/>
      <point x="111" y="133" type="curve"/>
      <point x="108" y="133" type="line"/>
      <point x="108" y="516" type="line"/>
    </contour>
    <contour>
      <point x="162" y="150" type="move" name="center"/>
    </contour>
    <contour>
      <point x="83" y="504" type="move" name="top"/>
    </contour>
  </outline>
</glyph>
<glyph name="j" format="1">
  <advance width="159"/>
  <unicode hex="006A"/>
  <outline>
    <contour>
      <point x="117" y="469" type="line"/>
      <point x="98" y="337" type="line"/>
      <point x="66" y="328" type="line"/>
      <point x="45" y="444" type="line"/>
    </contour>
    <contour>
      <point x="114" y="30" type="line" smooth="yes"/>
      <point x="114" y="-72"/>
      <point x="28" y="-164"/>
      <point x="-56" y="-164" type="curve" smooth="yes"/>
      <point x="-73" y="-164"/>
      <point x="-89" y="-160"/>
      <point x="-105" y="-148" type="curve"/>
      <point x="-64" y="-97" type="line"/>
      <point x="-44" y="-114"/>
      <point x="-25" y="-118"/>
      <point x="-9" y="-118" type="curve"/>
      <point x="23" y="-118"/>
      <point x="51" y="-98"/>
      <point x="51" y="-11" type="curve" smooth="yes"/>
      <point x="51" y="256" type="line"/>
      <point x="114" y="279" type="line"/>
    </contour>
  </outline>
</glyph>
<glyph name="k" format="1">
  <advance width="318"/>
  <unicode hex="006B"/>
  <outline>
    <contour>
      <point x="46" y="494" type="line"/>
      <point x="46" y="-8" type="line"/>
      <point x="108" y="8" type="line"/>
      <point x="109" y="27"/>
      <point x="113" y="66"/>
      <point x="118" y="84" type="curve"/>
      <point x="123" y="88" type="line"/>
      <point x="149" y="63"/>
      <point x="183" y="-6"/>
      <point x="233" y="-6" type="curve" smooth="yes"/>
      <point x="264" y="-6"/>
      <point x="297" y="14"/>
      <point x="314" y="39" type="curve"/>
      <point x="303" y="50" type="line"/>
      <point x="294" y="40"/>
      <point x="283" y="33"/>
      <point x="268" y="33" type="curve" smooth="yes"/>
      <point x="239" y="33"/>
      <point x="200" y="91"/>
      <point x="181" y="116" type="curve"/>
      <point x="219" y="140"/>
      <point x="276" y="184"/>
      <point x="276" y="236" type="curve" smooth="yes"/>
      <point x="276" y="262"/>
      <point x="260" y="284"/>
      <point x="233" y="284" type="curve" smooth="yes"/>
      <point x="167" y="284"/>
      <point x="129" y="182"/>
      <point x="112" y="120" type="curve"/>
      <point x="108" y="120" type="line"/>
      <point x="108" y="516" type="line"/>
    </contour>
    <contour>
      <point x="206" y="226"/>
      <point x="211" y="214"/>
      <point x="211" y="203" type="curve" smooth="yes"/>
      <point x="211" y="164"/>
      <point x="163" y="124"/>
      <point x="119" y="101" type="curve"/>
      <point x="127" y="120"/>
      <point x="163" y="226"/>
      <point x="195" y="226" type="curve" smooth="yes"/>
    </contour>
    <contour>
      <point x="158" y="0" type="move" name="bottom"/>
    </contour>
  </outline>
</glyph>
<glyph name="n" format="1">
  <advance width="344"/>
  <unicode hex="006E"/>
  <outline>
    <contour>
      <point x="180" y="284"/>
      <point x="140" y="172"/>
      <point x="125" y="112" type="curve"/>
      <point x="123" y="112" type="line"/>
      <point x="123" y="231" type="line" smooth="yes"/>
      <point x="123" y="263"/>
      <point x="108" y="284"/>
      <point x="72" y="284" type="curve" smooth="yes"/>
      <point x="44" y="284"/>
      <point x="19" y="263"/>
      <point x="8" y="237" type="curve"/>
      <point x="18" y="226" type="line"/>
      <point x="24" y="236"/>
      <point x="34" y="248"/>
      <point x="46" y="248" type="curve" smooth="yes"/>
      <point x="56" y="248"/>
      <point x="62" y="238"/>
      <point x="62" y="228" type="curve" smooth="yes"/>
      <point x="62" y="-8" type="line"/>
      <point x="122" y="8" type="line"/>
      <point x="122" y="52"/>
      <point x="169" y="221"/>
      <point x="213" y="221" type="curve" smooth="yes"/>
      <point x="222" y="221"/>
      <point x="223" y="208"/>
      <point x="223" y="201" type="curve" smooth="yes"/>
      <point x="223" y="54" type="line" smooth="yes"/>
      <point x="223" y="17"/>
      <point x="240" y="-4"/>
      <point x="274" y="-4" type="curve" smooth="yes"/>
      <point x="300" y="-4"/>
      <point x="326" y="18"/>
      <point x="338" y="42" type="curve"/>
      <point x="328" y="52" type="line"/>
      <point x="322" y="43"/>
      <point x="312" y="32"/>
      <point x="299" y="32" type="curve" smooth="yes"/>
      <point x="289" y="32"/>
      <point x="285" y="43"/>
      <point x="285" y="51" type="curve" smooth="yes"/>
      <point x="285" y="206" type="line" smooth="yes"/>
      <point x="285" y="240"/>
      <point x="285" y="284"/>
      <point x="244" y="284" type="curve" smooth="yes"/>
    </contour>
    <contour>
      <point x="180" y="300" type="move" name="top"/>
    </contour>
    <contour>
      <point x="173" y="0" type="move" name="bottom"/>
    </contour>
    <contour>
      <point x="77" y="300" type="move" name="topleft"/>
    </contour>
  </outline>
</glyph>
<glyph name="p" format="1">
  <advance width="331"/>
  <unicode hex="0070"/>
  <outline>
    <contour>
      <point x="170" y="283"/>
      <point x="141" y="258"/>
      <point x="125" y="220" type="curve"/>
      <point x="122" y="220" type="line"/>
      <point x="122" y="263"/>
      <point x="106" y="283"/>
      <point x="71" y="283" type="curve" smooth="yes"/>
      <point x="46" y="283"/>
      <point x="20" y="263"/>
      <point x="8" y="237" type="curve"/>
      <point x="18" y="227" type="line"/>
      <point x="30" y="241"/>
      <point x="38" y="248"/>
      <point x="46" y="248" type="curve" smooth="yes"/>
      <point x="55" y="248"/>
      <point x="62" y="239"/>
      <point x="62" y="227" type="curve" smooth="yes"/>
      <point x="62" y="-179" type="line"/>
      <point x="122" y="-157" type="line"/>
      <point x="122" y="122" type="line" smooth="yes"/>
      <point x="122" y="197"/>
      <point x="142" y="241"/>
      <point x="178" y="241" type="curve" smooth="yes"/>
      <point x="221" y="241"/>
      <point x="252" y="199"/>
      <point x="252" y="139" type="curve" smooth="yes"/>
      <point x="252" y="74"/>
      <point x="229" y="29"/>
      <point x="196" y="29" type="curve" smooth="yes"/>
      <point x="177" y="29"/>
      <point x="162" y="35"/>
      <point x="150" y="47" type="curve"/>
      <point x="134" y="7" type="line"/>
      <point x="150" y="-2"/>
      <point x="165" y="-6"/>
      <point x="181" y="-6" type="curve" smooth="yes"/>
      <point x="258" y="-6"/>
      <point x="307" y="57"/>
      <point x="307" y="157" type="curve" smooth="yes"/>
      <point x="307" y="228"/>
      <point x="260" y="283"/>
      <point x="201" y="283" type="curve" smooth="yes"/>
    </contour>
  </outline>
</glyph>
<glyph name="q" format="1">
  <advance width="310"/>
  <unicode hex="0071"/>
  <outline>
    <contour>
      <point x="90" y="283"/>
      <point x="25" y="207"/>
      <point x="25" y="105" type="curve" smooth="yes"/>
      <point x="25" y="38"/>
      <point x="64" y="-7"/>
      <point x="123" y="-7" type="curve" smooth="yes"/>
      <point x="162" y="-7"/>
      <point x="195" y="19"/>
      <point x="209" y="64" type="curve"/>
      <point x="210" y="64" type="line"/>
      <point x="208" y="52"/>
      <point x="208" y="44"/>
      <point x="208" y="9" type="curve"/>
      <point x="208" y="-106" type="line" smooth="yes"/>
      <point x="208" y="-145"/>
      <point x="225" y="-164"/>
      <point x="259" y="-164" type="curve" smooth="yes"/>
      <point x="284" y="-164"/>
      <point x="310" y="-145"/>
      <point x="322" y="-118" type="curve"/>
      <point x="312" y="-108" type="line"/>
      <point x="307" y="-118"/>
      <point x="294" y="-127"/>
      <point x="284" y="-127" type="curve" smooth="yes"/>
      <point x="275" y="-127"/>
      <point x="268" y="-119"/>
      <point x="268" y="-109" type="curve" smooth="yes"/>
      <point x="268" y="198" type="line"/>
      <point x="208" y="176" type="line"/>
      <point x="208" y="150" type="line"/>
      <point x="208" y="81"/>
      <point x="181" y="34"/>
      <point x="142" y="34" type="curve" smooth="yes"/>
      <point x="107" y="34"/>
      <point x="81" y="75"/>
      <point x="81" y="133" type="curve" smooth="yes"/>
      <point x="81" y="198"/>
      <point x="118" y="249"/>
      <point x="163" y="249" type="curve" smooth="yes"/>
      <point x="182" y="249"/>
      <point x="201" y="235"/>
      <point x="218" y="209" type="curve"/>
      <point x="268" y="231" type="line"/>
      <point x="253" y="263"/>
      <point x="216" y="283"/>
      <point x="176" y="283" type="curve" smooth="yes"/>
    </contour>
  </outline>
</glyph>
<glyph name="s" format="1">
  <advance width="223"/>
  <unicode hex="0073"/>
  <outline>
    <contour>
      <point x="78" y="302"/>
      <point x="64" y="274"/>
      <point x="64" y="242" type="curve" smooth="yes"/>
      <point x="64" y="228"/>
      <point x="67" y="212"/>
      <point x="74" y="198" type="curve"/>
      <point x="31" y="137" type="line"/>
      <point x="50" y="124" type="line"/>
      <point x="88" y="180" type="line"/>
      <point x="107" y="157"/>
      <point x="168" y="119"/>
      <point x="168" y="82" type="curve" smooth="yes"/>
      <point x="168" y="53"/>
      <point x="144" y="32"/>
      <point x="116" y="32" type="curve" smooth="yes"/>
      <point x="91" y="32"/>
      <point x="67" y="59"/>
      <point x="56" y="76" type="curve"/>
      <point x="15" y="22" type="line"/>
      <point x="31" y="2"/>
      <point x="69" y="-7"/>
      <point x="93" y="-7" type="curve" smooth="yes"/>
      <point x="153" y="-7"/>
      <point x="199" y="40"/>
      <point x="199" y="99" type="curve" smooth="yes"/>
      <point x="199" y="172"/>
      <point x="149" y="186"/>
      <point x="122" y="219" type="curve"/>
      <point x="132" y="233"/>
      <point x="147" y="248"/>
      <point x="147" y="272" type="curve" smooth="yes"/>
      <point x="147" y="292"/>
      <point x="135" y="302"/>
      <point x="109" y="302" type="curve" smooth="yes"/>
    </contour>
    <contour>
      <point x="118" y="280"/>
      <point x="122" y="275"/>
      <point x="122" y="269" type="curve" smooth="yes"/>
      <point x="122" y="259"/>
      <point x="114" y="245"/>
      <point x="106" y="239" type="curve"/>
      <point x="102" y="248"/>
      <point x="99" y="254"/>
      <point x="99" y="265" type="curve" smooth="yes"/>
      <point x="99" y="272"/>
      <point x="100" y="280"/>
      <point x="110" y="280" type="curve" smooth="yes"/>
    </contour>
    <contour>
      <point x="113" y="300" type="move" name="top"/>
    </contour>
    <contour>
      <point x="112" y="0" type="move" name="bottom"/>
    </contour>
  </outline>
</glyph>
<glyph name="v" format="1">
  <advance width="289"/>
  <unicode hex="0076"/>
  <outline>
    <contour>
      <point x="191" y="243" type="line"/>
      <point x="217" y="232"/>
      <point x="233" y="211"/>
      <point x="233" y="181" type="curve" smooth="yes"/>
      <point x="233" y="170"/>
      <point x="227" y="154"/>
      <point x="223" y="145" type="curve" smooth="yes"/>
      <point x="180" y="57" type="line"/>
      <point x="106" y="224" type="line"/>
      <point x="99" y="241"/>
      <point x="85" y="279"/>
      <point x="62" y="279" type="curve" smooth="yes"/>
      <point x="32" y="279"/>
      <point x="3" y="254"/>
      <point x="-6" y="226" type="curve"/>
      <point x="2" y="218" type="line"/>
      <point x="6" y="222"/>
      <point x="12" y="229"/>
      <point x="20" y="229" type="curve" smooth="yes"/>
      <point x="32" y="229"/>
      <point x="42" y="213"/>
      <point x="46" y="205" type="curve" smooth="yes"/>
      <point x="141" y="-2" type="line" smooth="yes"/>
      <point x="143" y="-7"/>
      <point x="152" y="-10"/>
      <point x="159" y="-10" type="curve" smooth="yes"/>
      <point x="164" y="-10"/>
      <point x="172" y="-7"/>
      <point x="175" y="-3" type="curve"/>
      <point x="269" y="186" type="line" smooth="yes"/>
      <point x="276" y="199"/>
      <point x="280" y="219"/>
      <point x="280" y="234" type="curve" smooth="yes"/>
      <point x="280" y="263"/>
      <point x="263" y="288"/>
      <point x="233" y="300" type="curve"/>
    </contour>
  </outline>
</glyph>
<glyph name="w" format="1">
  <advance width="408"/>
  <unicode hex="0077"/>
  <outline>
    <contour>
      <point x="307" y="243" type="line"/>
      <point x="331" y="231"/>
      <point x="347" y="210"/>
      <point x="347" y="181" type="curve" smooth="yes"/>
      <point x="347" y="174"/>
      <point x="345" y="161"/>
      <point x="341" y="150" type="curve" smooth="yes"/>
      <point x="310" y="79" type="line"/>
      <point x="251" y="286" type="line"/>
      <point x="190" y="264" type="line"/>
      <point x="264" y="10" type="line" smooth="yes"/>
      <point x="267" y="0"/>
      <point x="275" y="-3"/>
      <point x="285" y="-3" type="curve" smooth="yes"/>
      <point x="295" y="-3"/>
      <point x="302" y="1"/>
      <point x="306" y="10" type="curve" smooth="yes"/>
      <point x="381" y="185" type="line" smooth="yes"/>
      <point x="388" y="199"/>
      <point x="392" y="219"/>
      <point x="392" y="234" type="curve" smooth="yes"/>
      <point x="392" y="263"/>
      <point x="378" y="287"/>
      <point x="349" y="301" type="curve"/>
    </contour>
    <contour>
      <point x="38" y="279"/>
      <point x="15" y="253"/>
      <point x="1" y="226" type="curve"/>
      <point x="10" y="217" type="line"/>
      <point x="16" y="223"/>
      <point x="24" y="229"/>
      <point x="33" y="229" type="curve" smooth="yes"/>
      <point x="46" y="229"/>
      <point x="53" y="222"/>
      <point x="59" y="203" type="curve" smooth="yes"/>
      <point x="122" y="10" type="line"/>
      <point x="125" y="0"/>
      <point x="131" y="-4"/>
      <point x="141" y="-4" type="curve" smooth="yes"/>
      <point x="151" y="-4"/>
      <point x="157" y="-1"/>
      <point x="162" y="11" type="curve" smooth="yes"/>
      <point x="243" y="221" type="line"/>
      <point x="227" y="246" type="line"/>
      <point x="164" y="80" type="line"/>
      <point x="119" y="225" type="line" smooth="yes"/>
      <point x="110" y="253"/>
      <point x="99" y="279"/>
      <point x="74" y="279" type="curve" smooth="yes"/>
    </contour>
    <contour>
      <point x="218" y="300" type="move" name="top"/>
    </contour>
  </outline>
</glyph>
<glyph name="x" format="1">
  <advance width="317"/>
  <unicode hex="0078"/>
  <outline>
    <contour>
      <point x="52" y="284"/>
      <point x="27" y="261"/>
      <point x="13" y="241" type="curve"/>
      <point x="21" y="230" type="line"/>
      <point x="28" y="235"/>
      <point x="35" y="238"/>
      <point x="42" y="238" type="curve" smooth="yes"/>
      <point x="102" y="238"/>
      <point x="169" y="-5"/>
      <point x="240" y="-5" type="curve" smooth="yes"/>
      <point x="261" y="-5"/>
      <point x="287" y="19"/>
      <point x="301" y="39" type="curve"/>
      <point x="293" y="49" type="line"/>
      <point x="285" y="45"/>
      <point x="279" y="42"/>
      <point x="272" y="42" type="curve" smooth="yes"/>
      <point x="211" y="42"/>
      <point x="146" y="284"/>
      <point x="76" y="284" type="curve" smooth="yes"/>
    </contour>
    <contour>
      <point x="129" y="290"/>
      <point x="168" y="59"/>
      <point x="74" y="59" type="curve" smooth="yes"/>
      <point x="62" y="59"/>
      <point x="47" y="68"/>
      <point x="39" y="75" type="curve"/>
      <point x="11" y="13" type="line"/>
      <point x="24" y="0"/>
      <point x="40" y="-5"/>
      <point x="56" y="-5" type="curve" smooth="yes"/>
      <point x="177" y="-5"/>
      <point x="136" y="225"/>
      <point x="233" y="225" type="curve" smooth="yes"/>
      <point x="246" y="225"/>
      <point x="259" y="218"/>
      <point x="269" y="211" type="curve"/>
      <point x="296" y="272" type="line"/>
      <point x="283" y="285"/>
      <point x="267" y="290"/>
      <point x="251" y="290" type="curve" smooth="yes"/>
    </contour>
  </outline>
</glyph>
<glyph name="z" format="1">
  <advance width="276"/>
  <unicode hex="007A"/>
  <outline>
    <contour>
      <point x="83" y="55" type="line"/>
      <point x="256" y="273" type="line"/>
      <point x="250" y="287" type="line"/>
      <point x="218" y="277"/>
      <point x="181" y="274"/>
      <point x="145" y="274" type="curve" smooth="yes"/>
      <point x="115" y="274"/>
      <point x="93" y="279"/>
      <point x="62" y="279" type="curve"/>
      <point x="15" y="213" type="line"/>
      <point x="15" y="213"/>
      <point x="41" y="218"/>
      <point x="53" y="218" type="curve" smooth="yes"/>
      <point x="81" y="218"/>
      <point x="99" y="215"/>
      <point x="123" y="215" type="curve" smooth="yes"/>
      <point x="149" y="215"/>
      <point x="167" y="218"/>
      <point x="180" y="224" type="curve"/>
      <point x="183" y="220" type="line"/>
      <point x="14" y="7" type="line"/>
      <point x="24" y="-6" type="line"/>
      <point x="51" y="3"/>
      <point x="79" y="9"/>
      <point x="107" y="9" type="curve" smooth="yes"/>
      <point x="134" y="9"/>
      <point x="169" y="-4"/>
      <point x="196" y="-4" type="curve" smooth="yes"/>
      <point x="205" y="-4"/>
      <point x="213" y="-2"/>
      <point x="220" y="1" type="curve"/>
      <point x="266" y="72" type="line"/>
      <point x="245" y="63"/>
      <point x="223" y="61"/>
      <point x="202" y="61" type="curve" smooth="yes"/>
      <point x="185" y="61"/>
      <point x="162" y="63"/>
      <point x="145" y="63" type="curve" smooth="yes"/>
      <point x="128" y="63"/>
      <point x="104" y="60"/>
      <point x="86" y="52" type="curve"/>
    </contour>
    <contour>
      <point x="162" y="300" type="move" name="top"/>
    </contour>
  </outline>
</glyph>
<glyph name="cent" format="1">
  <advance width="290"/>
  <unicode hex="00A2"/>
  <outline>
    <contour>
      <point x="121" y="488" type="line"/>
      <point x="136" y="376" type="line"/>
      <point x="166" y="389" type="line"/>
      <point x="179" y="508" type="line"/>
    </contour>
    <contour>
      <point x="138" y="118" type="line"/>
      <point x="126" y="3" type="line"/>
      <point x="184" y="24" type="line"/>
      <point x="171" y="122" type="line"/>
    </contour>
    <component base="c" yOffset="113"/>
  </outline>
</glyph>
<glyph name="sterling" format="1">
  <advance width="407"/>
  <unicode hex="00A3"/>
  <outline>
    <contour>
      <point x="20" y="241" type="line"/>
      <point x="2" y="203" type="line"/>
      <point x="248" y="203" type="line"/>
      <point x="267" y="241" type="line"/>
    </contour>
    <component base="L"/>
  </outline>
</glyph>
<glyph name="brokenbar" format="1">
  <advance width="174"/>
  <unicode hex="00A6"/>
  <outline>
    <contour>
      <point x="120" y="261" type="line"/>
      <point x="53" y="237" type="line"/>
      <point x="53" y="518" type="line"/>
      <point x="120" y="539" type="line"/>
    </contour>
    <contour>
      <point x="120" y="-76" type="line"/>
      <point x="53" y="-100" type="line"/>
      <point x="53" y="178" type="line"/>
      <point x="120" y="202" type="line"/>
    </contour>
  </outline>
</glyph>
<glyph name="dieresis" format="1">
  <advance width="215"/>
  <unicode hex="00A8"/>
  <outline>
    <contour>
      <point x="148" y="440"/>
      <point x="128" y="420"/>
      <point x="128" y="397" type="curve" smooth="yes"/>
      <point x="128" y="373"/>
      <point x="148" y="354"/>
      <point x="171" y="354" type="curve" smooth="yes"/>
      <point x="195" y="354"/>
      <point x="214" y="373"/>
      <point x="214" y="397" type="curve" smooth="yes"/>
      <point x="214" y="420"/>
      <point x="195" y="440"/>
      <point x="171" y="440" type="curve" smooth="yes"/>
    </contour>
    <contour>
      <point x="20" y="440"/>
      <point x="1" y="420"/>
      <point x="1" y="397" type="curve" smooth="yes"/>
      <point x="1" y="373"/>
      <point x="20" y="354"/>
      <point x="43" y="354" type="curve" smooth="yes"/>
      <point x="67" y="354"/>
      <point x="86" y="373"/>
      <point x="86" y="397" type="curve" smooth="yes"/>
      <point x="86" y="420"/>
      <point x="67" y="440"/>
      <point x="43" y="440" type="curve" smooth="yes"/>
    </contour>
    <contour>
      <point x="108" y="300" type="move" name="_top"/>
    </contour>
  </outline>
</glyph>
<glyph name="guillemetleft" format="1">
  <advance width="311"/>
  <unicode hex="00AB"/>
  <outline>
    <contour>
      <point x="162" y="59" type="line"/>
      <point x="147" y="41" type="line"/>
      <point x="21" y="137" type="line"/>
      <point x="147" y="233" type="line"/>
      <point x="162" y="220" type="line"/>
      <point x="104" y="137" type="line"/>
    </contour>
    <contour>
      <point x="274" y="59" type="line"/>
      <point x="259" y="41" type="line"/>
      <point x="133" y="137" type="line"/>
      <point x="259" y="233" type="line"/>
      <point x="274" y="220" type="line"/>
      <point x="215" y="137" type="line"/>
    </contour>
  </outline>
</glyph>
<glyph name="softhyphen" format="1">
  <advance width="342"/>
  <unicode hex="00AD"/>
  <outline>
    <contour>
      <point x="311" y="303" type="line"/>
      <point x="289" y="241" type="line"/>
      <point x="43" y="241" type="line"/>
      <point x="66" y="303" type="line"/>
    </contour>
  </outline>
</glyph>
<glyph name="registered" format="1">
  <advance width="421"/>
  <unicode hex="00AE"/>
  <outline>
    <contour>
      <point x="119" y="418"/>
      <point x="44" y="343"/>
      <point x="44" y="251" type="curve" smooth="yes"/>
      <point x="44" y="160"/>
      <point x="119" y="85"/>
      <point x="211" y="85" type="curve" smooth="yes"/>
      <point x="302" y="85"/>
      <point x="377" y="160"/>
      <point x="377" y="251" type="curve" smooth="yes"/>
      <point x="377" y="343"/>
      <point x="302" y="418"/>
      <point x="211" y="418" type="curve" smooth="yes"/>
    </contour>
    <contour>
      <point x="142" y="312" type="line"/>
      <point x="142" y="149" type="line"/>
      <point x="173" y="160" type="line"/>
      <point x="173" y="323" type="line"/>
    </contour>
    <contour>
      <point x="293" y="401"/>
      <point x="361" y="334"/>
      <point x="361" y="251" type="curve" smooth="yes"/>
      <point x="361" y="169"/>
      <point x="293" y="102"/>
      <point x="211" y="102" type="curve" smooth="yes"/>
      <point x="128" y="102"/>
      <point x="61" y="169"/>
      <point x="61" y="251" type="curve" smooth="yes"/>
      <point x="61" y="334"/>
      <point x="128" y="401"/>
      <point x="211" y="401" type="curve" smooth="yes"/>
    </contour>
    <contour>
      <point x="179" y="364"/>
      <point x="149" y="340"/>
      <point x="125" y="318" type="curve"/>
      <point x="131" y="312" type="line"/>
      <point x="154" y="329"/>
      <point x="180" y="346"/>
      <point x="213" y="346" type="curve" smooth="yes"/>
      <point x="242" y="346"/>
      <point x="259" y="326"/>
      <point x="259" y="299" type="curve" smooth="yes"/>
      <point x="259" y="256"/>
      <point x="218" y="230"/>
      <point x="180" y="224" type="curve"/>
      <point x="178" y="218" type="line"/>
      <point x="212" y="172" type="line" smooth="yes"/>
      <point x="225" y="156"/>
      <point x="232" y="150"/>
      <point x="246" y="150" type="curve" smooth="yes"/>
      <point x="266" y="150"/>
      <point x="285" y="170"/>
      <point x="295" y="185" type="curve"/>
      <point x="290" y="191" type="line"/>
      <point x="284" y="184"/>
      <point x="273" y="174"/>
      <point x="263" y="174" type="curve" smooth="yes"/>
      <point x="256" y="174"/>
      <point x="251" y="176"/>
      <point x="247" y="182" type="curve" smooth="yes"/>
      <point x="213" y="222" type="line"/>
      <point x="251" y="237"/>
      <point x="292" y="259"/>
      <point x="292" y="303" type="curve" smooth="yes"/>
      <point x="292" y="338"/>
      <point x="267" y="364"/>
      <point x="230" y="364" type="curve" smooth="yes"/>
    </contour>
  </outline>
</glyph>
<glyph name="plusminus" format="1">
  <advance width="344"/>
  <unicode hex="00B1"/>
  <outline>
    <contour>
      <point x="306" y="301" type="line"/>
      <point x="284" y="243" type="line"/>
      <point x="201" y="243" type="line"/>
      <point x="201" y="160" type="line"/>
      <point x="143" y="137" type="line"/>
      <point x="143" y="243" type="line"/>
      <point x="37" y="243" type="line"/>
      <point x="60" y="301" type="line"/>
      <point x="143" y="301" type="line"/>
      <point x="143" y="383" type="line"/>
      <point x="201" y="406" type="line"/>
      <point x="201" y="301" type="line"/>
    </contour>
    <contour>
      <point x="306" y="102" type="line"/>
      <point x="284" y="44" type="line"/>
      <point x="37" y="44" type="line"/>
      <point x="60" y="102" type="line"/>
    </contour>
  </outline>
</glyph>
<glyph name="twosuperior" format="1">
  <advance width="232"/>
  <unicode hex="00B2"/>
  <outline>
    <contour>
      <point x="71" y="510"/>
      <point x="32" y="481"/>
      <point x="12" y="451" type="curve"/>
      <point x="23" y="442" type="line"/>
      <point x="40" y="463"/>
      <point x="66" y="478"/>
      <point x="91" y="478" type="curve" smooth="yes"/>
      <point x="124" y="478"/>
      <point x="146" y="454"/>
      <point x="146" y="419" type="curve" smooth="yes"/>
      <point x="146" y="352"/>
      <point x="63" y="290"/>
      <point x="11" y="241" type="curve"/>
      <point x="23" y="230" type="line"/>
      <point x="34" y="239"/>
      <point x="46" y="244"/>
      <point x="65" y="244" type="curve" smooth="yes"/>
      <point x="109" y="244"/>
      <point x="140" y="234"/>
      <point x="189" y="230" type="curve"/>
      <point x="222" y="299" type="line"/>
      <point x="212" y="306" type="line"/>
      <point x="203" y="292"/>
      <point x="190" y="280"/>
      <point x="170" y="280" type="curve" smooth="yes"/>
      <point x="150" y="280"/>
      <point x="137" y="287"/>
      <point x="116" y="287" type="curve" smooth="yes"/>
      <point x="106" y="287"/>
      <point x="95" y="284"/>
      <point x="87" y="280" type="curve"/>
      <point x="84" y="282" type="line"/>
      <point x="133" y="315"/>
      <point x="202" y="358"/>
      <point x="202" y="428" type="curve" smooth="yes"/>
      <point x="202" y="479"/>
      <point x="165" y="510"/>
      <point x="110" y="510" type="curve" smooth="yes"/>
    </contour>
  </outline>
</glyph>
<glyph name="paragraph" format="1">
  <advance width="370"/>
  <unicode hex="00B6"/>
  <outline>
    <contour>
      <point x="170" y="519"/>
      <point x="36" y="466"/>
      <point x="36" y="350" type="curve" smooth="yes"/>
      <point x="36" y="258"/>
      <point x="120" y="208"/>
      <point x="215" y="189" type="curve"/>
      <point x="215" y="-10" type="line"/>
      <point x="282" y="16" type="line"/>
      <point x="282" y="519" type="line"/>
    </contour>
    <contour>
      <point x="215" y="220" type="line"/>
      <point x="152" y="242"/>
      <point x="106" y="285"/>
      <point x="106" y="350" type="curve" smooth="yes"/>
      <point x="106" y="414"/>
      <point x="152" y="457"/>
      <point x="215" y="479" type="curve"/>
    </contour>
  </outline>
</glyph>
<glyph name="periodcentered" format="1">
  <advance width="154"/>
  <unicode hex="00B7"/>
  <outline>
    <contour>
      <point x="121" y="239"/>
      <point x="100" y="220"/>
      <point x="77" y="220" type="curve" smooth="yes"/>
      <point x="53" y="220"/>
      <point x="33" y="239"/>
      <point x="33" y="263" type="curve" smooth="yes"/>
      <point x="33" y="287"/>
      <point x="53" y="307"/>
      <point x="77" y="307" type="curve" smooth="yes"/>
      <point x="100" y="307"/>
      <point x="121" y="287"/>
      <point x="121" y="263" type="curve" smooth="yes"/>
    </contour>
  </outline>
</glyph>
<glyph name="cedilla" format="1">
  <advance width="110"/>
  <unicode hex="00B8"/>
  <outline>
    <contour>
      <point x="31" y="7" type="line"/>
      <point x="-1" y="-48" type="line"/>
      <point x="11" y="-58" type="line"/>
      <point x="18" y="-53"/>
      <point x="26" y="-51"/>
      <point x="33" y="-51" type="curve" smooth="yes"/>
      <point x="51" y="-51"/>
      <point x="65" y="-65"/>
      <point x="65" y="-84" type="curve" smooth="yes"/>
      <point x="65" y="-103"/>
      <point x="52" y="-116"/>
      <point x="36" y="-116" type="curve" smooth="yes"/>
      <point x="26" y="-116"/>
      <point x="17" y="-111"/>
      <point x="9" y="-100" type="curve"/>
      <point x="-4" y="-109" type="line"/>
      <point x="8" y="-132"/>
      <point x="30" y="-144"/>
      <point x="52" y="-144" type="curve" smooth="yes"/>
      <point x="84" y="-144"/>
      <point x="116" y="-121"/>
      <point x="116" y="-84" type="curve" smooth="yes"/>
      <point x="116" y="-46"/>
      <point x="90" y="-26"/>
      <point x="60" y="-26" type="curve" smooth="yes"/>
      <point x="48" y="-26"/>
      <point x="36" y="-30"/>
      <point x="24" y="-36" type="curve"/>
      <point x="49" y="7" type="line"/>
    </contour>
    <contour>
      <point x="56" y="0" type="move" name="_bottom"/>
    </contour>
  </outline>
</glyph>
<glyph name="onesuperior" format="1">
  <advance width="164"/>
  <unicode hex="00B9"/>
  <outline>
    <contour>
      <point x="100" y="241" type="line"/>
      <point x="49" y="225" type="line"/>
      <point x="49" y="462" type="line"/>
      <point x="15" y="444" type="line"/>
      <point x="6" y="461" type="line"/>
      <point x="100" y="511" type="line"/>
    </contour>
  </outline>
</glyph>
<glyph name="guillemetright" format="1">
  <advance width="311"/>
  <unicode hex="00BB"/>
  <outline>
    <contour>
      <point x="149" y="219" type="line"/>
      <point x="208" y="137" type="line"/>
      <point x="149" y="58" type="line"/>
      <point x="164" y="41" type="line"/>
      <point x="290" y="137" type="line"/>
      <point x="164" y="233" type="line"/>
    </contour>
    <contour>
      <point x="38" y="219" type="line"/>
      <point x="96" y="137" type="line"/>
      <point x="38" y="58" type="line"/>
      <point x="52" y="41" type="line"/>
      <point x="179" y="137" type="line"/>
      <point x="52" y="233" type="line"/>
    </contour>
  </outline>
</glyph>
<glyph name="AE" format="1">
  <advance width="652"/>
  <unicode hex="00C6"/>
  <outline>
    <contour>
      <point x="310" y="149" type="line"/>
      <point x="284" y="72"/>
      <point x="243" y="-8"/>
      <point x="160" y="-8" type="curve" smooth="yes"/>
      <point x="79" y="-8"/>
      <point x="29" y="68"/>
      <point x="29" y="162" type="curve" smooth="yes"/>
      <point x="29" y="331"/>
      <point x="162" y="509"/>
      <point x="453" y="506" type="curve"/>
      <point x="453" y="487" type="line"/>
      <point x="191" y="473"/>
      <point x="100" y="318"/>
      <point x="100" y="181" type="curve" smooth="yes"/>
      <point x="100" y="121"/>
      <point x="118" y="37"/>
      <point x="181" y="37" type="curve" smooth="yes"/>
      <point x="233" y="37"/>
      <point x="267" y="89"/>
      <point x="290" y="156" type="curve"/>
    </contour>
    <contour>
      <point x="650" y="131" type="line"/>
      <point x="606" y="57"/>
      <point x="524" y="-8"/>
      <point x="427" y="-8" type="curve" smooth="yes"/>
      <point x="345" y="-8"/>
      <point x="285" y="43"/>
      <point x="285" y="122" type="curve" smooth="yes"/>
      <point x="285" y="198"/>
      <point x="353" y="256"/>
      <point x="419" y="286" type="curve"/>
      <point x="371" y="299"/>
      <point x="342" y="334"/>
      <point x="342" y="379" type="curve" smooth="yes"/>
      <point x="342" y="476"/>
      <point x="451" y="520"/>
      <point x="525" y="520" type="curve" smooth="yes"/>
      <point x="563" y="520"/>
      <point x="593" y="505"/>
      <point x="618" y="476" type="curve"/>
      <point x="573" y="441" type="line"/>
      <point x="552" y="464"/>
      <point x="524" y="487"/>
      <point x="485" y="487" type="curve" smooth="yes"/>
      <point x="437" y="487"/>
      <point x="387" y="454"/>
      <point x="387" y="407" type="curve" smooth="yes"/>
      <point x="387" y="359"/>
      <point x="439" y="321"/>
      <point x="487" y="321" type="curve" smooth="yes"/>
      <point x="500" y="321"/>
      <point x="512" y="323"/>
      <point x="521" y="327" type="curve"/>
      <point x="527" y="307" type="line"/>
      <point x="455" y="284"/>
      <point x="363" y="233"/>
      <point x="363" y="146" type="curve" smooth="yes"/>
      <point x="363" y="92"/>
      <point x="398" y="48"/>
      <point x="460" y="48" type="curve" smooth="yes"/>
      <point x="537" y="48"/>
      <point x="607" y="99"/>
      <point x="634" y="145" type="curve"/>
    </contour>
    <contour>
      <point x="363" y="538" type="move" name="top"/>
    </contour>
  </outline>
</glyph>
<glyph name="multiply" format="1">
  <advance width="319"/>
  <unicode hex="00D7"/>
  <outline>
    <contour>
      <point x="275" y="376" type="line"/>
      <point x="190" y="272" type="line"/>
      <point x="275" y="168" type="line"/>
      <point x="218" y="143" type="line"/>
      <point x="160" y="229" type="line"/>
      <point x="101" y="143" type="line"/>
      <point x="44" y="168" type="line"/>
      <point x="129" y="272" type="line"/>
      <point x="44" y="376" type="line"/>
      <point x="101" y="401" type="line"/>
      <point x="160" y="316" type="line"/>
      <point x="218" y="401" type="line"/>
    </contour>
  </outline>
</glyph>
<glyph name="thorn" format="1">
  <advance width="315"/>
  <unicode hex="00FE"/>
  <outline>
    <contour>
      <point x="150" y="283"/>
      <point x="119" y="254"/>
      <point x="109" y="220" type="curve"/>
      <point x="106" y="220" type="line"/>
      <point x="106" y="449" type="line"/>
      <point x="106" y="483"/>
      <point x="92" y="505"/>
      <point x="55" y="505" type="curve" smooth="yes"/>
      <point x="29" y="505"/>
      <point x="2" y="483"/>
      <point x="-9" y="458" type="curve"/>
      <point x="1" y="448" type="line"/>
      <point x="7" y="457"/>
      <point x="17" y="468"/>
      <point x="30" y="468" type="curve" smooth="yes"/>
      <point x="40" y="468"/>
      <point x="45" y="459"/>
      <point x="45" y="449" type="curve" smooth="yes"/>
      <point x="45" y="-179" type="line"/>
      <point x="106" y="-157" type="line"/>
      <point x="106" y="122" type="line" smooth="yes"/>
      <point x="106" y="157"/>
      <point x="109" y="241"/>
      <point x="162" y="241" type="curve"/>
      <point x="202" y="241"/>
      <point x="236" y="196"/>
      <point x="236" y="139" type="curve" smooth="yes"/>
      <point x="236" y="75"/>
      <point x="214" y="29"/>
      <point x="182" y="29" type="curve" smooth="yes"/>
      <point x="166" y="29"/>
      <point x="152" y="33"/>
      <point x="141" y="45" type="curve"/>
      <point x="114" y="12" type="line"/>
      <point x="131" y="-1"/>
      <point x="148" y="-6"/>
      <point x="165" y="-6" type="curve" smooth="yes"/>
      <point x="244" y="-6"/>
      <point x="291" y="59"/>
      <point x="291" y="157" type="curve" smooth="yes"/>
      <point x="291" y="227"/>
      <point x="245" y="283"/>
      <point x="185" y="283" type="curve"/>
    </contour>
  </outline>
</glyph>
<glyph name="Lslash" format="1">
  <advance width="407"/>
  <unicode hex="0141"/>
  <outline>
    <contour>
      <point x="7" y="199" type="line"/>
      <point x="7" y="158" type="line"/>
      <point x="198" y="232" type="line"/>
      <point x="198" y="272" type="line"/>
    </contour>
    <component base="L"/>
  </outline>
</glyph>
<glyph name="OE" format="1">
  <advance width="714"/>
  <unicode hex="0152"/>
  <outline>
    <contour>
      <point x="105" y="525"/>
      <point x="32" y="387"/>
      <point x="32" y="255" type="curve" smooth="yes"/>
      <point x="32" y="124"/>
      <point x="122" y="-13"/>
      <point x="267" y="-13" type="curve" smooth="yes"/>
      <point x="317" y="-13"/>
      <point x="358" y="0"/>
      <point x="391" y="23" type="curve"/>
      <point x="415" y="3"/>
      <point x="449" y="-8"/>
      <point x="487" y="-8" type="curve" smooth="yes"/>
      <point x="584" y="-8"/>
      <point x="666" y="57"/>
      <point x="710" y="131" type="curve"/>
      <point x="694" y="145" type="line"/>
      <point x="666" y="99"/>
      <point x="596" y="48"/>
      <point x="520" y="48" type="curve" smooth="yes"/>
      <point x="458" y="48"/>
      <point x="424" y="92"/>
      <point x="424" y="147" type="curve" smooth="yes"/>
      <point x="424" y="234"/>
      <point x="520" y="286"/>
      <point x="587" y="307" type="curve"/>
      <point x="581" y="327" type="line"/>
      <point x="571" y="323"/>
      <point x="559" y="321"/>
      <point x="547" y="321" type="curve" smooth="yes"/>
      <point x="498" y="321"/>
      <point x="447" y="359"/>
      <point x="447" y="407" type="curve" smooth="yes"/>
      <point x="447" y="454"/>
      <point x="497" y="487"/>
      <point x="545" y="487" type="curve" smooth="yes"/>
      <point x="584" y="487"/>
      <point x="611" y="464"/>
      <point x="633" y="441" type="curve"/>
      <point x="678" y="476" type="line"/>
      <point x="653" y="505"/>
      <point x="622" y="520"/>
      <point x="585" y="520" type="curve" smooth="yes"/>
      <point x="533" y="520"/>
      <point x="463" y="499"/>
      <point x="427" y="451" type="curve"/>
      <point x="389" y="496"/>
      <point x="335" y="525"/>
      <point x="267" y="525" type="curve" smooth="yes"/>
    </contour>
    <contour>
      <point x="327" y="485"/>
      <point x="381" y="420"/>
      <point x="407" y="347" type="curve"/>
      <point x="418" y="316"/>
      <point x="445" y="293"/>
      <point x="481" y="285" type="curve"/>
      <point x="414" y="255"/>
      <point x="345" y="197"/>
      <point x="345" y="122" type="curve" smooth="yes"/>
      <point x="345" y="95"/>
      <point x="352" y="71"/>
      <point x="364" y="51" type="curve"/>
      <point x="346" y="39"/>
      <point x="324" y="31"/>
      <point x="297" y="31" type="curve" smooth="yes"/>
      <point x="152" y="31"/>
      <point x="99" y="194"/>
      <point x="99" y="307" type="curve"/>
      <point x="99" y="382"/>
      <point x="134" y="485"/>
      <point x="234" y="485" type="curve" smooth="yes"/>
    </contour>
    <contour>
      <point x="362" y="538" type="move" name="top"/>
    </contour>
  </outline>
</glyph>
<glyph name="florin" format="1">
  <advance width="219"/>
  <unicode hex="0192"/>
  <outline>
    <contour>
      <point x="87" y="531"/>
      <point x="56" y="444"/>
      <point x="56" y="365" type="curve" smooth="yes"/>
      <point x="56" y="279" type="line"/>
      <point x="37" y="279" type="line"/>
      <point x="21" y="243" type="line"/>
      <point x="56" y="243" type="line"/>
      <point x="56" y="-13" type="line" smooth="yes"/>
      <point x="56" y="-45"/>
      <point x="50" y="-88"/>
      <point x="9" y="-88" type="curve" smooth="yes"/>
      <point x="-16" y="-88"/>
      <point x="-32" y="-69"/>
      <point x="-41" y="-48" type="curve"/>
      <point x="-82" y="-78" type="line"/>
      <point x="-65" y="-99"/>
      <point x="-32" y="-113"/>
      <point x="-4" y="-113" type="curve" smooth="yes"/>
      <point x="89" y="-113"/>
      <point x="120" y="-27"/>
      <point x="120" y="52" type="curve" smooth="yes"/>
      <point x="120" y="243" type="line"/>
      <point x="198" y="243" type="line"/>
      <point x="212" y="279" type="line"/>
      <point x="120" y="279" type="line"/>
      <point x="120" y="428" type="line" smooth="yes"/>
      <point x="120" y="462"/>
      <point x="125" y="505"/>
      <point x="167" y="505" type="curve" smooth="yes"/>
      <point x="192" y="505"/>
      <point x="208" y="487"/>
      <point x="217" y="467" type="curve"/>
      <point x="258" y="495" type="line"/>
      <point x="241" y="518"/>
      <point x="206" y="531"/>
      <point x="180" y="531" type="curve" smooth="yes"/>
    </contour>
  </outline>
</glyph>
<glyph name="dotlessj" format="1">
  <advance width="159"/>
  <unicode hex="0237"/>
  <outline>
    <contour>
      <point x="114" y="30" type="line" smooth="yes"/>
      <point x="114" y="-72"/>
      <point x="28" y="-164"/>
      <point x="-57" y="-164" type="curve" smooth="yes"/>
      <point x="-73" y="-164"/>
      <point x="-89" y="-160"/>
      <point x="-105" y="-148" type="curve"/>
      <point x="-64" y="-97" type="line"/>
      <point x="-44" y="-114"/>
      <point x="-26" y="-118"/>
      <point x="-9" y="-118" type="curve"/>
      <point x="23" y="-118"/>
      <point x="51" y="-98"/>
      <point x="51" y="-11" type="curve" smooth="yes"/>
      <point x="51" y="256" type="line"/>
      <point x="114" y="279" type="line"/>
    </contour>
    <contour>
      <point x="85" y="300" type="move" name="top"/>
    </contour>
  </outline>
</glyph>
<glyph name="circumflex" format="1">
  <advance width="203"/>
  <unicode hex="02C6"/>
  <outline>
    <contour>
      <point x="5" y="349" type="line"/>
      <point x="26" y="333" type="line"/>
      <point x="81" y="396" type="line"/>
      <point x="161" y="324" type="line"/>
      <point x="199" y="365" type="line"/>
      <point x="99" y="456" type="line"/>
    </contour>
    <contour>
      <point x="102" y="300" type="move" name="_top"/>
    </contour>
  </outline>
</glyph>
<glyph name="breve" format="1">
  <advance width="153"/>
  <unicode hex="02D8"/>
  <outline>
    <contour>
      <point x="40" y="448" type="line"/>
      <point x="33" y="438"/>
      <point x="30" y="425"/>
      <point x="30" y="412" type="curve" smooth="yes"/>
      <point x="30" y="386"/>
      <point x="45" y="346"/>
      <point x="74" y="346" type="curve" smooth="yes"/>
      <point x="93" y="346"/>
      <point x="107" y="361"/>
      <point x="107" y="380" type="curve" smooth="yes"/>
      <point x="107" y="399"/>
      <point x="97" y="418"/>
      <point x="84" y="428" type="curve"/>
      <point x="133" y="459" type="line"/>
      <point x="148" y="443"/>
      <point x="154" y="424"/>
      <point x="154" y="404" type="curve" smooth="yes"/>
      <point x="154" y="355"/>
      <point x="117" y="323"/>
      <point x="68" y="323" type="curve" smooth="yes"/>
      <point x="28" y="323"/>
      <point x="-2" y="349"/>
      <point x="-2" y="389" type="curve" smooth="yes"/>
      <point x="-2" y="413"/>
      <point x="10" y="442"/>
      <point x="28" y="457" type="curve"/>
    </contour>
    <contour>
      <point x="77" y="300" type="move" name="_top"/>
    </contour>
  </outline>
</glyph>
<glyph name="dotaccent" format="1">
  <advance width="88"/>
  <unicode hex="02D9"/>
  <outline>
    <contour>
      <point x="20" y="441"/>
      <point x="1" y="421"/>
      <point x="1" y="397" type="curve" smooth="yes"/>
      <point x="1" y="374"/>
      <point x="20" y="355"/>
      <point x="44" y="355" type="curve" smooth="yes"/>
      <point x="67" y="355"/>
      <point x="87" y="374"/>
      <point x="87" y="397" type="curve" smooth="yes"/>
      <point x="87" y="421"/>
      <point x="67" y="441"/>
      <point x="44" y="441" type="curve" smooth="yes"/>
    </contour>
    <contour>
      <point x="44" y="300" type="move" name="_top"/>
    </contour>
  </outline>
</glyph>
<glyph name="ring" format="1">
  <advance width="144"/>
  <unicode hex="02DA"/>
  <outline>
    <contour>
      <point x="33" y="484"/>
      <point x="0" y="452"/>
      <point x="0" y="413" type="curve" smooth="yes"/>
      <point x="0" y="374"/>
      <point x="32" y="342"/>
      <point x="71" y="342" type="curve" smooth="yes"/>
      <point x="111" y="342"/>
      <point x="144" y="375"/>
      <point x="144" y="413" type="curve" smooth="yes"/>
      <point x="144" y="452"/>
      <point x="112" y="484"/>
      <point x="71" y="484" type="curve" smooth="yes"/>
    </contour>
    <contour>
      <point x="78" y="459"/>
      <point x="103" y="432"/>
      <point x="103" y="397" type="curve" smooth="yes"/>
      <point x="103" y="383"/>
      <point x="97" y="367"/>
      <point x="83" y="367" type="curve" smooth="yes"/>
      <point x="64" y="367"/>
      <point x="39" y="396"/>
      <point x="39" y="430" type="curve" smooth="yes"/>
      <point x="39" y="447"/>
      <point x="47" y="459"/>
      <point x="59" y="459" type="curve" smooth="yes"/>
    </contour>
    <contour>
      <point x="72" y="300" type="move" name="_top"/>
    </contour>
  </outline>
</glyph>
<glyph name="ogonek" format="1">
  <advance width="125"/>
  <unicode hex="02DB"/>
  <outline>
    <contour>
      <point x="37" y="-9"/>
      <point x="0" y="-44"/>
      <point x="0" y="-89" type="curve" smooth="yes"/>
      <point x="0" y="-127"/>
      <point x="32" y="-143"/>
      <point x="57" y="-143" type="curve" smooth="yes"/>
      <point x="86" y="-143"/>
      <point x="110" y="-120"/>
      <point x="126" y="-93" type="curve"/>
      <point x="113" y="-82" type="line"/>
      <point x="101" y="-97"/>
      <point x="90" y="-102"/>
      <point x="78" y="-102" type="curve" smooth="yes"/>
      <point x="55" y="-102"/>
      <point x="44" y="-87"/>
      <point x="44" y="-66" type="curve" smooth="yes"/>
      <point x="44" y="-45"/>
      <point x="57" y="-18"/>
      <point x="78" y="1" type="curve"/>
      <point x="69" y="11" type="line"/>
    </contour>
    <contour>
      <point x="126" y="4" type="move" name="_ogonek"/>
    </contour>
  </outline>
</glyph>
<glyph name="hungarumlaut" format="1">
  <advance width="233"/>
  <unicode hex="02DD"/>
  <outline>
    <contour>
      <point x="11" y="326" type="line"/>
      <point x="0" y="341" type="line"/>
      <point x="85" y="443" type="line"/>
      <point x="129" y="389" type="line"/>
    </contour>
    <contour>
      <point x="116" y="326" type="line"/>
      <point x="105" y="341" type="line"/>
      <point x="190" y="443" type="line"/>
      <point x="234" y="389" type="line"/>
    </contour>
    <contour>
      <point x="117" y="300" type="move" name="_top"/>
    </contour>
  </outline>
</glyph>
<glyph name="uni0312" format="1">
  <advance width="99"/>
  <unicode hex="0312"/>
  <outline>
    <contour>
      <point x="36" y="440"/>
      <point x="9" y="411"/>
      <point x="9" y="374" type="curve" smooth="yes"/>
      <point x="9" y="353"/>
      <point x="26" y="334"/>
      <point x="50" y="334" type="curve" smooth="yes"/>
      <point x="71" y="334"/>
      <point x="90" y="353"/>
      <point x="90" y="374" type="curve" smooth="yes"/>
      <point x="90" y="393"/>
      <point x="78" y="409"/>
      <point x="59" y="414" type="curve"/>
      <point x="61" y="426"/>
      <point x="70" y="439"/>
      <point x="79" y="447" type="curve"/>
      <point x="66" y="459" type="line"/>
    </contour>
    <contour>
      <point x="50" y="300" type="move" name="_top"/>
    </contour>
  </outline>
</glyph>
<glyph name="uni0315" format="1">
  <advance width="98"/>
  <unicode hex="0315"/>
  <outline>
    <contour>
      <point x="91" y="375"/>
      <point x="65" y="347"/>
      <point x="34" y="329" type="curve"/>
      <point x="22" y="339" type="line"/>
      <point x="30" y="347"/>
      <point x="39" y="361"/>
      <point x="41" y="372" type="curve"/>
      <point x="23" y="377"/>
      <point x="10" y="393"/>
      <point x="10" y="411" type="curve" smooth="yes"/>
      <point x="10" y="434"/>
      <point x="27" y="453"/>
      <point x="51" y="453" type="curve" smooth="yes"/>
      <point x="72" y="453"/>
      <point x="91" y="434"/>
      <point x="91" y="411" type="curve" smooth="yes"/>
    </contour>
    <contour>
      <point x="43" y="300" type="move" name="_topleft"/>
    </contour>
    <contour>
      <point x="51" y="300" type="move" name="_topright"/>
    </contour>
    <contour>
      <point x="51" y="300" type="move" name="_top"/>
    </contour>
  </outline>
</glyph>
<glyph name="uni0326" format="1">
  <advance width="111"/>
  <unicode hex="0326"/>
  <outline>
    <contour>
      <point x="95" y="-108"/>
      <point x="69" y="-137"/>
      <point x="39" y="-155" type="curve"/>
      <point x="26" y="-145" type="line"/>
      <point x="35" y="-136"/>
      <point x="43" y="-123"/>
      <point x="45" y="-111" type="curve"/>
      <point x="28" y="-106"/>
      <point x="15" y="-90"/>
      <point x="15" y="-72" type="curve" smooth="yes"/>
      <point x="15" y="-49"/>
      <point x="33" y="-31"/>
      <point x="55" y="-31" type="curve" smooth="yes"/>
      <point x="77" y="-31"/>
      <point x="95" y="-49"/>
      <point x="95" y="-72" type="curve" smooth="yes"/>
    </contour>
    <contour>
      <point x="55" y="0" type="move" name="_bottom"/>
    </contour>
  </outline>
</glyph>
<glyph name="candraBindu-deva" format="1">
  <advance width="0"/>
  <unicode hex="0901"/>
  <outline>
    <contour>
      <point x="-266" y="679" type="line"/>
      <point x="-233" y="601"/>
      <point x="-173" y="549"/>
      <point x="-113" y="549" type="curve" smooth="yes"/>
      <point x="-47" y="549"/>
      <point x="12" y="595"/>
      <point x="35" y="663" type="curve"/>
      <point x="-11" y="695" type="line"/>
      <point x="-33" y="637"/>
      <point x="-81" y="600"/>
      <point x="-133" y="600" type="curve" smooth="yes"/>
      <point x="-181" y="600"/>
      <point x="-223" y="638"/>
      <point x="-245" y="690" type="curve"/>
    </contour>
    <component base="anusvara-deva" xOffset="-12" yOffset="25"/>
    <contour>
      <point x="-113" y="500" type="move" name="_top"/>
    </contour>
  </outline>
</glyph>
<glyph name="anusvara-deva" format="1">
  <advance width="0"/>
  <unicode hex="0902"/>
  <outline>
    <contour>
      <point x="-114" y="632" type="line"/>
      <point x="-60" y="680" type="line"/>
      <point x="-114" y="729" type="line"/>
      <point x="-167" y="680" type="line"/>
    </contour>
    <contour>
      <point x="-113" y="500" type="move" name="_top"/>
    </contour>
  </outline>
</glyph>
<glyph name="a-deva" format="1">
  <advance width="563"/>
  <unicode hex="0905"/>
  <outline>
    <contour>
      <point x="20" y="255" type="line"/>
      <point x="70" y="115"/>
      <point x="166" y="18"/>
      <point x="256" y="18" type="curve" smooth="yes"/>
      <point x="317" y="18"/>
      <point x="364" y="71"/>
      <point x="364" y="136" type="curve" smooth="yes"/>
      <point x="364" y="180"/>
      <point x="341" y="231"/>
      <point x="302" y="281" type="curve"/>
      <point x="308" y="287" type="line"/>
      <point x="337" y="261"/>
      <point x="368" y="241"/>
      <point x="401" y="241" type="curve" smooth="yes"/>
      <point x="410" y="241"/>
      <point x="420" y="243"/>
      <point x="429" y="246" type="curve"/>
      <point x="429" y="120" type="line" smooth="yes"/>
      <point x="429" y="62"/>
      <point x="580" y="-44"/>
      <point x="667" y="-44" type="curve" smooth="yes"/>
      <point x="683" y="-44"/>
      <point x="699" y="-36"/>
      <point x="713" y="-22" type="curve"/>
      <point x="659" y="12" type="line"/>
      <point x="649" y="-2"/>
      <point x="635" y="-9"/>
      <point x="622" y="-9" type="curve" smooth="yes"/>
      <point x="577" y="-9"/>
      <point x="489" y="48"/>
      <point x="489" y="81" type="curve" smooth="yes"/>
      <point x="489" y="442" type="line"/>
      <point x="433" y="500" type="line"/>
      <point x="310" y="500" type="line"/>
      <point x="361" y="442" type="line"/>
      <point x="429" y="442" type="line"/>
      <point x="429" y="311" type="line"/>
      <point x="414" y="293"/>
      <point x="394" y="284"/>
      <point x="373" y="284" type="curve" smooth="yes"/>
      <point x="354" y="284"/>
      <point x="334" y="292"/>
      <point x="321" y="305" type="curve"/>
      <point x="333" y="326"/>
      <point x="340" y="348"/>
      <point x="340" y="374" type="curve" smooth="yes"/>
      <point x="340" y="438"/>
      <point x="270" y="510"/>
      <point x="193" y="510" type="curve" smooth="yes"/>
      <point x="144" y="510"/>
      <point x="95" y="488"/>
      <point x="65" y="450" type="curve"/>
      <point x="110" y="405" type="line"/>
      <point x="142" y="442"/>
      <point x="185" y="467"/>
      <point x="226" y="467" type="curve" smooth="yes"/>
      <point x="264" y="467"/>
      <point x="293" y="435"/>
      <point x="293" y="398" type="curve" smooth="yes"/>
      <point x="293" y="373"/>
      <point x="283" y="345"/>
      <point x="266" y="327" type="curve"/>
      <point x="243" y="355"/>
      <point x="217" y="370"/>
      <point x="194" y="370" type="curve" smooth="yes"/>
      <point x="158" y="370"/>
      <point x="121" y="342"/>
      <point x="121" y="311" type="curve" smooth="yes"/>
      <point x="121" y="274"/>
      <point x="173" y="229"/>
      <point x="211" y="229" type="curve" smooth="yes"/>
      <point x="234" y="229"/>
      <point x="261" y="242"/>
      <point x="287" y="264" type="curve"/>
      <point x="307" y="236"/>
      <point x="320" y="206"/>
      <point x="320" y="177" type="curve" smooth="yes"/>
      <point x="320" y="121"/>
      <point x="281" y="73"/>
      <point x="227" y="73" type="curve" smooth="yes"/>
      <point x="159" y="73"/>
      <point x="86" y="152"/>
      <point x="45" y="266" type="curve"/>
    </contour>
    <contour>
      <point x="573" y="442" type="line"/>
      <point x="573" y="500" type="line"/>
      <point x="466" y="500" type="line"/>
      <point x="522" y="442" type="line"/>
    </contour>
    <contour>
      <point x="170" y="270"/>
      <point x="164" y="278"/>
      <point x="164" y="287" type="curve" smooth="yes"/>
      <point x="164" y="304"/>
      <point x="197" y="329"/>
      <point x="217" y="329" type="curve" smooth="yes"/>
      <point x="231" y="329"/>
      <point x="242" y="321"/>
      <point x="251" y="310" type="curve"/>
      <point x="222" y="284"/>
      <point x="195" y="270"/>
      <point x="179" y="270" type="curve" smooth="yes"/>
    </contour>
    <contour>
      <point x="82" y="0" type="move" name="nukta"/>
    </contour>
    <contour>
      <point x="459" y="0" type="move" name="bottom"/>
    </contour>
    <contour>
      <point x="450" y="500" type="move" name="top"/>
    </contour>
  </outline>
</glyph>
<glyph name="u-deva" format="1">
  <advance width="417"/>
  <unicode hex="0909"/>
  <outline>
    <contour>
      <point x="260" y="442" type="line"/>
      <point x="288" y="424"/>
      <point x="307" y="396"/>
      <point x="307" y="368" type="curve" smooth="yes"/>
      <point x="307" y="333"/>
      <point x="269" y="307"/>
      <point x="227" y="307" type="curve" smooth="yes"/>
      <point x="204" y="307"/>
      <point x="183" y="308"/>
      <point x="164" y="313" type="curve"/>
      <point x="175" y="288"/>
      <point x="190" y="268"/>
      <point x="211" y="249" type="curve"/>
      <point x="216" y="248"/>
      <point x="228" y="247"/>
      <point x="243" y="247" type="curve" smooth="yes"/>
      <point x="261" y="247"/>
      <point x="278" y="250"/>
      <point x="293" y="258" type="curve"/>
      <point x="319" y="230"/>
      <point x="334" y="200"/>
      <point x="334" y="173" type="curve" smooth="yes"/>
      <point x="334" y="125"/>
      <point x="289" y="88"/>
      <point x="238" y="88" type="curve" smooth="yes"/>
      <point x="154" y="88"/>
      <point x="82" y="180"/>
      <point x="35" y="302" type="curve"/>
      <point x="15" y="294" type="line"/>
      <point x="71" y="141"/>
      <point x="174" y="34"/>
      <point x="272" y="34" type="curve" smooth="yes"/>
      <point x="330" y="34"/>
      <point x="378" y="80"/>
      <point x="378" y="133" type="curve" smooth="yes"/>
      <point x="378" y="178"/>
      <point x="352" y="226"/>
      <point x="310" y="268" type="curve"/>
      <point x="332" y="279"/>
      <point x="348" y="304"/>
      <point x="348" y="333" type="curve" smooth="yes"/>
      <point x="348" y="363"/>
      <point x="333" y="406"/>
      <point x="298" y="442" type="curve" smooth="yes"/>
      <point x="242" y="500" type="line"/>
      <point x="-10" y="500" type="line"/>
      <point x="-10" y="442" type="line"/>
    </contour>
    <contour>
      <point x="427" y="442" type="line"/>
      <point x="427" y="500" type="line"/>
      <point x="275" y="500" type="line"/>
      <point x="331" y="442" type="line"/>
    </contour>
    <contour>
      <point x="258" y="500" type="move" name="top"/>
    </contour>
    <contour>
      <point x="272" y="34" type="move" name="bottom"/>
    </contour>
  </outline>
</glyph>
<glyph name="uu-deva" format="1">
  <advance width="586"/>
  <unicode hex="090A"/>
  <outline>
    <contour>
      <point x="260" y="442" type="line"/>
      <point x="288" y="424"/>
      <point x="307" y="396"/>
      <point x="307" y="368" type="curve" smooth="yes"/>
      <point x="307" y="333"/>
      <point x="269" y="307"/>
      <point x="227" y="307" type="curve" smooth="yes"/>
      <point x="204" y="307"/>
      <point x="183" y="308"/>
      <point x="164" y="313" type="curve"/>
      <point x="175" y="288"/>
      <point x="190" y="268"/>
      <point x="211" y="249" type="curve"/>
      <point x="216" y="248"/>
      <point x="228" y="247"/>
      <point x="243" y="247" type="curve" smooth="yes"/>
      <point x="261" y="247"/>
      <point x="278" y="250"/>
      <point x="293" y="258" type="curve"/>
      <point x="319" y="230"/>
      <point x="334" y="200"/>
      <point x="334" y="173" type="curve" smooth="yes"/>
      <point x="334" y="125"/>
      <point x="289" y="88"/>
      <point x="238" y="88" type="curve" smooth="yes"/>
      <point x="154" y="88"/>
      <point x="82" y="180"/>
      <point x="35" y="302" type="curve"/>
      <point x="15" y="294" type="line"/>
      <point x="71" y="141"/>
      <point x="174" y="34"/>
      <point x="272" y="34" type="curve" smooth="yes"/>
      <point x="330" y="34"/>
      <point x="378" y="80"/>
      <point x="378" y="133" type="curve" smooth="yes"/>
      <point x="378" y="157"/>
      <point x="370" y="182"/>
      <point x="358" y="205" type="curve"/>
      <point x="389" y="243"/>
      <point x="431" y="268"/>
      <point x="478" y="268" type="curve" smooth="yes"/>
      <point x="499" y="268"/>
      <point x="519" y="248"/>
      <point x="519" y="223" type="curve" smooth="yes"/>
      <point x="519" y="178"/>
      <point x="489" y="137"/>
      <point x="445" y="122" type="curve"/>
      <point x="485" y="75" type="line"/>
      <point x="528" y="89"/>
      <point x="559" y="133"/>
      <point x="559" y="183" type="curve" smooth="yes"/>
      <point x="559" y="242"/>
      <point x="491" y="314"/>
      <point x="435" y="314" type="curve" smooth="yes"/>
      <point x="396" y="314"/>
      <point x="354" y="291"/>
      <point x="324" y="253" type="curve"/>
      <point x="310" y="268" type="line"/>
      <point x="332" y="279"/>
      <point x="348" y="304"/>
      <point x="348" y="333" type="curve" smooth="yes"/>
      <point x="348" y="363"/>
      <point x="333" y="406"/>
      <point x="298" y="442" type="curve" smooth="yes"/>
      <point x="242" y="500" type="line"/>
      <point x="-10" y="500" type="line"/>
      <point x="-10" y="442" type="line"/>
    </contour>
    <contour>
      <point x="596" y="442" type="line"/>
      <point x="596" y="500" type="line"/>
      <point x="275" y="500" type="line"/>
      <point x="331" y="442" type="line"/>
    </contour>
    <contour>
      <point x="258" y="500" type="move" name="top"/>
    </contour>
    <contour>
      <point x="272" y="34" type="move" name="bottom"/>
    </contour>
  </outline>
</glyph>
<glyph name="lVocalic-deva" format="1">
  <advance width="579"/>
  <unicode hex="090C"/>
  <outline>
    <contour>
      <point x="362" y="442" type="line"/>
      <point x="362" y="363" type="line"/>
      <point x="327" y="360"/>
      <point x="292" y="328"/>
      <point x="271" y="283" type="curve"/>
      <point x="236" y="330"/>
      <point x="193" y="358"/>
      <point x="151" y="358" type="curve" smooth="yes"/>
      <point x="96" y="358"/>
      <point x="39" y="297"/>
      <point x="39" y="238" type="curve" smooth="yes"/>
      <point x="39" y="141"/>
      <point x="155" y="-5"/>
      <point x="251" y="-5" type="curve" smooth="yes"/>
      <point x="269" y="-5"/>
      <point x="287" y="1"/>
      <point x="301" y="15" type="curve"/>
      <point x="258" y="58" type="line"/>
      <point x="243" y="44"/>
      <point x="230" y="38"/>
      <point x="216" y="38" type="curve" smooth="yes"/>
      <point x="167" y="38"/>
      <point x="88" y="131"/>
      <point x="88" y="187" type="curve" smooth="yes"/>
      <point x="88" y="250"/>
      <point x="134" y="311"/>
      <point x="188" y="311" type="curve" smooth="yes"/>
      <point x="214" y="311"/>
      <point x="241" y="290"/>
      <point x="260" y="257" type="curve"/>
      <point x="257" y="238"/>
      <point x="255" y="221"/>
      <point x="255" y="206" type="curve"/>
      <point x="315" y="178" type="line"/>
      <point x="315" y="281"/>
      <point x="363" y="323"/>
      <point x="414" y="323" type="curve" smooth="yes"/>
      <point x="461" y="323"/>
      <point x="501" y="282"/>
      <point x="501" y="235" type="curve" smooth="yes"/>
      <point x="501" y="142"/>
      <point x="350" y="143"/>
      <point x="350" y="54" type="curve" smooth="yes"/>
      <point x="350" y="3"/>
      <point x="429" y="-63"/>
      <point x="506" y="-63" type="curve" smooth="yes"/>
      <point x="544" y="-63"/>
      <point x="577" y="-50"/>
      <point x="599" y="-24" type="curve"/>
      <point x="557" y="14" type="line"/>
      <point x="531" y="-13"/>
      <point x="501" y="-28"/>
      <point x="469" y="-28" type="curve" smooth="yes"/>
      <point x="430" y="-28"/>
      <point x="396" y="-7"/>
      <point x="396" y="23" type="curve" smooth="yes"/>
      <point x="396" y="99"/>
      <point x="544" y="103"/>
      <point x="544" y="200" type="curve" smooth="yes"/>
      <point x="544" y="265"/>
      <point x="495" y="329"/>
      <point x="422" y="356" type="curve"/>
      <point x="422" y="442" type="line"/>
      <point x="368" y="500" type="line"/>
      <point x="-10" y="500" type="line"/>
      <point x="-10" y="442" type="line"/>
    </contour>
    <contour>
      <point x="589" y="442" type="line"/>
      <point x="589" y="500" type="line"/>
      <point x="401" y="500" type="line"/>
      <point x="455" y="442" type="line"/>
    </contour>
    <contour>
      <point x="384" y="500" type="move" name="top"/>
    </contour>
    <contour>
      <point x="328" y="0" type="move" name="bottom"/>
    </contour>
  </outline>
</glyph>
<glyph name="e-deva" format="1">
  <advance width="399"/>
  <unicode hex="090F"/>
  <outline>
    <contour>
      <point x="117" y="442" type="line"/>
      <point x="69" y="382"/>
      <point x="41" y="317"/>
      <point x="41" y="247" type="curve" smooth="yes"/>
      <point x="41" y="169"/>
      <point x="89" y="90"/>
      <point x="186" y="14" type="curve" smooth="yes"/>
      <point x="282" y="-62"/>
      <point x="379" y="-100"/>
      <point x="478" y="-100" type="curve" smooth="yes"/>
      <point x="498" y="-100"/>
      <point x="515" y="-94"/>
      <point x="531" y="-83" type="curve"/>
      <point x="484" y="-39" type="line"/>
      <point x="472" y="-53"/>
      <point x="452" y="-62"/>
      <point x="431" y="-62" type="curve" smooth="yes"/>
      <point x="288" y="-62"/>
      <point x="97" y="82"/>
      <point x="97" y="197" type="curve" smooth="yes"/>
      <point x="97" y="293"/>
      <point x="129" y="382"/>
      <point x="189" y="442" type="curve"/>
      <point x="268" y="442" type="line"/>
      <point x="304" y="397"/>
      <point x="322" y="350"/>
      <point x="322" y="319" type="curve" smooth="yes"/>
      <point x="322" y="266"/>
      <point x="282" y="220"/>
      <point x="232" y="220" type="curve" smooth="yes"/>
      <point x="216" y="220"/>
      <point x="199" y="232"/>
      <point x="184" y="253" type="curve"/>
      <point x="173" y="239" type="line"/>
      <point x="199" y="193"/>
      <point x="238" y="164"/>
      <point x="273" y="164" type="curve" smooth="yes"/>
      <point x="322" y="164"/>
      <point x="366" y="213"/>
      <point x="366" y="266" type="curve" smooth="yes"/>
      <point x="366" y="316"/>
      <point x="346" y="378"/>
      <point x="296" y="442" type="curve" smooth="yes"/>
      <point x="250" y="500" type="line"/>
      <point x="-10" y="500" type="line"/>
      <point x="-10" y="442" type="line"/>
    </contour>
    <contour>
      <point x="408" y="442" type="line"/>
      <point x="408" y="500" type="line"/>
      <point x="283" y="500" type="line"/>
      <point x="329" y="442" type="line"/>
    </contour>
    <contour>
      <point x="267" y="500" type="move" name="top"/>
    </contour>
  </outline>
</glyph>
<glyph name="au-deva" format="1">
  <advance width="771"/>
  <unicode hex="0914"/>
  <outline>
    <component base="aa-deva"/>
    <component base="aiMatra-deva" xOffset="769"/>
    <contour>
      <point x="730" y="525" type="move" name="top"/>
    </contour>
  </outline>
</glyph>
<glyph name="ga-deva" format="1">
  <advance width="501"/>
  <unicode hex="0917"/>
  <outline>
    <contour>
      <point x="152" y="442" type="line"/>
      <point x="182" y="389"/>
      <point x="198" y="344"/>
      <point x="198" y="308" type="curve" smooth="yes"/>
      <point x="198" y="243"/>
      <point x="155" y="186"/>
      <point x="105" y="186" type="curve" smooth="yes"/>
      <point x="89" y="186"/>
      <point x="75" y="199"/>
      <point x="75" y="214" type="curve" smooth="yes"/>
      <point x="75" y="240"/>
      <point x="106" y="274"/>
      <point x="129" y="274" type="curve" smooth="yes"/>
      <point x="135" y="274"/>
      <point x="145" y="269"/>
      <point x="154" y="260" type="curve"/>
      <point x="164" y="272" type="line"/>
      <point x="146" y="296"/>
      <point x="118" y="311"/>
      <point x="91" y="311" type="curve" smooth="yes"/>
      <point x="57" y="311"/>
      <point x="24" y="277"/>
      <point x="24" y="243" type="curve" smooth="yes"/>
      <point x="24" y="197"/>
      <point x="83" y="150"/>
      <point x="152" y="150" type="curve" smooth="yes"/>
      <point x="197" y="150"/>
      <point x="240" y="202"/>
      <point x="240" y="253" type="curve" smooth="yes"/>
      <point x="240" y="309"/>
      <point x="220" y="373"/>
      <point x="180" y="442" type="curve"/>
      <point x="367" y="442" type="line"/>
      <point x="367" y="122" type="line" smooth="yes"/>
      <point x="367" y="61"/>
      <point x="519" y="-44"/>
      <point x="605" y="-44" type="curve" smooth="yes"/>
      <point x="622" y="-44"/>
      <point x="637" y="-36"/>
      <point x="650" y="-22" type="curve"/>
      <point x="597" y="13" type="line"/>
      <point x="583" y="-2"/>
      <point x="571" y="-9"/>
      <point x="559" y="-9" type="curve" smooth="yes"/>
      <point x="514" y="-9"/>
      <point x="427" y="48"/>
      <point x="427" y="81" type="curve" smooth="yes"/>
      <point x="427" y="442" type="line"/>
      <point x="369" y="500" type="line"/>
      <point x="-10" y="500" type="line"/>
      <point x="-10" y="442" type="line"/>
    </contour>
    <contour>
      <point x="511" y="442" type="line"/>
      <point x="511" y="500" type="line"/>
      <point x="402" y="500" type="line"/>
      <point x="460" y="442" type="line"/>
    </contour>
    <contour>
      <point x="152" y="41" type="move" name="nukta"/>
    </contour>
    <contour>
      <point x="397" y="0" type="move" name="bottom"/>
    </contour>
    <contour>
      <point x="385" y="500" type="move" name="top"/>
    </contour>
  </outline>
</glyph>
<glyph name="gha-deva" format="1">
  <advance width="469"/>
  <unicode hex="0918"/>
  <outline>
    <contour>
      <point x="50" y="442" type="line"/>
      <point x="43" y="434"/>
      <point x="36" y="417"/>
      <point x="36" y="401" type="curve" smooth="yes"/>
      <point x="36" y="375"/>
      <point x="59" y="351"/>
      <point x="105" y="321" type="curve"/>
      <point x="75" y="306"/>
      <point x="55" y="280"/>
      <point x="55" y="255" type="curve" smooth="yes"/>
      <point x="55" y="191"/>
      <point x="130" y="126"/>
      <point x="217" y="126" type="curve" smooth="yes"/>
      <point x="263" y="126"/>
      <point x="307" y="148"/>
      <point x="335" y="189" type="curve"/>
      <point x="335" y="120" type="line" smooth="yes"/>
      <point x="335" y="62"/>
      <point x="485" y="-44"/>
      <point x="573" y="-44" type="curve" smooth="yes"/>
      <point x="589" y="-44"/>
      <point x="605" y="-36"/>
      <point x="618" y="-22" type="curve"/>
      <point x="565" y="12" type="line"/>
      <point x="551" y="-3"/>
      <point x="539" y="-9"/>
      <point x="528" y="-9" type="curve" smooth="yes"/>
      <point x="483" y="-9"/>
      <point x="395" y="48"/>
      <point x="395" y="81" type="curve" smooth="yes"/>
      <point x="395" y="442" type="line"/>
      <point x="337" y="500" type="line"/>
      <point x="-10" y="500" type="line"/>
      <point x="-10" y="442" type="line"/>
    </contour>
    <contour>
      <point x="136" y="162"/>
      <point x="101" y="184"/>
      <point x="101" y="216" type="curve" smooth="yes"/>
      <point x="101" y="260"/>
      <point x="153" y="299"/>
      <point x="214" y="299" type="curve"/>
      <point x="175" y="345" type="line"/>
      <point x="162" y="345"/>
      <point x="146" y="341"/>
      <point x="126" y="332" type="curve"/>
      <point x="102" y="347"/>
      <point x="86" y="366"/>
      <point x="86" y="386" type="curve" smooth="yes"/>
      <point x="86" y="407"/>
      <point x="101" y="426"/>
      <point x="123" y="442" type="curve"/>
      <point x="335" y="442" type="line"/>
      <point x="335" y="278" type="line"/>
      <point x="291" y="206"/>
      <point x="230" y="162"/>
      <point x="172" y="162" type="curve" smooth="yes"/>
    </contour>
    <contour>
      <point x="479" y="442" type="line"/>
      <point x="479" y="500" type="line"/>
      <point x="370" y="500" type="line"/>
      <point x="428" y="442" type="line"/>
    </contour>
    <contour>
      <point x="177" y="29" type="move" name="nukta"/>
    </contour>
    <contour>
      <point x="365" y="0" type="move" name="bottom"/>
    </contour>
    <contour>
      <point x="353" y="500" type="move" name="top"/>
    </contour>
  </outline>
</glyph>
<glyph name="ca-deva" format="1">
  <advance width="503"/>
  <unicode hex="091A"/>
  <outline>
    <contour>
      <point x="368" y="442" type="line"/>
      <point x="368" y="253" type="line"/>
      <point x="324" y="200"/>
      <point x="268" y="169"/>
      <point x="217" y="169" type="curve" smooth="yes"/>
      <point x="192" y="169"/>
      <point x="168" y="188"/>
      <point x="168" y="214" type="curve" smooth="yes"/>
      <point x="168" y="265"/>
      <point x="225" y="306"/>
      <point x="293" y="314" type="curve"/>
      <point x="256" y="364" type="line"/>
      <point x="8" y="364" type="line"/>
      <point x="48" y="313" type="line"/>
      <point x="163" y="313" type="line"/>
      <point x="130" y="295"/>
      <point x="111" y="264"/>
      <point x="111" y="237" type="curve" smooth="yes"/>
      <point x="111" y="192"/>
      <point x="190" y="128"/>
      <point x="263" y="128" type="curve" smooth="yes"/>
      <point x="300" y="128"/>
      <point x="339" y="147"/>
      <point x="369" y="177" type="curve"/>
      <point x="369" y="117" type="line" smooth="yes"/>
      <point x="369" y="61"/>
      <point x="519" y="-44"/>
      <point x="606" y="-44" type="curve" smooth="yes"/>
      <point x="622" y="-44"/>
      <point x="638" y="-36"/>
      <point x="652" y="-22" type="curve"/>
      <point x="598" y="12" type="line"/>
      <point x="585" y="-3"/>
      <point x="572" y="-9"/>
      <point x="561" y="-9" type="curve" smooth="yes"/>
      <point x="516" y="-9"/>
      <point x="428" y="48"/>
      <point x="428" y="81" type="curve" smooth="yes"/>
      <point x="428" y="442" type="line"/>
      <point x="370" y="500" type="line"/>
      <point x="-10" y="500" type="line"/>
      <point x="-10" y="442" type="line"/>
    </contour>
    <contour>
      <point x="512" y="442" type="line"/>
      <point x="512" y="500" type="line"/>
      <point x="403" y="500" type="line"/>
      <point x="461" y="442" type="line"/>
    </contour>
    <contour>
      <point x="150" y="29" type="move" name="nukta"/>
    </contour>
    <contour>
      <point x="399" y="0" type="move" name="bottom"/>
    </contour>
    <contour>
      <point x="387" y="500" type="move" name="top"/>
    </contour>
  </outline>
</glyph>
<glyph name="ja-deva" format="1">
  <advance width="566"/>
  <unicode hex="091C"/>
  <outline>
    <contour>
      <point x="-10" y="500" type="line"/>
      <point x="-10" y="442" type="line"/>
      <point x="429" y="442" type="line"/>
      <point x="429" y="359" type="line"/>
      <point x="249" y="359" type="line" smooth="yes"/>
      <point x="222" y="359"/>
      <point x="196" y="342"/>
      <point x="196" y="320" type="curve" smooth="yes"/>
      <point x="196" y="263"/>
      <point x="304" y="248"/>
      <point x="304" y="203" type="curve" smooth="yes"/>
      <point x="304" y="167"/>
      <point x="267" y="139"/>
      <point x="226" y="139" type="curve" smooth="yes"/>
      <point x="147" y="139"/>
      <point x="79" y="232"/>
      <point x="48" y="326" type="curve"/>
      <point x="20" y="316" type="line"/>
      <point x="70" y="181"/>
      <point x="168" y="87"/>
      <point x="266" y="87" type="curve" smooth="yes"/>
      <point x="319" y="87"/>
      <point x="363" y="124"/>
      <point x="363" y="169" type="curve" smooth="yes"/>
      <point x="363" y="237"/>
      <point x="257" y="267"/>
      <point x="257" y="289" type="curve" smooth="yes"/>
      <point x="257" y="299"/>
      <point x="267" y="308"/>
      <point x="280" y="308" type="curve" smooth="yes"/>
      <point x="429" y="308" type="line"/>
      <point x="429" y="120" type="line" smooth="yes"/>
      <point x="429" y="62"/>
      <point x="579" y="-44"/>
      <point x="666" y="-44" type="curve" smooth="yes"/>
      <point x="683" y="-44"/>
      <point x="698" y="-36"/>
      <point x="712" y="-22" type="curve"/>
      <point x="659" y="12" type="line"/>
      <point x="645" y="-3"/>
      <point x="633" y="-9"/>
      <point x="621" y="-9" type="curve" smooth="yes"/>
      <point x="577" y="-9"/>
      <point x="489" y="48"/>
      <point x="489" y="81" type="curve" smooth="yes"/>
      <point x="489" y="442" type="line"/>
      <point x="431" y="500" type="line"/>
    </contour>
    <contour>
      <point x="464" y="500" type="line"/>
      <point x="522" y="442" type="line"/>
      <point x="577" y="442" type="line"/>
      <point x="577" y="500" type="line"/>
    </contour>
    <contour>
      <point x="109" y="35" type="move" name="nukta"/>
    </contour>
    <contour>
      <point x="459" y="0" type="move" name="bottom"/>
    </contour>
    <contour>
      <point x="447" y="500" type="move" name="top"/>
    </contour>
  </outline>
</glyph>
<glyph name="jha-deva" format="1">
  <advance width="561"/>
  <unicode hex="091D"/>
  <outline>
    <contour>
      <point x="-10" y="500" type="line"/>
      <point x="-10" y="442" type="line"/>
      <point x="421" y="442" type="line"/>
      <point x="421" y="120" type="line" smooth="yes"/>
      <point x="421" y="50"/>
      <point x="589" y="-44"/>
      <point x="659" y="-44" type="curve" smooth="yes"/>
      <point x="677" y="-44"/>
      <point x="693" y="-34"/>
      <point x="704" y="-22" type="curve"/>
      <point x="651" y="12" type="line"/>
      <point x="642" y="-1"/>
      <point x="628" y="-9"/>
      <point x="614" y="-9" type="curve" smooth="yes"/>
      <point x="574" y="-9"/>
      <point x="481" y="40"/>
      <point x="481" y="81" type="curve" smooth="yes"/>
      <point x="481" y="442" type="line"/>
      <point x="423" y="500" type="line"/>
    </contour>
    <contour>
      <point x="212" y="442" type="line"/>
      <point x="226" y="428"/>
      <point x="235" y="412"/>
      <point x="235" y="397" type="curve" smooth="yes"/>
      <point x="235" y="383"/>
      <point x="222" y="373"/>
      <point x="207" y="373" type="curve" smooth="yes"/>
      <point x="114" y="373" type="line" smooth="yes"/>
      <point x="72" y="373"/>
      <point x="27" y="335"/>
      <point x="27" y="297" type="curve" smooth="yes"/>
      <point x="27" y="253"/>
      <point x="95" y="186"/>
      <point x="155" y="186" type="curve" smooth="yes"/>
      <point x="197" y="186"/>
      <point x="227" y="228"/>
      <point x="249" y="228" type="curve" smooth="yes"/>
      <point x="266" y="228"/>
      <point x="282" y="212"/>
      <point x="282" y="190" type="curve" smooth="yes"/>
      <point x="282" y="145"/>
      <point x="202" y="90"/>
      <point x="145" y="90" type="curve"/>
      <point x="120" y="119"/>
      <point x="92" y="135"/>
      <point x="71" y="135" type="curve" smooth="yes"/>
      <point x="51" y="135"/>
      <point x="34" y="121"/>
      <point x="34" y="102" type="curve" smooth="yes"/>
      <point x="34" y="65"/>
      <point x="84" y="33"/>
      <point x="146" y="33" type="curve"/>
      <point x="209" y="-43"/>
      <point x="282" y="-88"/>
      <point x="347" y="-88" type="curve" smooth="yes"/>
      <point x="365" y="-88"/>
      <point x="384" y="-81"/>
      <point x="399" y="-67" type="curve"/>
      <point x="354" y="-24" type="line"/>
      <point x="340" y="-40"/>
      <point x="322" y="-49"/>
      <point x="307" y="-49" type="curve" smooth="yes"/>
      <point x="268" y="-49"/>
      <point x="216" y="-17"/>
      <point x="171" y="37" type="curve"/>
      <point x="253" y="51"/>
      <point x="317" y="104"/>
      <point x="317" y="160" type="curve" smooth="yes"/>
      <point x="317" y="174"/>
      <point x="313" y="189"/>
      <point x="304" y="204" type="curve"/>
      <point x="332" y="187"/>
      <point x="357" y="178"/>
      <point x="378" y="178" type="curve" smooth="yes"/>
      <point x="390" y="178"/>
      <point x="405" y="183"/>
      <point x="421" y="197" type="curve"/>
      <point x="421" y="256" type="line"/>
      <point x="399" y="233"/>
      <point x="367" y="219"/>
      <point x="335" y="219" type="curve" smooth="yes"/>
      <point x="293" y="219"/>
      <point x="265" y="268"/>
      <point x="223" y="268" type="curve" smooth="yes"/>
      <point x="199" y="268"/>
      <point x="154" y="225"/>
      <point x="124" y="225" type="curve" smooth="yes"/>
      <point x="98" y="225"/>
      <point x="75" y="243"/>
      <point x="75" y="266" type="curve" smooth="yes"/>
      <point x="75" y="296"/>
      <point x="111" y="326"/>
      <point x="145" y="326" type="curve" smooth="yes"/>
      <point x="235" y="327" type="line" smooth="yes"/>
      <point x="261" y="327"/>
      <point x="278" y="344"/>
      <point x="278" y="362" type="curve" smooth="yes"/>
      <point x="278" y="382"/>
      <point x="263" y="411"/>
      <point x="241" y="442" type="curve"/>
    </contour>
    <contour>
      <point x="456" y="500" type="line"/>
      <point x="514" y="442" type="line"/>
      <point x="571" y="442" type="line"/>
      <point x="571" y="500" type="line"/>
    </contour>
    <contour>
      <point x="94" y="-67" type="move" name="nukta"/>
    </contour>
    <contour>
      <point x="451" y="0" type="move" name="bottom"/>
    </contour>
    <contour>
      <point x="439" y="500" type="move" name="top"/>
    </contour>
  </outline>
</glyph>
<glyph name="nya-deva" format="1">
  <advance width="547"/>
  <unicode hex="091E"/>
  <outline>
    <contour>
      <point x="412" y="442" type="line"/>
      <point x="412" y="289" type="line"/>
      <point x="392" y="259"/>
      <point x="362" y="239"/>
      <point x="339" y="239" type="curve" smooth="yes"/>
      <point x="285" y="239"/>
      <point x="249" y="368"/>
      <point x="139" y="368" type="curve" smooth="yes"/>
      <point x="109" y="368"/>
      <point x="75" y="352"/>
      <point x="42" y="324" type="curve"/>
      <point x="89" y="276" type="line"/>
      <point x="112" y="304"/>
      <point x="146" y="322"/>
      <point x="181" y="322" type="curve" smooth="yes"/>
      <point x="221" y="322"/>
      <point x="253" y="288"/>
      <point x="253" y="248" type="curve" smooth="yes"/>
      <point x="253" y="190"/>
      <point x="208" y="139"/>
      <point x="152" y="139" type="curve" smooth="yes"/>
      <point x="110" y="139"/>
      <point x="67" y="170"/>
      <point x="42" y="223" type="curve"/>
      <point x="20" y="211" type="line"/>
      <point x="62" y="138"/>
      <point x="129" y="91"/>
      <point x="195" y="91" type="curve" smooth="yes"/>
      <point x="253" y="91"/>
      <point x="301" y="139"/>
      <point x="301" y="196" type="curve" smooth="yes"/>
      <point x="301" y="209"/>
      <point x="296" y="225"/>
      <point x="288" y="243" type="curve"/>
      <point x="317" y="210"/>
      <point x="345" y="191"/>
      <point x="371" y="191" type="curve" smooth="yes"/>
      <point x="383" y="191"/>
      <point x="397" y="197"/>
      <point x="412" y="212" type="curve"/>
      <point x="412" y="120" type="line" smooth="yes"/>
      <point x="412" y="62"/>
      <point x="563" y="-44"/>
      <point x="650" y="-44" type="curve" smooth="yes"/>
      <point x="666" y="-44"/>
      <point x="682" y="-36"/>
      <point x="696" y="-22" type="curve"/>
      <point x="642" y="12" type="line"/>
      <point x="632" y="-2"/>
      <point x="618" y="-9"/>
      <point x="605" y="-9" type="curve" smooth="yes"/>
      <point x="560" y="-9"/>
      <point x="472" y="48"/>
      <point x="472" y="81" type="curve" smooth="yes"/>
      <point x="472" y="442" type="line"/>
      <point x="414" y="500" type="line"/>
      <point x="-10" y="500" type="line"/>
      <point x="-10" y="442" type="line"/>
    </contour>
    <contour>
      <point x="556" y="442" type="line"/>
      <point x="556" y="500" type="line"/>
      <point x="447" y="500" type="line"/>
      <point x="505" y="442" type="line"/>
    </contour>
    <contour>
      <point x="154" y="0" type="move" name="nukta"/>
    </contour>
    <contour>
      <point x="443" y="0" type="move" name="bottom"/>
    </contour>
    <contour>
      <point x="432" y="500" type="move" name="top"/>
    </contour>
  </outline>
</glyph>
<glyph name="ttha-deva" format="1">
  <advance width="459"/>
  <unicode hex="0920"/>
  <outline>
    <contour>
      <point x="267" y="442" type="line"/>
      <point x="291" y="418"/>
      <point x="304" y="391"/>
      <point x="304" y="364" type="curve" smooth="yes"/>
      <point x="304" y="277"/>
      <point x="33" y="361"/>
      <point x="33" y="185" type="curve" smooth="yes"/>
      <point x="33" y="99"/>
      <point x="138" y="-1"/>
      <point x="246" y="-1" type="curve" smooth="yes"/>
      <point x="344" y="-1"/>
      <point x="426" y="75"/>
      <point x="426" y="166" type="curve" smooth="yes"/>
      <point x="426" y="220"/>
      <point x="378" y="283"/>
      <point x="331" y="283" type="curve" smooth="yes"/>
      <point x="320" y="283"/>
      <point x="310" y="281"/>
      <point x="302" y="276" type="curve"/>
      <point x="300" y="278" type="line"/>
      <point x="326" y="291"/>
      <point x="345" y="315"/>
      <point x="345" y="339" type="curve" smooth="yes"/>
      <point x="344" y="368"/>
      <point x="329" y="406"/>
      <point x="297" y="442" type="curve" smooth="yes"/>
      <point x="246" y="500" type="line"/>
      <point x="-10" y="500" type="line"/>
      <point x="-10" y="442" type="line"/>
    </contour>
    <contour>
      <point x="140" y="44"/>
      <point x="85" y="89"/>
      <point x="85" y="146" type="curve" smooth="yes"/>
      <point x="85" y="270"/>
      <point x="203" y="245"/>
      <point x="277" y="269" type="curve"/>
      <point x="279" y="267" type="line"/>
      <point x="258" y="254"/>
      <point x="242" y="229"/>
      <point x="233" y="202" type="curve"/>
      <point x="285" y="173" type="line"/>
      <point x="293" y="217"/>
      <point x="317" y="249"/>
      <point x="343" y="249" type="curve" smooth="yes"/>
      <point x="364" y="249"/>
      <point x="383" y="230"/>
      <point x="383" y="205" type="curve" smooth="yes"/>
      <point x="383" y="119"/>
      <point x="298" y="44"/>
      <point x="205" y="44" type="curve" smooth="yes"/>
    </contour>
    <contour>
      <point x="469" y="442" type="line"/>
      <point x="469" y="500" type="line"/>
      <point x="280" y="500" type="line"/>
      <point x="331" y="442" type="line"/>
    </contour>
    <contour>
      <point x="233" y="-120" type="move" name="nukta"/>
    </contour>
    <contour>
      <point x="275" y="0" type="move" name="bottom"/>
    </contour>
    <contour>
      <point x="262" y="500" type="move" name="top"/>
    </contour>
  </outline>
</glyph>
<glyph name="dda-deva" format="1">
  <advance width="459"/>
  <unicode hex="0921"/>
  <outline>
    <contour>
      <point x="293" y="442" type="line"/>
      <point x="309" y="424"/>
      <point x="320" y="402"/>
      <point x="320" y="388" type="curve" smooth="yes"/>
      <point x="320" y="375"/>
      <point x="305" y="366"/>
      <point x="289" y="366" type="curve" smooth="yes"/>
      <point x="188" y="366" type="line" smooth="yes"/>
      <point x="142" y="366"/>
      <point x="102" y="333"/>
      <point x="102" y="291" type="curve" smooth="yes"/>
      <point x="102" y="234"/>
      <point x="186" y="164"/>
      <point x="254" y="164" type="curve" smooth="yes"/>
      <point x="295" y="164"/>
      <point x="320" y="198"/>
      <point x="349" y="198" type="curve" smooth="yes"/>
      <point x="375" y="198"/>
      <point x="394" y="174"/>
      <point x="394" y="149" type="curve" smooth="yes"/>
      <point x="394" y="98"/>
      <point x="321" y="50"/>
      <point x="256" y="50" type="curve" smooth="yes"/>
      <point x="167" y="50"/>
      <point x="80" y="136"/>
      <point x="39" y="228" type="curve"/>
      <point x="16" y="218" type="line"/>
      <point x="78" y="88"/>
      <point x="178" y="3"/>
      <point x="297" y="3" type="curve" smooth="yes"/>
      <point x="372" y="3"/>
      <point x="437" y="54"/>
      <point x="437" y="118" type="curve" smooth="yes"/>
      <point x="437" y="175"/>
      <point x="374" y="242"/>
      <point x="315" y="242" type="curve" smooth="yes"/>
      <point x="286" y="242"/>
      <point x="250" y="208"/>
      <point x="217" y="208" type="curve" smooth="yes"/>
      <point x="182" y="208"/>
      <point x="154" y="232"/>
      <point x="154" y="258" type="curve" smooth="yes"/>
      <point x="154" y="288"/>
      <point x="182" y="314"/>
      <point x="218" y="314" type="curve" smooth="yes"/>
      <point x="302" y="314" type="line" smooth="yes"/>
      <point x="331" y="314"/>
      <point x="357" y="333"/>
      <point x="357" y="358" type="curve" smooth="yes"/>
      <point x="357" y="379"/>
      <point x="343" y="409"/>
      <point x="322" y="442" type="curve"/>
      <point x="270" y="500" type="line"/>
      <point x="-10" y="500" type="line"/>
      <point x="-10" y="442" type="line"/>
    </contour>
    <contour>
      <point x="469" y="442" type="line"/>
      <point x="469" y="500" type="line"/>
      <point x="303" y="500" type="line"/>
      <point x="354" y="442" type="line"/>
    </contour>
    <contour>
      <point x="278" y="-120" type="move" name="nukta"/>
    </contour>
    <contour>
      <point x="268" y="0" type="move" name="bottom"/>
    </contour>
    <contour>
      <point x="287" y="500" type="move" name="top"/>
    </contour>
  </outline>
</glyph>
<glyph name="nna-deva" format="1">
  <advance width="560"/>
  <unicode hex="0923"/>
  <outline>
    <contour>
      <point x="419" y="442" type="line"/>
      <point x="419" y="120" type="line" smooth="yes"/>
      <point x="419" y="62"/>
      <point x="569" y="-44"/>
      <point x="656" y="-44" type="curve" smooth="yes"/>
      <point x="673" y="-44"/>
      <point x="688" y="-36"/>
      <point x="702" y="-22" type="curve"/>
      <point x="649" y="12" type="line"/>
      <point x="639" y="-2"/>
      <point x="625" y="-9"/>
      <point x="611" y="-9" type="curve" smooth="yes"/>
      <point x="567" y="-9"/>
      <point x="479" y="48"/>
      <point x="479" y="81" type="curve" smooth="yes"/>
      <point x="479" y="442" type="line"/>
      <point x="421" y="500" type="line"/>
      <point x="-10" y="500" type="line"/>
      <point x="-10" y="442" type="line"/>
      <point x="63" y="442" type="line"/>
      <point x="49" y="402"/>
      <point x="41" y="360"/>
      <point x="41" y="315" type="curve" smooth="yes"/>
      <point x="41" y="252"/>
      <point x="129" y="152"/>
      <point x="201" y="152" type="curve" smooth="yes"/>
      <point x="251" y="152"/>
      <point x="301" y="218"/>
      <point x="301" y="282" type="curve" smooth="yes"/>
      <point x="301" y="335"/>
      <point x="283" y="388"/>
      <point x="246" y="442" type="curve"/>
    </contour>
    <contour>
      <point x="563" y="442" type="line"/>
      <point x="563" y="500" type="line"/>
      <point x="454" y="500" type="line"/>
      <point x="512" y="442" type="line"/>
    </contour>
    <contour>
      <point x="135" y="198"/>
      <point x="98" y="238"/>
      <point x="98" y="270" type="curve" smooth="yes"/>
      <point x="98" y="333"/>
      <point x="108" y="390"/>
      <point x="127" y="442" type="curve"/>
      <point x="214" y="442" type="line"/>
      <point x="241" y="404"/>
      <point x="256" y="364"/>
      <point x="256" y="335" type="curve" smooth="yes"/>
      <point x="256" y="271"/>
      <point x="209" y="198"/>
      <point x="164" y="198" type="curve" smooth="yes"/>
    </contour>
    <contour>
      <point x="163" y="40" type="move" name="nukta"/>
    </contour>
    <contour>
      <point x="449" y="0" type="move" name="bottom"/>
    </contour>
    <contour>
      <point x="437" y="500" type="move" name="top"/>
    </contour>
  </outline>
</glyph>
<glyph name="tha-deva" format="1">
  <advance width="501"/>
  <unicode hex="0925"/>
  <outline>
    <contour>
      <point x="252" y="500" type="line"/>
      <point x="299" y="442" type="line"/>
      <point x="367" y="442" type="line"/>
      <point x="367" y="122" type="line" smooth="yes"/>
      <point x="367" y="61"/>
      <point x="520" y="-44"/>
      <point x="605" y="-44" type="curve" smooth="yes"/>
      <point x="622" y="-44"/>
      <point x="637" y="-36"/>
      <point x="651" y="-22" type="curve"/>
      <point x="597" y="13" type="line"/>
      <point x="587" y="-1"/>
      <point x="573" y="-9"/>
      <point x="559" y="-9" type="curve" smooth="yes"/>
      <point x="515" y="-9"/>
      <point x="427" y="47"/>
      <point x="427" y="81" type="curve" smooth="yes"/>
      <point x="427" y="442" type="line"/>
      <point x="369" y="500" type="line"/>
    </contour>
    <contour>
      <point x="75" y="532"/>
      <point x="28" y="485"/>
      <point x="28" y="441" type="curve" smooth="yes"/>
      <point x="28" y="394"/>
      <point x="93" y="333"/>
      <point x="147" y="333" type="curve" smooth="yes"/>
      <point x="162" y="333"/>
      <point x="178" y="340"/>
      <point x="190" y="353" type="curve"/>
      <point x="193" y="352" type="line"/>
      <point x="187" y="317"/>
      <point x="146" y="290"/>
      <point x="97" y="290" type="curve" smooth="yes"/>
      <point x="71" y="290"/>
      <point x="50" y="295"/>
      <point x="32" y="305" type="curve"/>
      <point x="60" y="200"/>
      <point x="139" y="123"/>
      <point x="230" y="123" type="curve" smooth="yes"/>
      <point x="281" y="123"/>
      <point x="333" y="152"/>
      <point x="367" y="199" type="curve"/>
      <point x="367" y="290" type="line"/>
      <point x="325" y="217"/>
      <point x="256" y="170"/>
      <point x="191" y="170" type="curve" smooth="yes"/>
      <point x="141" y="170"/>
      <point x="96" y="202"/>
      <point x="78" y="249" type="curve"/>
      <point x="95" y="243"/>
      <point x="110" y="240"/>
      <point x="122" y="240" type="curve" smooth="yes"/>
      <point x="201" y="240"/>
      <point x="262" y="314"/>
      <point x="262" y="403" type="curve" smooth="yes"/>
      <point x="262" y="462"/>
      <point x="190" y="532"/>
      <point x="124" y="532" type="curve" smooth="yes"/>
    </contour>
    <contour>
      <point x="183" y="492"/>
      <point x="201" y="475"/>
      <point x="201" y="455" type="curve" smooth="yes"/>
      <point x="201" y="417"/>
      <point x="162" y="378"/>
      <point x="129" y="378" type="curve" smooth="yes"/>
      <point x="104" y="378"/>
      <point x="84" y="394"/>
      <point x="84" y="415" type="curve" smooth="yes"/>
      <point x="84" y="450"/>
      <point x="123" y="492"/>
      <point x="161" y="492" type="curve" smooth="yes"/>
    </contour>
    <contour>
      <point x="402" y="500" type="line"/>
      <point x="460" y="442" type="line"/>
      <point x="511" y="442" type="line"/>
      <point x="511" y="500" type="line"/>
    </contour>
    <contour>
      <point x="112" y="39" type="move" name="nukta"/>
    </contour>
    <contour>
      <point x="397" y="0" type="move" name="bottom"/>
    </contour>
    <contour>
      <point x="386" y="500" type="move" name="top"/>
    </contour>
  </outline>
</glyph>
<glyph name="da-deva" format="1">
  <advance width="393"/>
  <unicode hex="0926"/>
  <outline>
    <contour>
      <point x="258" y="442" type="line"/>
      <point x="275" y="423"/>
      <point x="285" y="399"/>
      <point x="285" y="384" type="curve" smooth="yes"/>
      <point x="285" y="365"/>
      <point x="275" y="352"/>
      <point x="246" y="345" type="curve" smooth="yes"/>
      <point x="117" y="317" type="line" smooth="yes"/>
      <point x="68" y="306"/>
      <point x="33" y="272"/>
      <point x="33" y="236" type="curve" smooth="yes"/>
      <point x="33" y="143"/>
      <point x="121" y="58"/>
      <point x="230" y="58" type="curve" smooth="yes"/>
      <point x="249" y="58"/>
      <point x="266" y="60"/>
      <point x="283" y="67" type="curve"/>
      <point x="326" y="-6"/>
      <point x="383" y="-51"/>
      <point x="428" y="-51" type="curve" smooth="yes"/>
      <point x="447" y="-51"/>
      <point x="466" y="-44"/>
      <point x="480" y="-30" type="curve"/>
      <point x="432" y="8" type="line"/>
      <point x="419" y="-6"/>
      <point x="407" y="-12"/>
      <point x="397" y="-12" type="curve" smooth="yes"/>
      <point x="372" y="-12"/>
      <point x="335" y="24"/>
      <point x="306" y="76" type="curve"/>
      <point x="337" y="92"/>
      <point x="358" y="117"/>
      <point x="358" y="142" type="curve" smooth="yes"/>
      <point x="358" y="182"/>
      <point x="325" y="218"/>
      <point x="282" y="218" type="curve" smooth="yes"/>
      <point x="261" y="218"/>
      <point x="245" y="200"/>
      <point x="245" y="179" type="curve" smooth="yes"/>
      <point x="245" y="159"/>
      <point x="250" y="140"/>
      <point x="260" y="124" type="curve"/>
      <point x="236" y="111"/>
      <point x="210" y="103"/>
      <point x="181" y="103" type="curve" smooth="yes"/>
      <point x="125" y="103"/>
      <point x="79" y="144"/>
      <point x="79" y="194" type="curve" smooth="yes"/>
      <point x="79" y="228"/>
      <point x="112" y="257"/>
      <point x="155" y="267" type="curve" smooth="yes"/>
      <point x="260" y="290" type="line" smooth="yes"/>
      <point x="305" y="300"/>
      <point x="326" y="323"/>
      <point x="326" y="358" type="curve"/>
      <point x="326" y="386"/>
      <point x="316" y="416"/>
      <point x="291" y="442" type="curve" smooth="yes"/>
      <point x="234" y="500" type="line"/>
      <point x="-10" y="500" type="line"/>
      <point x="-10" y="442" type="line"/>
    </contour>
    <contour>
      <point x="403" y="442" type="line"/>
      <point x="403" y="500" type="line"/>
      <point x="268" y="500" type="line"/>
      <point x="324" y="442" type="line"/>
    </contour>
    <contour>
      <point x="112" y="-20" type="move" name="nukta"/>
    </contour>
    <contour>
      <point x="384" y="-18" type="move" name="bottom"/>
    </contour>
    <contour>
      <point x="251" y="500" type="move" name="top"/>
    </contour>
  </outline>
</glyph>
<glyph name="dha-deva" format="1">
  <advance width="485"/>
  <unicode hex="0927"/>
  <outline>
    <contour>
      <point x="38" y="403"/>
      <point x="63" y="359"/>
      <point x="106" y="329" type="curve"/>
      <point x="70" y="311"/>
      <point x="48" y="280"/>
      <point x="48" y="249" type="curve" smooth="yes"/>
      <point x="48" y="188"/>
      <point x="122" y="123"/>
      <point x="211" y="123" type="curve" smooth="yes"/>
      <point x="260" y="123"/>
      <point x="313" y="150"/>
      <point x="351" y="194" type="curve"/>
      <point x="351" y="120" type="line" smooth="yes"/>
      <point x="351" y="62"/>
      <point x="501" y="-44"/>
      <point x="588" y="-44" type="curve" smooth="yes"/>
      <point x="605" y="-44"/>
      <point x="620" y="-36"/>
      <point x="634" y="-22" type="curve"/>
      <point x="581" y="12" type="line"/>
      <point x="570" y="-2"/>
      <point x="556" y="-9"/>
      <point x="543" y="-9" type="curve" smooth="yes"/>
      <point x="498" y="-9"/>
      <point x="411" y="48"/>
      <point x="411" y="81" type="curve" smooth="yes"/>
      <point x="411" y="442" type="line"/>
      <point x="352" y="500" type="line"/>
      <point x="254" y="500" type="line"/>
      <point x="300" y="442" type="line"/>
      <point x="351" y="442" type="line"/>
      <point x="351" y="282" type="line"/>
      <point x="316" y="213"/>
      <point x="242" y="168"/>
      <point x="166" y="168" type="curve" smooth="yes"/>
      <point x="129" y="168"/>
      <point x="96" y="188"/>
      <point x="96" y="216" type="curve" smooth="yes"/>
      <point x="96" y="262"/>
      <point x="152" y="300"/>
      <point x="220" y="300" type="curve"/>
      <point x="189" y="353" type="line"/>
      <point x="174" y="353"/>
      <point x="154" y="348"/>
      <point x="128" y="339" type="curve"/>
      <point x="104" y="353"/>
      <point x="90" y="380"/>
      <point x="90" y="409" type="curve" smooth="yes"/>
      <point x="90" y="420"/>
      <point x="93" y="426"/>
      <point x="95" y="433" type="curve"/>
      <point x="116" y="411"/>
      <point x="143" y="398"/>
      <point x="172" y="398" type="curve" smooth="yes"/>
      <point x="207" y="398"/>
      <point x="237" y="421"/>
      <point x="237" y="451" type="curve" smooth="yes"/>
      <point x="237" y="495"/>
      <point x="183" y="539"/>
      <point x="133" y="539" type="curve" smooth="yes"/>
      <point x="81" y="539"/>
      <point x="38" y="496"/>
      <point x="38" y="443" type="curve" smooth="yes"/>
    </contour>
    <contour>
      <point x="494" y="442" type="line"/>
      <point x="494" y="500" type="line"/>
      <point x="385" y="500" type="line"/>
      <point x="443" y="442" type="line"/>
    </contour>
    <contour>
      <point x="110" y="474"/>
      <point x="128" y="492"/>
      <point x="147" y="493" type="curve" smooth="yes"/>
      <point x="163" y="498"/>
      <point x="177" y="488"/>
      <point x="180" y="475" type="curve" smooth="yes"/>
      <point x="181" y="458"/>
      <point x="164" y="439"/>
      <point x="148" y="438" type="curve" smooth="yes"/>
      <point x="134" y="434"/>
      <point x="116" y="439"/>
      <point x="104" y="452" type="curve"/>
    </contour>
    <contour>
      <point x="89" y="40" type="move" name="nukta"/>
    </contour>
    <contour>
      <point x="380" y="0" type="move" name="bottom"/>
    </contour>
    <contour>
      <point x="369" y="500" type="move" name="top"/>
    </contour>
  </outline>
</glyph>
<glyph name="pa-deva" format="1">
  <advance width="422"/>
  <unicode hex="092A"/>
  <outline>
    <contour>
      <point x="44" y="442" type="line"/>
      <point x="44" y="293" type="line" smooth="yes"/>
      <point x="44" y="245"/>
      <point x="134" y="167"/>
      <point x="207" y="167" type="curve" smooth="yes"/>
      <point x="233" y="167"/>
      <point x="264" y="181"/>
      <point x="287" y="205" type="curve"/>
      <point x="287" y="120" type="line" smooth="yes"/>
      <point x="287" y="62"/>
      <point x="438" y="-44"/>
      <point x="525" y="-44" type="curve" smooth="yes"/>
      <point x="541" y="-44"/>
      <point x="557" y="-36"/>
      <point x="571" y="-22" type="curve"/>
      <point x="517" y="12" type="line"/>
      <point x="507" y="-2"/>
      <point x="493" y="-9"/>
      <point x="480" y="-9" type="curve" smooth="yes"/>
      <point x="435" y="-9"/>
      <point x="347" y="48"/>
      <point x="347" y="81" type="curve" smooth="yes"/>
      <point x="347" y="442" type="line"/>
      <point x="289" y="500" type="line"/>
      <point x="-10" y="500" type="line"/>
      <point x="-10" y="442" type="line"/>
    </contour>
    <contour>
      <point x="133" y="207"/>
      <point x="104" y="231"/>
      <point x="104" y="261" type="curve" smooth="yes"/>
      <point x="104" y="442" type="line"/>
      <point x="287" y="442" type="line"/>
      <point x="287" y="284" type="line"/>
      <point x="254" y="237"/>
      <point x="208" y="207"/>
      <point x="167" y="207" type="curve" smooth="yes"/>
    </contour>
    <contour>
      <point x="431" y="442" type="line"/>
      <point x="431" y="500" type="line"/>
      <point x="323" y="500" type="line"/>
      <point x="380" y="442" type="line"/>
    </contour>
    <contour>
      <point x="92" y="37" type="move" name="nukta"/>
    </contour>
    <contour>
      <point x="317" y="0" type="move" name="bottom"/>
    </contour>
    <contour>
      <point x="306" y="500" type="move" name="top"/>
    </contour>
  </outline>
</glyph>
<glyph name="pha-deva" format="1">
  <advance width="542"/>
  <unicode hex="092B"/>
  <outline>
    <contour>
      <point x="-10" y="500" type="line"/>
      <point x="-10" y="442" type="line"/>
      <point x="36" y="442" type="line"/>
      <point x="36" y="292" type="line" smooth="yes"/>
      <point x="36" y="244"/>
      <point x="117" y="160"/>
      <point x="179" y="160" type="curve" smooth="yes"/>
      <point x="203" y="160"/>
      <point x="230" y="172"/>
      <point x="249" y="195" type="curve"/>
      <point x="249" y="120" type="line" smooth="yes"/>
      <point x="249" y="62"/>
      <point x="400" y="-44"/>
      <point x="487" y="-44" type="curve" smooth="yes"/>
      <point x="503" y="-44"/>
      <point x="519" y="-36"/>
      <point x="533" y="-22" type="curve"/>
      <point x="479" y="12" type="line"/>
      <point x="469" y="-2"/>
      <point x="455" y="-9"/>
      <point x="442" y="-9" type="curve" smooth="yes"/>
      <point x="397" y="-9"/>
      <point x="309" y="48"/>
      <point x="309" y="81" type="curve" smooth="yes"/>
      <point x="309" y="237" type="line"/>
      <point x="349" y="289"/>
      <point x="396" y="322"/>
      <point x="431" y="322" type="curve" smooth="yes"/>
      <point x="454" y="322"/>
      <point x="471" y="304"/>
      <point x="471" y="282" type="curve" smooth="yes"/>
      <point x="471" y="237"/>
      <point x="423" y="195"/>
      <point x="358" y="181" type="curve"/>
      <point x="399" y="138" type="line"/>
      <point x="466" y="151"/>
      <point x="517" y="197"/>
      <point x="517" y="247" type="curve" smooth="yes"/>
      <point x="517" y="302"/>
      <point x="449" y="364"/>
      <point x="395" y="364" type="curve" smooth="yes"/>
      <point x="366" y="364"/>
      <point x="334" y="346"/>
      <point x="309" y="317" type="curve"/>
      <point x="309" y="442" type="line"/>
      <point x="251" y="500" type="line"/>
    </contour>
    <contour>
      <point x="250" y="270" type="line"/>
      <point x="216" y="226"/>
      <point x="178" y="201"/>
      <point x="144" y="201" type="curve" smooth="yes"/>
      <point x="121" y="201"/>
      <point x="96" y="227"/>
      <point x="96" y="253" type="curve" smooth="yes"/>
      <point x="96" y="442" type="line"/>
      <point x="250" y="442" type="line"/>
    </contour>
    <contour>
      <point x="284" y="500" type="line"/>
      <point x="342" y="442" type="line"/>
      <point x="552" y="442" type="line"/>
      <point x="552" y="500" type="line"/>
    </contour>
    <contour>
      <point x="115" y="34" type="move" name="nukta"/>
    </contour>
    <contour>
      <point x="279" y="0" type="move" name="bottom"/>
    </contour>
    <contour>
      <point x="268" y="500" type="move" name="top"/>
    </contour>
  </outline>
</glyph>
<glyph name="ma-deva" format="1">
  <advance width="429"/>
  <unicode hex="092E"/>
  <outline>
    <contour>
      <point x="-10" y="500" type="line"/>
      <point x="-10" y="442" type="line"/>
      <point x="88" y="442" type="line"/>
      <point x="88" y="284" type="line"/>
      <point x="38" y="284" type="line" smooth="yes"/>
      <point x="27" y="284"/>
      <point x="17" y="278"/>
      <point x="17" y="268" type="curve" smooth="yes"/>
      <point x="17" y="242"/>
      <point x="106" y="159"/>
      <point x="132" y="159" type="curve" smooth="yes"/>
      <point x="141" y="159"/>
      <point x="148" y="166"/>
      <point x="148" y="175" type="curve" smooth="yes"/>
      <point x="148" y="227" type="line"/>
      <point x="294" y="227" type="line"/>
      <point x="294" y="120" type="line" smooth="yes"/>
      <point x="294" y="62"/>
      <point x="445" y="-44"/>
      <point x="532" y="-44" type="curve" smooth="yes"/>
      <point x="548" y="-44"/>
      <point x="564" y="-36"/>
      <point x="578" y="-22" type="curve"/>
      <point x="524" y="12" type="line"/>
      <point x="514" y="-1"/>
      <point x="503" y="-9"/>
      <point x="487" y="-9" type="curve" smooth="yes"/>
      <point x="442" y="-9"/>
      <point x="354" y="48"/>
      <point x="354" y="81" type="curve" smooth="yes"/>
      <point x="354" y="442" type="line"/>
      <point x="296" y="500" type="line"/>
    </contour>
    <contour>
      <point x="295" y="284" type="line"/>
      <point x="148" y="284" type="line"/>
      <point x="148" y="442" type="line"/>
      <point x="295" y="442" type="line"/>
    </contour>
    <contour>
      <point x="329" y="500" type="line"/>
      <point x="387" y="442" type="line"/>
      <point x="438" y="442" type="line"/>
      <point x="438" y="500" type="line"/>
    </contour>
    <contour>
      <point x="118" y="28" type="move" name="nukta"/>
    </contour>
    <contour>
      <point x="314" y="0" type="move" name="bottom"/>
    </contour>
    <contour>
      <point x="313" y="500" type="move" name="top"/>
    </contour>
  </outline>
</glyph>
<glyph name="ya-deva" format="1">
  <advance width="444"/>
  <unicode hex="092F"/>
  <outline>
    <contour>
      <point x="132" y="500" type="line"/>
      <point x="189" y="442" type="line"/>
      <point x="310" y="442" type="line"/>
      <point x="310" y="269" type="line"/>
      <point x="275" y="222"/>
      <point x="223" y="193"/>
      <point x="167" y="193" type="curve" smooth="yes"/>
      <point x="123" y="193"/>
      <point x="82" y="226"/>
      <point x="67" y="271" type="curve"/>
      <point x="142" y="271"/>
      <point x="190" y="304"/>
      <point x="190" y="353" type="curve" smooth="yes"/>
      <point x="190" y="380"/>
      <point x="182" y="415"/>
      <point x="156" y="442" type="curve" smooth="yes"/>
      <point x="98" y="500" type="line"/>
      <point x="-10" y="500" type="line"/>
      <point x="-10" y="442" type="line"/>
      <point x="110" y="442" type="line" smooth="yes"/>
      <point x="138" y="442"/>
      <point x="152" y="417"/>
      <point x="152" y="392" type="curve" smooth="yes"/>
      <point x="152" y="352"/>
      <point x="110" y="328"/>
      <point x="67" y="328" type="curve" smooth="yes"/>
      <point x="51" y="328"/>
      <point x="39" y="331"/>
      <point x="29" y="335" type="curve"/>
      <point x="21" y="328" type="line"/>
      <point x="40" y="227"/>
      <point x="118" y="145"/>
      <point x="207" y="145" type="curve" smooth="yes"/>
      <point x="244" y="145"/>
      <point x="281" y="160"/>
      <point x="310" y="188" type="curve"/>
      <point x="310" y="120" type="line" smooth="yes"/>
      <point x="310" y="62"/>
      <point x="460" y="-44"/>
      <point x="547" y="-44" type="curve" smooth="yes"/>
      <point x="564" y="-44"/>
      <point x="579" y="-36"/>
      <point x="593" y="-22" type="curve"/>
      <point x="540" y="12" type="line"/>
      <point x="530" y="-1"/>
      <point x="518" y="-9"/>
      <point x="502" y="-9" type="curve" smooth="yes"/>
      <point x="458" y="-9"/>
      <point x="370" y="48"/>
      <point x="370" y="81" type="curve" smooth="yes"/>
      <point x="370" y="442" type="line"/>
      <point x="312" y="500" type="line"/>
    </contour>
    <contour>
      <point x="345" y="500" type="line"/>
      <point x="403" y="442" type="line"/>
      <point x="454" y="442" type="line"/>
      <point x="454" y="500" type="line"/>
    </contour>
    <contour>
      <point x="113" y="28" type="move" name="nukta"/>
    </contour>
    <contour>
      <point x="330" y="0" type="move" name="bottom"/>
    </contour>
    <contour>
      <point x="328" y="500" type="move" name="top"/>
    </contour>
  </outline>
</glyph>
<glyph name="rra-deva" format="1">
  <advance width="311"/>
  <unicode hex="0931"/>
  <outline>
    <contour>
      <point x="-10" y="500" type="line"/>
      <point x="-10" y="442" type="line"/>
      <point x="175" y="442" type="line"/>
      <point x="210" y="413"/>
      <point x="233" y="372"/>
      <point x="233" y="338" type="curve" smooth="yes"/>
      <point x="233" y="312"/>
      <point x="216" y="289"/>
      <point x="192" y="278" type="curve"/>
      <point x="172" y="330"/>
      <point x="136" y="367"/>
      <point x="97" y="367" type="curve" smooth="yes"/>
      <point x="59" y="367"/>
      <point x="28" y="341"/>
      <point x="28" y="311" type="curve" smooth="yes"/>
      <point x="28" y="242"/>
      <point x="167" y="100"/>
      <point x="238" y="40" type="curve" smooth="yes"/>
      <point x="305" y="-18"/>
      <point x="362" y="-48"/>
      <point x="406" y="-48" type="curve" smooth="yes"/>
      <point x="430" y="-48"/>
      <point x="452" y="-38"/>
      <point x="466" y="-23" type="curve"/>
      <point x="410" y="14" type="line"/>
      <point x="403" y="1"/>
      <point x="387" y="-8"/>
      <point x="368" y="-8" type="curve" smooth="yes"/>
      <point x="310" y="-8"/>
      <point x="215" y="71"/>
      <point x="117" y="198" type="curve"/>
      <point x="175" y="184"/>
      <point x="277" y="227"/>
      <point x="277" y="305" type="curve" smooth="yes"/>
      <point x="277" y="341"/>
      <point x="256" y="391"/>
      <point x="211" y="442" type="curve" smooth="yes"/>
      <point x="160" y="500" type="line"/>
    </contour>
    <contour>
      <point x="138" y="315"/>
      <point x="163" y="295"/>
      <point x="174" y="266" type="curve"/>
      <point x="150" y="255"/>
      <point x="125" y="249"/>
      <point x="97" y="249" type="curve" smooth="yes"/>
      <point x="82" y="249"/>
      <point x="70" y="264"/>
      <point x="70" y="281" type="curve" smooth="yes"/>
      <point x="70" y="298"/>
      <point x="92" y="315"/>
      <point x="115" y="315" type="curve" smooth="yes"/>
    </contour>
    <contour>
      <point x="193" y="500" type="line"/>
      <point x="244" y="442" type="line"/>
      <point x="321" y="442" type="line"/>
      <point x="321" y="500" type="line"/>
    </contour>
    <component base="nukta-deva" xOffset="211" yOffset="36"/>
    <contour>
      <point x="177" y="500" type="move" name="top"/>
    </contour>
    <contour>
      <point x="212" y="0" type="move" name="bottom"/>
    </contour>
  </outline>
</glyph>
<glyph name="lla-deva" format="1">
  <advance width="558"/>
  <unicode hex="0933"/>
  <outline>
    <contour>
      <point x="407" y="442" type="line"/>
      <point x="349" y="500" type="line"/>
      <point x="-10" y="500" type="line"/>
      <point x="-10" y="442" type="line"/>
    </contour>
    <contour>
      <point x="239" y="9"/>
      <point x="282" y="60"/>
      <point x="298" y="126" type="curve"/>
      <point x="326" y="53"/>
      <point x="372" y="3"/>
      <point x="417" y="3" type="curve" smooth="yes"/>
      <point x="476" y="3"/>
      <point x="518" y="66"/>
      <point x="518" y="156" type="curve" smooth="yes"/>
      <point x="518" y="252"/>
      <point x="447" y="355"/>
      <point x="378" y="355" type="curve" smooth="yes"/>
      <point x="333" y="355"/>
      <point x="290" y="309"/>
      <point x="272" y="246" type="curve"/>
      <point x="241" y="308"/>
      <point x="197" y="347"/>
      <point x="157" y="347" type="curve" smooth="yes"/>
      <point x="92" y="347"/>
      <point x="41" y="279"/>
      <point x="41" y="201" type="curve" smooth="yes"/>
      <point x="41" y="115"/>
      <point x="122" y="9"/>
      <point x="194" y="9" type="curve" smooth="yes"/>
    </contour>
    <contour>
      <point x="126" y="53"/>
      <point x="94" y="107"/>
      <point x="94" y="161" type="curve" smooth="yes"/>
      <point x="94" y="230"/>
      <point x="139" y="299"/>
      <point x="190" y="299" type="curve" smooth="yes"/>
      <point x="214" y="299"/>
      <point x="242" y="265"/>
      <point x="260" y="217" type="curve"/>
      <point x="238" y="97"/>
      <point x="199" y="53"/>
      <point x="163" y="53" type="curve" smooth="yes"/>
    </contour>
    <contour>
      <point x="361" y="57"/>
      <point x="327" y="96"/>
      <point x="310" y="158" type="curve"/>
      <point x="329" y="252"/>
      <point x="368" y="315"/>
      <point x="404" y="315" type="curve" smooth="yes"/>
      <point x="439" y="315"/>
      <point x="474" y="255"/>
      <point x="474" y="201" type="curve" smooth="yes"/>
      <point x="474" y="122"/>
      <point x="437" y="57"/>
      <point x="392" y="57" type="curve" smooth="yes"/>
    </contour>
    <contour>
      <point x="347" y="343" type="line"/>
      <point x="407" y="343" type="line"/>
      <point x="407" y="442" type="line"/>
      <point x="347" y="442" type="line"/>
    </contour>
    <contour>
      <point x="382" y="500" type="line"/>
      <point x="440" y="442" type="line"/>
      <point x="568" y="442" type="line"/>
      <point x="568" y="500" type="line"/>
    </contour>
    <contour>
      <point x="301" y="-53" type="move" name="nukta"/>
    </contour>
    <contour>
      <point x="365" y="0" type="move" name="bottom"/>
    </contour>
    <contour>
      <point x="365" y="500" type="move" name="top"/>
    </contour>
  </outline>
</glyph>
<glyph name="va-deva" format="1">
  <advance width="419"/>
  <unicode hex="0935"/>
  <outline>
    <contour>
      <point x="-10" y="500" type="line"/>
      <point x="-10" y="442" type="line"/>
      <point x="285" y="442" type="line"/>
      <point x="285" y="315" type="line"/>
      <point x="254" y="359"/>
      <point x="204" y="384"/>
      <point x="154" y="384" type="curve" smooth="yes"/>
      <point x="90" y="384"/>
      <point x="32" y="340"/>
      <point x="32" y="284" type="curve" smooth="yes"/>
      <point x="32" y="216"/>
      <point x="113" y="132"/>
      <point x="202" y="132" type="curve" smooth="yes"/>
      <point x="233" y="132"/>
      <point x="264" y="147"/>
      <point x="286" y="171" type="curve"/>
      <point x="286" y="119" type="line" smooth="yes"/>
      <point x="286" y="65"/>
      <point x="434" y="-44"/>
      <point x="522" y="-44" type="curve" smooth="yes"/>
      <point x="539" y="-44"/>
      <point x="555" y="-36"/>
      <point x="568" y="-22" type="curve"/>
      <point x="515" y="13" type="line"/>
      <point x="504" y="-2"/>
      <point x="490" y="-9"/>
      <point x="477" y="-9" type="curve" smooth="yes"/>
      <point x="432" y="-9"/>
      <point x="345" y="48"/>
      <point x="345" y="81" type="curve" smooth="yes"/>
      <point x="345" y="442" type="line"/>
      <point x="287" y="500" type="line"/>
    </contour>
    <contour>
      <point x="232" y="338"/>
      <point x="264" y="316"/>
      <point x="285" y="283" type="curve"/>
      <point x="285" y="251" type="line"/>
      <point x="257" y="205"/>
      <point x="205" y="177"/>
      <point x="155" y="177" type="curve" smooth="yes"/>
      <point x="119" y="177"/>
      <point x="82" y="208"/>
      <point x="82" y="239" type="curve" smooth="yes"/>
      <point x="82" y="291"/>
      <point x="140" y="338"/>
      <point x="205" y="338" type="curve" smooth="yes"/>
    </contour>
    <contour>
      <point x="320" y="500" type="line"/>
      <point x="378" y="442" type="line"/>
      <point x="429" y="442" type="line"/>
      <point x="429" y="500" type="line"/>
    </contour>
    <contour>
      <point x="77" y="39" type="move" name="nukta"/>
    </contour>
    <contour>
      <point x="316" y="0" type="move" name="bottom"/>
    </contour>
    <contour>
      <point x="303" y="500" type="move" name="top"/>
    </contour>
  </outline>
</glyph>
<glyph name="ssa-deva" format="1">
  <advance width="422"/>
  <unicode hex="0937"/>
  <outline>
    <contour>
      <point x="247" y="262" type="line"/>
      <point x="299" y="248" type="line"/>
      <point x="127" y="430" type="line"/>
      <point x="92" y="428" type="line"/>
    </contour>
    <component base="pa-deva"/>
    <contour>
      <point x="92" y="37" type="move" name="nukta"/>
    </contour>
    <contour>
      <point x="317" y="0" type="move" name="bottom"/>
    </contour>
    <contour>
      <point x="306" y="500" type="move" name="top"/>
    </contour>
  </outline>
</glyph>
<glyph name="ha-deva" format="1">
  <advance width="384"/>
  <unicode hex="0939"/>
  <outline>
    <contour>
      <point x="233" y="442" type="line"/>
      <point x="256" y="418"/>
      <point x="269" y="399"/>
      <point x="269" y="384" type="curve" smooth="yes"/>
      <point x="269" y="375"/>
      <point x="259" y="370"/>
      <point x="250" y="370" type="curve" smooth="yes"/>
      <point x="222" y="370"/>
      <point x="145" y="374"/>
      <point x="117" y="374" type="curve" smooth="yes"/>
      <point x="78" y="374"/>
      <point x="41" y="343"/>
      <point x="41" y="313" type="curve" smooth="yes"/>
      <point x="41" y="288"/>
      <point x="62" y="256"/>
      <point x="99" y="226" type="curve"/>
      <point x="64" y="205"/>
      <point x="41" y="177"/>
      <point x="41" y="151" type="curve" smooth="yes"/>
      <point x="41" y="68"/>
      <point x="203" y="-50"/>
      <point x="325" y="-50" type="curve" smooth="yes"/>
      <point x="353" y="-50"/>
      <point x="377" y="-43"/>
      <point x="394" y="-29" type="curve"/>
      <point x="338" y="10" type="line"/>
      <point x="327" y="-5"/>
      <point x="305" y="-12"/>
      <point x="282" y="-12" type="curve" smooth="yes"/>
      <point x="210" y="-12"/>
      <point x="100" y="64"/>
      <point x="100" y="116" type="curve" smooth="yes"/>
      <point x="100" y="165"/>
      <point x="191" y="216"/>
      <point x="263" y="216" type="curve" smooth="yes"/>
      <point x="284" y="216"/>
      <point x="299" y="201"/>
      <point x="299" y="184" type="curve" smooth="yes"/>
      <point x="299" y="160"/>
      <point x="274" y="140"/>
      <point x="237" y="126" type="curve"/>
      <point x="291" y="80" type="line"/>
      <point x="328" y="94"/>
      <point x="351" y="122"/>
      <point x="351" y="155" type="curve" smooth="yes"/>
      <point x="351" y="198"/>
      <point x="275" y="263"/>
      <point x="230" y="263" type="curve" smooth="yes"/>
      <point x="190" y="263"/>
      <point x="154" y="255"/>
      <point x="121" y="240" type="curve"/>
      <point x="104" y="255"/>
      <point x="92" y="270"/>
      <point x="92" y="282" type="curve" smooth="yes"/>
      <point x="92" y="301"/>
      <point x="111" y="317"/>
      <point x="137" y="317" type="curve" smooth="yes"/>
      <point x="161" y="317"/>
      <point x="240" y="312"/>
      <point x="263" y="312" type="curve" smooth="yes"/>
      <point x="290" y="312"/>
      <point x="310" y="330"/>
      <point x="310" y="350" type="curve" smooth="yes"/>
      <point x="310" y="375"/>
      <point x="296" y="411"/>
      <point x="266" y="442" type="curve" smooth="yes"/>
      <point x="209" y="500" type="line"/>
      <point x="-10" y="500" type="line"/>
      <point x="-10" y="442" type="line"/>
    </contour>
    <contour>
      <point x="394" y="442" type="line"/>
      <point x="394" y="500" type="line"/>
      <point x="242" y="500" type="line"/>
      <point x="299" y="442" type="line"/>
    </contour>
    <contour>
      <point x="84" y="-33" type="move" name="nukta"/>
    </contour>
    <contour>
      <point x="285" y="-33" type="move" name="bottom"/>
    </contour>
    <contour>
      <point x="225" y="500" type="move" name="top"/>
    </contour>
  </outline>
</glyph>
<glyph name="uni093A" format="1">
  <advance width="0"/>
  <unicode hex="093A"/>
  <outline>
    <contour>
      <point x="-84" y="500" type="line"/>
      <point x="-84" y="688" type="line"/>
      <point x="-144" y="688" type="line"/>
      <point x="-144" y="500" type="line"/>
    </contour>
    <contour>
      <point x="-113" y="500" type="move" name="_top"/>
    </contour>
  </outline>
</glyph>
<glyph name="nukta-deva" format="1">
  <advance width="0"/>
  <unicode hex="093C"/>
  <outline>
    <contour>
      <point x="-113" y="-53" type="line"/>
      <point x="-61" y="0" type="line"/>
      <point x="-113" y="53" type="line"/>
      <point x="-166" y="0" type="line"/>
    </contour>
    <contour>
      <point x="-113" y="0" type="move" name="_nukta"/>
    </contour>
  </outline>
</glyph>
<glyph name="avagraha-deva" format="1">
  <advance width="415"/>
  <unicode hex="093D"/>
  <outline>
    <contour>
      <point x="126" y="483" type="line" smooth="yes"/>
      <point x="77" y="483"/>
      <point x="37" y="446"/>
      <point x="37" y="399" type="curve" smooth="yes"/>
      <point x="37" y="365"/>
      <point x="71" y="323"/>
      <point x="125" y="293" type="curve" smooth="yes"/>
      <point x="265" y="215" type="line" smooth="yes"/>
      <point x="310" y="191"/>
      <point x="336" y="155"/>
      <point x="336" y="124" type="curve" smooth="yes"/>
      <point x="336" y="82"/>
      <point x="293" y="48"/>
      <point x="239" y="48" type="curve" smooth="yes"/>
      <point x="168" y="48"/>
      <point x="96" y="87"/>
      <point x="40" y="154" type="curve"/>
      <point x="23" y="138" type="line"/>
      <point x="109" y="32"/>
      <point x="201" y="-1"/>
      <point x="277" y="-1" type="curve" smooth="yes"/>
      <point x="340" y="-1"/>
      <point x="390" y="46"/>
      <point x="390" y="103" type="curve" smooth="yes"/>
      <point x="390" y="146"/>
      <point x="352" y="194"/>
      <point x="292" y="227" type="curve" smooth="yes"/>
      <point x="134" y="313" type="line" smooth="yes"/>
      <point x="104" y="329"/>
      <point x="86" y="352"/>
      <point x="86" y="373" type="curve" smooth="yes"/>
      <point x="86" y="403"/>
      <point x="116" y="427"/>
      <point x="153" y="427" type="curve" smooth="yes"/>
      <point x="246" y="427" type="line" smooth="yes"/>
      <point x="278" y="427"/>
      <point x="308" y="412"/>
      <point x="326" y="388" type="curve"/>
      <point x="341" y="403" type="line"/>
      <point x="309" y="450"/>
      <point x="271" y="483"/>
      <point x="242" y="483" type="curve" smooth="yes"/>
    </contour>
  </outline>
</glyph>
<glyph name="aaMatra-deva" format="1">
  <advance width="208"/>
  <unicode hex="093E"/>
  <outline>
    <contour>
      <point x="74" y="442" type="line"/>
      <point x="74" y="122" type="line" smooth="yes"/>
      <point x="74" y="63"/>
      <point x="224" y="-44"/>
      <point x="311" y="-44" type="curve" smooth="yes"/>
      <point x="328" y="-44"/>
      <point x="343" y="-36"/>
      <point x="357" y="-22" type="curve"/>
      <point x="304" y="13" type="line"/>
      <point x="293" y="-2"/>
      <point x="279" y="-9"/>
      <point x="265" y="-9" type="curve" smooth="yes"/>
      <point x="221" y="-9"/>
      <point x="134" y="48"/>
      <point x="134" y="81" type="curve" smooth="yes"/>
      <point x="134" y="442" type="line"/>
      <point x="75" y="500" type="line"/>
      <point x="-10" y="500" type="line"/>
      <point x="-10" y="442" type="line"/>
    </contour>
    <contour>
      <point x="217" y="442" type="line"/>
      <point x="217" y="500" type="line"/>
      <point x="108" y="500" type="line"/>
      <point x="166" y="442" type="line"/>
    </contour>
    <contour>
      <point x="92" y="500" type="move" name="top"/>
    </contour>
    <contour>
      <point x="104" y="0" type="move" name="bottom"/>
    </contour>
  </outline>
</glyph>
<glyph name="rVocalicMatra-deva" format="1">
  <advance width="0"/>
  <unicode hex="0943"/>
  <outline>
    <contour>
      <point x="-175" y="7"/>
      <point x="-222" y="-31"/>
      <point x="-222" y="-73" type="curve" smooth="yes"/>
      <point x="-222" y="-135"/>
      <point x="-131" y="-213"/>
      <point x="-47" y="-213" type="curve" smooth="yes"/>
      <point x="2" y="-213"/>
      <point x="42" y="-200"/>
      <point x="65" y="-174" type="curve"/>
      <point x="25" y="-131" type="line"/>
      <point x="-4" y="-159"/>
      <point x="-40" y="-173"/>
      <point x="-79" y="-173" type="curve" smooth="yes"/>
      <point x="-130" y="-173"/>
      <point x="-174" y="-143"/>
      <point x="-174" y="-103" type="curve" smooth="yes"/>
      <point x="-174" y="-64"/>
      <point x="-121" y="-28"/>
      <point x="-38" y="-21" type="curve"/>
      <point x="-113" y="15" type="line"/>
    </contour>
    <contour>
      <point x="-113" y="0" type="move" name="_bottom"/>
    </contour>
  </outline>
</glyph>
<glyph name="eCandraMatra-deva" format="1">
  <advance width="0"/>
  <unicode hex="0945"/>
  <outline>
    <contour>
      <point x="-266" y="679" type="line"/>
      <point x="-233" y="601"/>
      <point x="-173" y="549"/>
      <point x="-113" y="549" type="curve" smooth="yes"/>
      <point x="-47" y="549"/>
      <point x="12" y="595"/>
      <point x="35" y="663" type="curve"/>
      <point x="-11" y="695" type="line"/>
      <point x="-33" y="637"/>
      <point x="-81" y="600"/>
      <point x="-133" y="600" type="curve" smooth="yes"/>
      <point x="-181" y="600"/>
      <point x="-223" y="638"/>
      <point x="-245" y="690" type="curve"/>
    </contour>
    <contour>
      <point x="-113" y="497" type="move" name="_top"/>
    </contour>
  </outline>
</glyph>
<glyph name="eMatra-deva" format="1">
  <advance width="0"/>
  <unicode hex="0947"/>
  <outline>
    <contour>
      <point x="-440" y="713" type="line"/>
      <point x="-406" y="663"/>
      <point x="-370" y="630"/>
      <point x="-341" y="630" type="curve" smooth="yes"/>
      <point x="-327" y="630"/>
      <point x="-289" y="649"/>
      <point x="-274" y="649" type="curve" smooth="yes"/>
      <point x="-260" y="649"/>
      <point x="-239" y="632"/>
      <point x="-212" y="599" type="curve" smooth="yes"/>
      <point x="-127" y="500" type="line"/>
      <point x="-99" y="500" type="line"/>
      <point x="-230" y="661" type="line" smooth="yes"/>
      <point x="-256" y="693"/>
      <point x="-283" y="713"/>
      <point x="-303" y="713" type="curve" smooth="yes"/>
      <point x="-327" y="713"/>
      <point x="-349" y="690"/>
      <point x="-378" y="690" type="curve" smooth="yes"/>
      <point x="-392" y="690"/>
      <point x="-411" y="705"/>
      <point x="-423" y="728" type="curve"/>
    </contour>
    <contour>
      <point x="-113" y="500" type="move" name="_top"/>
    </contour>
  </outline>
</glyph>
<glyph name="aiMatra-deva" format="1">
  <advance width="0"/>
  <unicode hex="0948"/>
  <outline>
    <contour>
      <point x="-458" y="657" type="line"/>
      <point x="-425" y="618"/>
      <point x="-393" y="594"/>
      <point x="-371" y="594" type="curve" smooth="yes"/>
      <point x="-358" y="594"/>
      <point x="-324" y="608"/>
      <point x="-311" y="608" type="curve" smooth="yes"/>
      <point x="-295" y="608"/>
      <point x="-276" y="599"/>
      <point x="-254" y="584" type="curve" smooth="yes"/>
      <point x="-134" y="500" type="line"/>
      <point x="-92" y="500" type="line"/>
      <point x="-155" y="671" type="line" smooth="yes"/>
      <point x="-171" y="712"/>
      <point x="-199" y="738"/>
      <point x="-224" y="738" type="curve" smooth="yes"/>
      <point x="-236" y="738"/>
      <point x="-277" y="730"/>
      <point x="-289" y="730" type="curve" smooth="yes"/>
      <point x="-309" y="730"/>
      <point x="-328" y="738"/>
      <point x="-338" y="752" type="curve"/>
      <point x="-356" y="739" type="line"/>
      <point x="-328" y="697"/>
      <point x="-293" y="671"/>
      <point x="-269" y="671" type="curve" smooth="yes"/>
      <point x="-258" y="671"/>
      <point x="-223" y="678"/>
      <point x="-212" y="678" type="curve" smooth="yes"/>
      <point x="-195" y="678"/>
      <point x="-177" y="655"/>
      <point x="-165" y="627" type="curve" smooth="yes"/>
      <point x="-123" y="518" type="line"/>
      <point x="-273" y="634" type="line" smooth="yes"/>
      <point x="-301" y="656"/>
      <point x="-324" y="667"/>
      <point x="-338" y="667" type="curve" smooth="yes"/>
      <point x="-351" y="667"/>
      <point x="-395" y="650"/>
      <point x="-409" y="650" type="curve" smooth="yes"/>
      <point x="-418" y="650"/>
      <point x="-434" y="658"/>
      <point x="-443" y="672" type="curve"/>
    </contour>
    <contour>
      <point x="-113" y="500" type="move" name="_top"/>
    </contour>
  </outline>
</glyph>
<glyph name="om-deva" format="1">
  <advance width="811"/>
  <unicode hex="0950"/>
  <outline>
    <contour>
      <point x="39" y="271" type="line"/>
      <point x="83" y="147"/>
      <point x="169" y="65"/>
      <point x="255" y="65" type="curve" smooth="yes"/>
      <point x="307" y="65"/>
      <point x="350" y="105"/>
      <point x="350" y="153" type="curve" smooth="yes"/>
      <point x="350" y="183"/>
      <point x="334" y="215"/>
      <point x="307" y="242" type="curve"/>
      <point x="278" y="218"/>
      <point x="247" y="204"/>
      <point x="218" y="204" type="curve" smooth="yes"/>
      <point x="174" y="204"/>
      <point x="120" y="252"/>
      <point x="120" y="288" type="curve" smooth="yes"/>
      <point x="120" y="321"/>
      <point x="163" y="353"/>
      <point x="208" y="353" type="curve" smooth="yes"/>
      <point x="231" y="353"/>
      <point x="261" y="334"/>
      <point x="290" y="302" type="curve"/>
      <point x="318" y="327"/>
      <point x="334" y="356"/>
      <point x="334" y="384" type="curve" smooth="yes"/>
      <point x="334" y="422"/>
      <point x="296" y="453"/>
      <point x="249" y="453" type="curve" smooth="yes"/>
      <point x="199" y="453"/>
      <point x="148" y="431"/>
      <point x="108" y="392" type="curve"/>
      <point x="59" y="439" type="line"/>
      <point x="103" y="476"/>
      <point x="156" y="495"/>
      <point x="208" y="495" type="curve" smooth="yes"/>
      <point x="288" y="495"/>
      <point x="382" y="420"/>
      <point x="382" y="356" type="curve" smooth="yes"/>
      <point x="382" y="323"/>
      <point x="362" y="286"/>
      <point x="326" y="257" type="curve"/>
      <point x="352" y="226"/>
      <point x="368" y="204"/>
      <point x="375" y="193" type="curve"/>
      <point x="431" y="158"/>
      <point x="490" y="205"/>
      <point x="508" y="308" type="curve" smooth="yes"/>
      <point x="523" y="394"/>
      <point x="572" y="457"/>
      <point x="626" y="457" type="curve" smooth="yes"/>
      <point x="703" y="457"/>
      <point x="774" y="356"/>
      <point x="774" y="248" type="curve" smooth="yes"/>
      <point x="774" y="179"/>
      <point x="727" y="110"/>
      <point x="683" y="110" type="curve" smooth="yes"/>
      <point x="653" y="110"/>
      <point x="612" y="138"/>
      <point x="573" y="184" type="curve"/>
      <point x="588" y="198" type="line"/>
      <point x="609" y="173"/>
      <point x="630" y="158"/>
      <point x="645" y="158" type="curve" smooth="yes"/>
      <point x="687" y="158"/>
      <point x="729" y="233"/>
      <point x="729" y="312" type="curve" smooth="yes"/>
      <point x="729" y="367"/>
      <point x="696" y="413"/>
      <point x="656" y="413" type="curve" smooth="yes"/>
      <point x="617" y="413"/>
      <point x="581" y="363"/>
      <point x="569" y="293" type="curve" smooth="yes"/>
      <point x="554" y="208"/>
      <point x="509" y="146"/>
      <point x="465" y="146" type="curve" smooth="yes"/>
      <point x="443" y="146"/>
      <point x="417" y="153"/>
      <point x="389" y="168" type="curve"/>
      <point x="399" y="152"/>
      <point x="405" y="136"/>
      <point x="405" y="119" type="curve" smooth="yes"/>
      <point x="405" y="59"/>
      <point x="352" y="11"/>
      <point x="285" y="11" type="curve" smooth="yes"/>
      <point x="178" y="11"/>
      <point x="71" y="110"/>
      <point x="17" y="260" type="curve"/>
    </contour>
    <contour>
      <point x="209" y="240"/>
      <point x="239" y="256"/>
      <point x="272" y="285" type="curve"/>
      <point x="261" y="301"/>
      <point x="245" y="311"/>
      <point x="231" y="311" type="curve" smooth="yes"/>
      <point x="204" y="311"/>
      <point x="164" y="282"/>
      <point x="164" y="263" type="curve" smooth="yes"/>
      <point x="164" y="251"/>
      <point x="175" y="240"/>
      <point x="187" y="240" type="curve" smooth="yes"/>
    </contour>
    <contour>
      <point x="399" y="462"/>
      <point x="323" y="522"/>
      <point x="279" y="618" type="curve"/>
      <point x="301" y="628" type="line"/>
      <point x="335" y="556"/>
      <point x="386" y="509"/>
      <point x="434" y="509" type="curve" smooth="yes"/>
      <point x="483" y="509"/>
      <point x="538" y="556"/>
      <point x="572" y="629" type="curve"/>
      <point x="622" y="593" type="line"/>
      <point x="594" y="514"/>
      <point x="533" y="462"/>
      <point x="472" y="462" type="curve" smooth="yes"/>
    </contour>
    <contour>
      <point x="380" y="638" type="line"/>
      <point x="436" y="692" type="line"/>
      <point x="496" y="638" type="line"/>
      <point x="440" y="588" type="line"/>
    </contour>
  </outline>
</glyph>
<glyph name="udatta-deva" format="1">
  <advance width="0"/>
  <unicode hex="0951"/>
  <outline>
    <contour>
      <point x="-145" y="820" type="line"/>
      <point x="-145" y="590" type="line" smooth="yes"/>
      <point x="-82" y="590" type="line"/>
      <point x="-82" y="820" type="line"/>
    </contour>
    <contour>
      <point x="-113" y="633" type="move" name="_top"/>
    </contour>
  </outline>
</glyph>
<glyph name="uni0956" format="1">
  <advance width="0"/>
  <unicode hex="0956"/>
  <outline>
    <contour>
      <point x="-271" y="-41" type="line"/>
      <point x="-227" y="-100"/>
      <point x="-157" y="-134"/>
      <point x="-90" y="-134" type="curve" smooth="yes"/>
      <point x="-18" y="-134"/>
      <point x="45" y="-103"/>
      <point x="76" y="-54" type="curve"/>
      <point x="22" y="-21" type="line"/>
      <point x="-10" y="-66"/>
      <point x="-67" y="-92"/>
      <point x="-129" y="-92" type="curve" smooth="yes"/>
      <point x="-181" y="-92"/>
      <point x="-227" y="-67"/>
      <point x="-255" y="-27" type="curve"/>
    </contour>
    <contour>
      <point x="-113" y="0" type="move" name="_bottom"/>
    </contour>
  </outline>
</glyph>
<glyph name="uni0957" format="1">
  <advance width="0"/>
  <unicode hex="0957"/>
  <outline>
    <contour>
      <point x="-267" y="-36" type="line"/>
      <point x="-223" y="-88"/>
      <point x="-158" y="-121"/>
      <point x="-90" y="-121" type="curve" smooth="yes"/>
      <point x="-10" y="-121"/>
      <point x="57" y="-91"/>
      <point x="81" y="-44" type="curve"/>
      <point x="21" y="-15" type="line"/>
      <point x="-5" y="-58"/>
      <point x="-59" y="-85"/>
      <point x="-116" y="-85" type="curve" smooth="yes"/>
      <point x="-171" y="-85"/>
      <point x="-221" y="-62"/>
      <point x="-251" y="-26" type="curve"/>
    </contour>
    <contour>
      <point x="-7" y="-220"/>
      <point x="59" y="-193"/>
      <point x="82" y="-149" type="curve"/>
      <point x="24" y="-120" type="line"/>
      <point x="-3" y="-161"/>
      <point x="-58" y="-184"/>
      <point x="-115" y="-184" type="curve" smooth="yes"/>
      <point x="-170" y="-184"/>
      <point x="-220" y="-163"/>
      <point x="-250" y="-127" type="curve"/>
      <point x="-266" y="-136" type="line"/>
      <point x="-222" y="-189"/>
      <point x="-158" y="-220"/>
      <point x="-88" y="-220" type="curve" smooth="yes"/>
    </contour>
  </outline>
</glyph>
<glyph name="ghha-deva" format="1">
  <advance width="501"/>
  <unicode hex="095A"/>
  <outline>
    <component base="ga-deva"/>
    <component base="nukta-deva" xOffset="265" yOffset="41"/>
    <contour>
      <point x="385" y="500" type="move" name="top"/>
    </contour>
    <contour>
      <point x="397" y="0" type="move" name="bottom"/>
    </contour>
  </outline>
</glyph>
<glyph name="dddha-deva" format="1">
  <advance width="459"/>
  <unicode hex="095C"/>
  <outline>
    <component base="dda-deva"/>
    <component base="nukta-deva" xOffset="391" yOffset="-120"/>
    <contour>
      <point x="287" y="500" type="move" name="top"/>
    </contour>
    <contour>
      <point x="268" y="0" type="move" name="bottom"/>
    </contour>
  </outline>
</glyph>
<glyph name="rha-deva" format="1">
  <advance width="424"/>
  <unicode hex="095D"/>
  <outline>
    <component base="ddha-deva"/>
    <component base="nukta-deva" xOffset="370" yOffset="-120"/>
    <contour>
      <point x="271" y="500" type="move" name="top"/>
    </contour>
    <contour>
      <point x="272" y="0" type="move" name="bottom"/>
    </contour>
  </outline>
</glyph>
<glyph name="rrVocalic-deva" format="1">
  <advance width="616"/>
  <unicode hex="0960"/>
  <outline>
    <contour>
      <point x="-10" y="500" type="line"/>
      <point x="-10" y="442" type="line"/>
      <point x="262" y="442" type="line"/>
      <point x="262" y="299" type="line"/>
      <point x="217" y="354"/>
      <point x="167" y="387"/>
      <point x="127" y="387" type="curve" smooth="yes"/>
      <point x="83" y="387"/>
      <point x="41" y="370"/>
      <point x="11" y="340" type="curve"/>
      <point x="51" y="286" type="line"/>
      <point x="85" y="319"/>
      <point x="124" y="338"/>
      <point x="161" y="338" type="curve" smooth="yes"/>
      <point x="186" y="338"/>
      <point x="220" y="315"/>
      <point x="252" y="276" type="curve"/>
      <point x="210" y="227"/>
      <point x="153" y="191"/>
      <point x="81" y="168" type="curve"/>
      <point x="137" y="120" type="line"/>
      <point x="187" y="142"/>
      <point x="229" y="171"/>
      <point x="262" y="204" type="curve"/>
      <point x="262" y="119" type="line" smooth="yes"/>
      <point x="262" y="64"/>
      <point x="414" y="-44"/>
      <point x="500" y="-44" type="curve" smooth="yes"/>
      <point x="515" y="-44"/>
      <point x="532" y="-36"/>
      <point x="546" y="-22" type="curve"/>
      <point x="492" y="12" type="line"/>
      <point x="481" y="-2"/>
      <point x="468" y="-9"/>
      <point x="455" y="-9" type="curve" smooth="yes"/>
      <point x="406" y="-9"/>
      <point x="322" y="49"/>
      <point x="322" y="81" type="curve" smooth="yes"/>
      <point x="322" y="266" type="line"/>
      <point x="353" y="243"/>
      <point x="386" y="231"/>
      <point x="421" y="231" type="curve" smooth="yes"/>
      <point x="440" y="231"/>
      <point x="458" y="235"/>
      <point x="476" y="241" type="curve"/>
      <point x="488" y="232"/>
      <point x="504" y="217"/>
      <point x="504" y="208" type="curve" smooth="yes"/>
      <point x="504" y="182"/>
      <point x="392" y="192"/>
      <point x="392" y="134" type="curve" smooth="yes"/>
      <point x="392" y="95"/>
      <point x="460" y="45"/>
      <point x="514" y="45" type="curve" smooth="yes"/>
      <point x="547" y="45"/>
      <point x="579" y="56"/>
      <point x="606" y="78" type="curve"/>
      <point x="561" y="113" type="line"/>
      <point x="537" y="93"/>
      <point x="512" y="83"/>
      <point x="489" y="83" type="curve" smooth="yes"/>
      <point x="464" y="83"/>
      <point x="444" y="96"/>
      <point x="444" y="110" type="curve" smooth="yes"/>
      <point x="444" y="145"/>
      <point x="550" y="140"/>
      <point x="550" y="187" type="curve" smooth="yes"/>
      <point x="550" y="204"/>
      <point x="531" y="229"/>
      <point x="501" y="251" type="curve"/>
      <point x="522" y="267"/>
      <point x="535" y="284"/>
      <point x="535" y="298" type="curve" smooth="yes"/>
      <point x="535" y="332"/>
      <point x="489" y="375"/>
      <point x="454" y="375" type="curve" smooth="yes"/>
      <point x="431" y="375"/>
      <point x="413" y="358"/>
      <point x="413" y="335" type="curve" smooth="yes"/>
      <point x="413" y="319"/>
      <point x="420" y="302"/>
      <point x="433" y="286" type="curve"/>
      <point x="418" y="277"/>
      <point x="402" y="272"/>
      <point x="386" y="272" type="curve" smooth="yes"/>
      <point x="360" y="272"/>
      <point x="338" y="281"/>
      <point x="322" y="295" type="curve"/>
      <point x="322" y="442" type="line"/>
      <point x="264" y="500" type="line"/>
    </contour>
    <contour>
      <point x="297" y="500" type="line"/>
      <point x="355" y="442" type="line"/>
      <point x="626" y="442" type="line"/>
      <point x="626" y="500" type="line"/>
    </contour>
    <contour>
      <point x="281" y="500" type="move" name="top"/>
    </contour>
    <contour>
      <point x="296" y="0" type="move" name="bottom"/>
    </contour>
  </outline>
</glyph>
<glyph name="llVocalic-deva" format="1">
  <advance width="577"/>
  <unicode hex="0961"/>
  <outline>
    <contour>
      <point x="-10" y="500" type="line"/>
      <point x="368" y="500" type="line"/>
      <point x="422" y="442" type="line"/>
      <point x="422" y="356" type="line"/>
      <point x="496" y="330"/>
      <point x="545" y="273"/>
      <point x="545" y="212" type="curve" smooth="yes"/>
      <point x="545" y="135"/>
      <point x="403" y="122"/>
      <point x="403" y="62" type="curve" smooth="yes"/>
      <point x="403" y="50"/>
      <point x="414" y="44"/>
      <point x="429" y="44" type="curve" smooth="yes"/>
      <point x="444" y="44"/>
      <point x="466" y="52"/>
      <point x="484" y="64" type="curve"/>
      <point x="510" y="27" type="line"/>
      <point x="477" y="18"/>
      <point x="440" y="-4"/>
      <point x="440" y="-25" type="curve" smooth="yes"/>
      <point x="440" y="-40"/>
      <point x="458" y="-50"/>
      <point x="481" y="-50" type="curve" smooth="yes"/>
      <point x="514" y="-50"/>
      <point x="547" y="-33"/>
      <point x="574" y="-2" type="curve"/>
      <point x="614" y="-36" type="line"/>
      <point x="589" y="-62"/>
      <point x="554" y="-77"/>
      <point x="514" y="-77" type="curve" smooth="yes"/>
      <point x="455" y="-77"/>
      <point x="396" y="-42"/>
      <point x="396" y="-7" type="curve" smooth="yes"/>
      <point x="396" y="3"/>
      <point x="406" y="16"/>
      <point x="423" y="26" type="curve"/>
      <point x="380" y="29"/>
      <point x="351" y="58"/>
      <point x="351" y="84" type="curve" smooth="yes"/>
      <point x="351" y="153"/>
      <point x="502" y="168"/>
      <point x="502" y="244" type="curve" smooth="yes"/>
      <point x="502" y="288"/>
      <point x="463" y="323"/>
      <point x="415" y="323" type="curve" smooth="yes"/>
      <point x="357" y="323"/>
      <point x="315" y="273"/>
      <point x="315" y="178" type="curve"/>
      <point x="255" y="206" type="line"/>
      <point x="255" y="221"/>
      <point x="257" y="238"/>
      <point x="260" y="257" type="curve"/>
      <point x="241" y="290"/>
      <point x="213" y="311"/>
      <point x="188" y="311" type="curve" smooth="yes"/>
      <point x="135" y="311"/>
      <point x="88" y="252"/>
      <point x="88" y="187" type="curve" smooth="yes"/>
      <point x="88" y="129"/>
      <point x="166" y="38"/>
      <point x="216" y="38" type="curve" smooth="yes"/>
      <point x="232" y="38"/>
      <point x="248" y="45"/>
      <point x="262" y="58" type="curve"/>
      <point x="301" y="15" type="line"/>
      <point x="288" y="2"/>
      <point x="270" y="-5"/>
      <point x="251" y="-5" type="curve" smooth="yes"/>
      <point x="163" y="-5"/>
      <point x="39" y="138"/>
      <point x="39" y="238" type="curve" smooth="yes"/>
      <point x="39" y="299"/>
      <point x="94" y="358"/>
      <point x="151" y="358" type="curve" smooth="yes"/>
      <point x="193" y="358"/>
      <point x="237" y="331"/>
      <point x="271" y="283" type="curve"/>
      <point x="291" y="329"/>
      <point x="326" y="359"/>
      <point x="362" y="363" type="curve"/>
      <point x="362" y="442" type="line"/>
      <point x="-10" y="442" type="line"/>
    </contour>
    <contour>
      <point x="401" y="500" type="line"/>
      <point x="587" y="500" type="line"/>
      <point x="587" y="442" type="line"/>
      <point x="455" y="442" type="line"/>
    </contour>
    <contour>
      <point x="384" y="500" type="move" name="top"/>
    </contour>
    <contour>
      <point x="341" y="0" type="move" name="bottom"/>
    </contour>
  </outline>
</glyph>
<glyph name="llVocalicMatra-deva" format="1">
  <advance width="0"/>
  <unicode hex="0963"/>
  <outline>
    <contour>
      <point x="-274" y="-121"/>
      <point x="-234" y="-83"/>
      <point x="-193" y="-83" type="curve" smooth="yes"/>
      <point x="-166" y="-83"/>
      <point x="-135" y="-101"/>
      <point x="-107" y="-130" type="curve"/>
      <point x="-93" y="-99"/>
      <point x="-63" y="-80"/>
      <point x="-29" y="-80" type="curve" smooth="yes"/>
      <point x="31" y="-80"/>
      <point x="93" y="-131"/>
      <point x="93" y="-179" type="curve" smooth="yes"/>
      <point x="93" y="-231"/>
      <point x="-22" y="-244"/>
      <point x="-22" y="-276" type="curve" smooth="yes"/>
      <point x="-22" y="-282"/>
      <point x="-13" y="-286"/>
      <point x="-2" y="-286" type="curve" smooth="yes"/>
      <point x="15" y="-286"/>
      <point x="31" y="-281"/>
      <point x="46" y="-273" type="curve"/>
      <point x="63" y="-299" type="line"/>
      <point x="40" y="-305"/>
      <point x="13" y="-320"/>
      <point x="13" y="-335" type="curve" smooth="yes"/>
      <point x="13" y="-343"/>
      <point x="29" y="-347"/>
      <point x="41" y="-347" type="curve" smooth="yes"/>
      <point x="68" y="-347"/>
      <point x="95" y="-335"/>
      <point x="119" y="-315" type="curve"/>
      <point x="149" y="-344" type="line"/>
      <point x="128" y="-362"/>
      <point x="100" y="-372"/>
      <point x="72" y="-372" type="curve" smooth="yes"/>
      <point x="23" y="-372"/>
      <point x="-28" y="-348"/>
      <point x="-28" y="-325" type="curve" smooth="yes"/>
      <point x="-28" y="-316"/>
      <point x="-17" y="-308"/>
      <point x="-3" y="-301" type="curve"/>
      <point x="-40" y="-299"/>
      <point x="-60" y="-279"/>
      <point x="-60" y="-255" type="curve" smooth="yes"/>
      <point x="-60" y="-219"/>
      <point x="59" y="-191"/>
      <point x="59" y="-159" type="curve" smooth="yes"/>
      <point x="59" y="-133"/>
      <point x="31" y="-112"/>
      <point x="-1" y="-112" type="curve" smooth="yes"/>
      <point x="-36" y="-112"/>
      <point x="-65" y="-139"/>
      <point x="-65" y="-201" type="curve"/>
      <point x="-120" y="-183" type="line"/>
      <point x="-120" y="-172"/>
      <point x="-119" y="-161"/>
      <point x="-117" y="-148" type="curve"/>
      <point x="-128" y="-133"/>
      <point x="-143" y="-123"/>
      <point x="-159" y="-123" type="curve" smooth="yes"/>
      <point x="-196" y="-123"/>
      <point x="-230" y="-158"/>
      <point x="-230" y="-197" type="curve" smooth="yes"/>
      <point x="-230" y="-229"/>
      <point x="-179" y="-279"/>
      <point x="-147" y="-279" type="curve" smooth="yes"/>
      <point x="-134" y="-279"/>
      <point x="-121" y="-273"/>
      <point x="-108" y="-264" type="curve"/>
      <point x="-79" y="-297" type="line"/>
      <point x="-92" y="-308"/>
      <point x="-106" y="-312"/>
      <point x="-118" y="-312" type="curve" smooth="yes"/>
      <point x="-183" y="-312"/>
      <point x="-274" y="-222"/>
      <point x="-274" y="-159" type="curve" smooth="yes"/>
    </contour>
    <contour>
      <point x="-84" y="30" type="line"/>
      <point x="-84" y="-163" type="line"/>
      <point x="-144" y="-111" type="line"/>
      <point x="-144" y="30" type="line"/>
    </contour>
    <contour>
      <point x="-113" y="0" type="move" name="_bottom"/>
    </contour>
  </outline>
</glyph>
<glyph name="dbldanda-deva" format="1">
  <advance width="748"/>
  <unicode hex="0965"/>
  <outline>
    <contour>
      <point x="148" y="80" type="line" smooth="yes"/>
      <point x="148" y="19"/>
      <point x="302" y="-86"/>
      <point x="386" y="-86" type="curve" smooth="yes"/>
      <point x="403" y="-86"/>
      <point x="418" y="-78"/>
      <point x="431" y="-63" type="curve"/>
      <point x="378" y="-29" type="line"/>
      <point x="367" y="-43"/>
      <point x="353" y="-51"/>
      <point x="340" y="-51" type="curve" smooth="yes"/>
      <point x="295" y="-51"/>
      <point x="208" y="6"/>
      <point x="208" y="39" type="curve" smooth="yes"/>
      <point x="208" y="548" type="line"/>
      <point x="148" y="600" type="line"/>
    </contour>
    <contour>
      <point x="391" y="80" type="line" smooth="yes"/>
      <point x="391" y="19"/>
      <point x="545" y="-86"/>
      <point x="629" y="-86" type="curve" smooth="yes"/>
      <point x="646" y="-86"/>
      <point x="661" y="-78"/>
      <point x="674" y="-63" type="curve"/>
      <point x="621" y="-29" type="line"/>
      <point x="610" y="-43"/>
      <point x="596" y="-51"/>
      <point x="583" y="-51" type="curve" smooth="yes"/>
      <point x="538" y="-51"/>
      <point x="451" y="6"/>
      <point x="451" y="39" type="curve" smooth="yes"/>
      <point x="451" y="548" type="line"/>
      <point x="391" y="600" type="line"/>
    </contour>
  </outline>
</glyph>
<glyph name="three-deva" format="1">
  <advance width="458"/>
  <unicode hex="0969"/>
  <outline>
    <contour>
      <point x="80" y="480" type="line"/>
      <point x="114" y="518"/>
      <point x="170" y="540"/>
      <point x="230" y="540" type="curve" smooth="yes"/>
      <point x="261" y="540"/>
      <point x="285" y="510"/>
      <point x="285" y="478" type="curve" smooth="yes"/>
      <point x="285" y="450"/>
      <point x="269" y="420"/>
      <point x="243" y="395" type="curve"/>
      <point x="219" y="420"/>
      <point x="191" y="438"/>
      <point x="168" y="438" type="curve" smooth="yes"/>
      <point x="130" y="438"/>
      <point x="93" y="409"/>
      <point x="93" y="380" type="curve" smooth="yes"/>
      <point x="93" y="345"/>
      <point x="148" y="302"/>
      <point x="188" y="302" type="curve" smooth="yes"/>
      <point x="211" y="302"/>
      <point x="240" y="312"/>
      <point x="261" y="331" type="curve"/>
      <point x="287" y="304"/>
      <point x="301" y="276"/>
      <point x="301" y="248" type="curve" smooth="yes"/>
      <point x="301" y="203"/>
      <point x="259" y="164"/>
      <point x="203" y="154" type="curve"/>
      <point x="187" y="212"/>
      <point x="148" y="257"/>
      <point x="113" y="257" type="curve" smooth="yes"/>
      <point x="77" y="257"/>
      <point x="47" y="231"/>
      <point x="47" y="202" type="curve" smooth="yes"/>
      <point x="47" y="159"/>
      <point x="94" y="97"/>
      <point x="193" y="97" type="curve"/>
      <point x="225" y="14"/>
      <point x="288" y="-45"/>
      <point x="353" y="-45" type="curve" smooth="yes"/>
      <point x="385" y="-45"/>
      <point x="412" y="-32"/>
      <point x="424" y="-13" type="curve"/>
      <point x="370" y="27" type="line"/>
      <point x="360" y="11"/>
      <point x="340" y="1"/>
      <point x="320" y="1" type="curve" smooth="yes"/>
      <point x="282" y="1"/>
      <point x="241" y="43"/>
      <point x="219" y="98" type="curve"/>
      <point x="291" y="103"/>
      <point x="355" y="153"/>
      <point x="355" y="215" type="curve" smooth="yes"/>
      <point x="355" y="253"/>
      <point x="328" y="302"/>
      <point x="282" y="346" type="curve"/>
      <point x="313" y="371"/>
      <point x="331" y="407"/>
      <point x="331" y="445" type="curve" smooth="yes"/>
      <point x="331" y="509"/>
      <point x="251" y="583"/>
      <point x="184" y="583" type="curve" smooth="yes"/>
      <point x="124" y="583"/>
      <point x="70" y="562"/>
      <point x="32" y="527" type="curve"/>
    </contour>
    <contour>
      <point x="113" y="142"/>
      <point x="96" y="156"/>
      <point x="96" y="172" type="curve" smooth="yes"/>
      <point x="96" y="187"/>
      <point x="114" y="202"/>
      <point x="136" y="202" type="curve" smooth="yes"/>
      <point x="154" y="202"/>
      <point x="168" y="177"/>
      <point x="178" y="149" type="curve"/>
      <point x="169" y="144"/>
      <point x="155" y="142"/>
      <point x="135" y="142" type="curve" smooth="yes"/>
    </contour>
    <contour>
      <point x="153" y="341"/>
      <point x="142" y="347"/>
      <point x="142" y="356" type="curve" smooth="yes"/>
      <point x="142" y="374"/>
      <point x="172" y="395"/>
      <point x="194" y="395" type="curve" smooth="yes"/>
      <point x="205" y="395"/>
      <point x="218" y="387"/>
      <point x="228" y="375" type="curve"/>
      <point x="208" y="355"/>
      <point x="183" y="341"/>
      <point x="162" y="341" type="curve" smooth="yes"/>
    </contour>
  </outline>
</glyph>
<glyph name="four-deva" format="1">
  <advance width="458"/>
  <unicode hex="096A"/>
  <outline>
    <contour>
      <point x="29" y="327"/>
      <point x="92" y="257"/>
      <point x="185" y="213" type="curve"/>
      <point x="132" y="181"/>
      <point x="102" y="140"/>
      <point x="102" y="109" type="curve" smooth="yes"/>
      <point x="102" y="52"/>
      <point x="191" y="-7"/>
      <point x="267" y="-7" type="curve" smooth="yes"/>
      <point x="321" y="-7"/>
      <point x="375" y="45"/>
      <point x="375" y="97" type="curve" smooth="yes"/>
      <point x="375" y="134"/>
      <point x="329" y="176"/>
      <point x="265" y="200" type="curve"/>
      <point x="365" y="263"/>
      <point x="429" y="343"/>
      <point x="429" y="414" type="curve" smooth="yes"/>
      <point x="429" y="512"/>
      <point x="319" y="605"/>
      <point x="207" y="605" type="curve"/>
      <point x="192" y="584" type="line"/>
      <point x="284" y="584"/>
      <point x="380" y="519"/>
      <point x="380" y="455" type="curve" smooth="yes"/>
      <point x="380" y="382"/>
      <point x="314" y="298"/>
      <point x="211" y="232" type="curve"/>
      <point x="135" y="260"/>
      <point x="83" y="312"/>
      <point x="83" y="362" type="curve" smooth="yes"/>
      <point x="83" y="409"/>
      <point x="115" y="460"/>
      <point x="165" y="497" type="curve"/>
      <point x="113" y="547" type="line"/>
      <point x="61" y="509"/>
      <point x="29" y="451"/>
      <point x="29" y="394" type="curve" smooth="yes"/>
    </contour>
    <contour>
      <point x="191" y="29"/>
      <point x="161" y="52"/>
      <point x="161" y="80" type="curve" smooth="yes"/>
      <point x="161" y="110"/>
      <point x="192" y="149"/>
      <point x="244" y="181" type="curve"/>
      <point x="285" y="170"/>
      <point x="318" y="145"/>
      <point x="318" y="121" type="curve" smooth="yes"/>
      <point x="318" y="79"/>
      <point x="268" y="29"/>
      <point x="228" y="29" type="curve" smooth="yes"/>
    </contour>
  </outline>
</glyph>
<glyph name="nine-deva" format="1">
  <advance width="458"/>
  <unicode hex="096F"/>
  <outline>
    <contour>
      <point x="29" y="186"/>
      <point x="126" y="85"/>
      <point x="223" y="85" type="curve" smooth="yes"/>
      <point x="242" y="85"/>
      <point x="302" y="106"/>
      <point x="321" y="106" type="curve" smooth="yes"/>
      <point x="355" y="106"/>
      <point x="384" y="78"/>
      <point x="384" y="43" type="curve" smooth="yes"/>
      <point x="384" y="11"/>
      <point x="342" y="-30"/>
      <point x="302" y="-35" type="curve"/>
      <point x="362" y="-85" type="line"/>
      <point x="401" y="-71"/>
      <point x="430" y="-34"/>
      <point x="430" y="9" type="curve" smooth="yes"/>
      <point x="430" y="80"/>
      <point x="346" y="156"/>
      <point x="272" y="156" type="curve" smooth="yes"/>
      <point x="250" y="156"/>
      <point x="192" y="136"/>
      <point x="165" y="136" type="curve" smooth="yes"/>
      <point x="119" y="136"/>
      <point x="80" y="181"/>
      <point x="80" y="237" type="curve" smooth="yes"/>
      <point x="80" y="291"/>
      <point x="98" y="347"/>
      <point x="134" y="403" type="curve"/>
      <point x="153" y="338"/>
      <point x="201" y="295"/>
      <point x="252" y="295" type="curve" smooth="yes"/>
      <point x="316" y="295"/>
      <point x="383" y="362"/>
      <point x="383" y="425" type="curve" smooth="yes"/>
      <point x="383" y="491"/>
      <point x="312" y="560"/>
      <point x="244" y="560" type="curve" smooth="yes"/>
      <point x="145" y="560"/>
      <point x="29" y="411"/>
      <point x="29" y="286" type="curve" smooth="yes"/>
    </contour>
    <contour>
      <point x="185" y="348"/>
      <point x="159" y="380"/>
      <point x="150" y="423" type="curve"/>
      <point x="187" y="481"/>
      <point x="238" y="517"/>
      <point x="285" y="517" type="curve" smooth="yes"/>
      <point x="316" y="517"/>
      <point x="341" y="490"/>
      <point x="341" y="458" type="curve" smooth="yes"/>
      <point x="341" y="405"/>
      <point x="269" y="348"/>
      <point x="217" y="348" type="curve" smooth="yes"/>
    </contour>
  </outline>
</glyph>
<glyph name="abbreviation-deva" format="1">
  <advance width="393"/>
  <unicode hex="0970"/>
  <outline>
    <contour>
      <point x="74" y="52"/>
      <point x="152" y="-5"/>
      <point x="208" y="-5" type="curve" smooth="yes"/>
      <point x="266" y="-5"/>
      <point x="319" y="54"/>
      <point x="319" y="115" type="curve" smooth="yes"/>
      <point x="319" y="163"/>
      <point x="251" y="220"/>
      <point x="195" y="220" type="curve" smooth="yes"/>
      <point x="132" y="220"/>
      <point x="74" y="162"/>
      <point x="74" y="98" type="curve" smooth="yes"/>
    </contour>
    <contour>
      <point x="148" y="29"/>
      <point x="131" y="47"/>
      <point x="131" y="67" type="curve" smooth="yes"/>
      <point x="131" y="121"/>
      <point x="181" y="183"/>
      <point x="232" y="183" type="curve" smooth="yes"/>
      <point x="249" y="183"/>
      <point x="265" y="168"/>
      <point x="265" y="151" type="curve" smooth="yes"/>
      <point x="265" y="91"/>
      <point x="216" y="29"/>
      <point x="168" y="29" type="curve" smooth="yes"/>
    </contour>
  </outline>
</glyph>
<glyph name="highspacingdot-deva" format="1">
  <advance width="197"/>
  <unicode hex="0971"/>
  <outline>
    <contour>
      <point x="98" y="413" type="line"/>
      <point x="157" y="471" type="line"/>
      <point x="98" y="529" type="line"/>
      <point x="40" y="471" type="line"/>
    </contour>
  </outline>
</glyph>
<glyph name="aCandra-deva" format="1">
  <advance width="563"/>
  <unicode hex="0972"/>
  <outline>
    <component base="a-deva"/>
    <component base="eCandraMatra-deva" xOffset="563" yOffset="3"/>
    <contour>
      <point x="82" y="0" type="move" name="nukta"/>
    </contour>
    <contour>
      <point x="459" y="0" type="move" name="bottom"/>
    </contour>
    <contour>
      <point x="450" y="500" type="move" name="top"/>
    </contour>
  </outline>
</glyph>
<glyph name="gga-deva" format="1">
  <advance width="501"/>
  <unicode hex="097B"/>
  <outline>
    <contour>
      <point x="426" y="-101" type="line"/>
      <point x="393" y="-57" type="line"/>
      <point x="30" y="-57" type="line"/>
      <point x="59" y="-101" type="line"/>
    </contour>
    <component base="ga-deva"/>
    <contour>
      <point x="387" y="500" type="move" name="top"/>
    </contour>
  </outline>
</glyph>
<glyph name="jja-deva" format="1">
  <advance width="566"/>
  <unicode hex="097C"/>
  <outline>
    <contour>
      <point x="489" y="-101" type="line"/>
      <point x="456" y="-57" type="line"/>
      <point x="30" y="-57" type="line"/>
      <point x="59" y="-101" type="line"/>
    </contour>
    <component base="ja-deva"/>
    <contour>
      <point x="447" y="500" type="move" name="top"/>
    </contour>
  </outline>
</glyph>
